<?xml version="1.0" encoding="utf-8"?>
<!-- Generator: Adobe Illustrator 19.2.1, SVG Export Plug-In . SVG Version: 6.00 Build 0)  -->
<svg version="1.1" xmlns="http://www.w3.org/2000/svg" xmlns:xlink="http://www.w3.org/1999/xlink" x="0px" y="0px"
     viewBox="0 0 15.6 13.2" style="enable-background:new 0 0 15.6 13.2;" xml:space="preserve">
<style type="text/css">
    .st0{fill:#A6AFBC;}
    .st1{fill:none;stroke:#4772A5;stroke-linecap:round;stroke-linejoin:round;stroke-miterlimit:10;}
</style>
<g id="Layer_1">
    <path class="st0" d="M7.6,27.7C7.6,27.7,7.6,27.7,7.6,27.7c-0.1,0-0.3-0.1-0.3-0.3c0-0.6-0.1-1.7-0.9-2.2c-0.1-0.1-0.2-0.2-0.1-0.3
        c0.1-0.1,0.2-0.2,0.3-0.1c0.8,0.5,1.2,1.4,1.2,2.6C7.8,27.6,7.7,27.7,7.6,27.7z"/>
    <path class="st0" d="M6.7,29.7c-0.3,0-0.5,0-0.7-0.1c-0.2-0.1-0.2-0.5-0.2-1.1c0-0.3,0-0.7,0-0.8c-0.1,0-0.4,0-0.5,0
        c-0.2,0-0.5,0.1-0.7,0c-0.1,0-0.2-0.1-0.2-0.3c0-0.1,0.1-0.3,0.3-0.2c0.2,0,0.4,0,0.6,0c0.4,0,0.7-0.1,0.9,0.1
        c0.2,0.2,0.2,0.6,0.2,1.2c0,0.2,0,0.5,0,0.7c0.3,0.1,0.9,0,1.2,0c0.1,0,0.3,0.1,0.3,0.2c0,0.1-0.1,0.3-0.2,0.3
        C7.5,29.6,7.1,29.7,6.7,29.7z"/>
    <path class="st0" d="M7.7,26.8c-0.1,0-0.2,0-0.3,0c-0.1,0-0.2-0.1-0.2-0.3c0-0.1,0.1-0.2,0.3-0.2c0.4,0,1,0,1,0
        c0.1,0,0.3,0.1,0.3,0.2c0,0.1-0.1,0.3-0.2,0.3C8.5,26.8,8.1,26.8,7.7,26.8z"/>
    <path class="st0" d="M4.4,32.1c-0.1,0-0.3-0.1-0.3-0.3s0.1-0.3,0.3-0.3c1.2,0,2-0.1,2.6-0.4c0.5-0.3,1.8-1.5,1.8-1.7
        c0-0.1,0.1-0.3,0.3-0.3s0.3,0.1,0.3,0.3c0,0.6-1.6,1.9-2.1,2.2C6.6,31.9,5.7,32.1,4.4,32.1z"/>
    <path class="st0" d="M5.8,34.5c-0.1,0-0.1,0-0.2-0.1c-0.1-0.1-0.1-0.3,0-0.4c0.2-0.1,0.3-0.3,0.5-0.5c0.4-0.5,0.9-1,1.5-1
        c0.1,0,0.3,0.1,0.3,0.2c0,0.1-0.1,0.3-0.2,0.3c-0.4,0-0.8,0.5-1.1,0.9c-0.2,0.2-0.3,0.4-0.5,0.5C5.9,34.5,5.8,34.5,5.8,34.5z"/>
    <path class="st0" d="M9.7,31.2c-0.6,0-1.1-0.2-1.5-0.7c-0.1-0.1-0.1-0.3,0-0.4c0.1-0.1,0.3-0.1,0.4,0c0.3,0.3,0.7,0.5,1.2,0.5
        c0.1,0,0.3,0.1,0.3,0.3C10,31.1,9.9,31.2,9.7,31.2z"/>
    <path class="st0" d="M7.7,35.5c-0.6,0-1.1-0.2-1.6-0.5c-1.5-1.1-2.3-2.9-2.3-5c0-2.8,1.5-5.1,3.9-5.9c0.6-0.2,1.2-0.1,1.7,0.2
        c0.5,0.3,0.7,0.9,0.7,1.6v7.1c0,1-0.5,1.9-1.4,2.3C8.5,35.4,8.1,35.5,7.7,35.5z M8.4,24.3c-0.2,0-0.3,0-0.5,0.1
        c-2.2,0.8-3.5,2.9-3.5,5.5c0,2,0.7,3.6,2.1,4.6c0.6,0.5,1.4,0.6,2.1,0.2c0.7-0.3,1.1-1,1.1-1.9v-7.1c0-0.3-0.1-0.8-0.5-1.1
        C8.9,24.4,8.7,24.3,8.4,24.3z"/>
    <path class="st0" d="M9.2,34.7c-0.1,0-0.1,0-0.2-0.1c-0.3-0.3-0.7-0.7-0.7-1.4c0-0.1,0.1-0.3,0.3-0.3s0.3,0.1,0.3,0.3
        c0,0.4,0.2,0.7,0.6,1c0.1,0.1,0.1,0.3,0,0.4C9.3,34.7,9.2,34.7,9.2,34.7z"/>
    <path class="st0" d="M9,28.2c-0.1,0-0.2-0.1-0.3-0.2c0-0.1,0.1-0.3,0.2-0.3c0.2,0,0.2,0,0.6-0.5c0.1-0.1,0.2-0.1,0.4-0.1
        s0.1,0.2,0.1,0.4C9.6,28,9.4,28.2,9,28.2C9,28.2,9,28.2,9,28.2z"/>
    <path class="st0" d="M13.6,27.7c-0.1,0-0.2-0.1-0.3-0.2c0-1.2,0.4-2.2,1.2-2.6c0.1-0.1,0.3,0,0.3,0.1s0,0.3-0.1,0.3
        c-0.8,0.5-0.9,1.6-0.9,2.2C13.9,27.6,13.7,27.7,13.6,27.7C13.6,27.7,13.6,27.7,13.6,27.7z"/>
    <path class="st0" d="M14.4,29.7c-0.4,0-0.8-0.1-0.9-0.1c-0.1,0-0.2-0.2-0.2-0.3c0-0.1,0.2-0.2,0.3-0.2c0.4,0.1,1,0.1,1.2,0
        c0-0.1,0-0.4,0-0.7c0-0.7-0.1-1.1,0.2-1.2c0.2-0.2,0.5-0.2,0.9-0.1c0.2,0,0.4,0,0.5,0c0.1,0,0.3,0.1,0.3,0.2c0,0.1-0.1,0.3-0.2,0.3
        c-0.2,0-0.4,0-0.6,0c-0.2,0-0.4,0-0.5,0c0,0.1,0,0.6,0,0.8c0,0.6,0.1,1-0.2,1.1C15,29.7,14.7,29.7,14.4,29.7z"/>
    <path class="st0" d="M13.4,26.8c-0.4,0-0.8-0.1-0.8-0.1c-0.1,0-0.2-0.1-0.2-0.3c0-0.1,0.1-0.2,0.3-0.2c0,0,0.6,0.1,1,0
        c0.1,0,0.3,0.1,0.3,0.2c0,0.1-0.1,0.3-0.2,0.3C13.6,26.8,13.5,26.8,13.4,26.8z"/>
    <path class="st0" d="M16.7,32.1c-1.2,0-2.1-0.1-2.7-0.4c-0.5-0.2-2.1-1.6-2.1-2.2c0-0.1,0.1-0.3,0.3-0.3s0.3,0.1,0.3,0.3
        c0,0.3,1.3,1.5,1.8,1.7c0.5,0.3,1.3,0.4,2.5,0.4c0.1,0,0.3,0.1,0.3,0.3S16.8,32.1,16.7,32.1z"/>
    <path class="st0" d="M15.3,34.5c-0.1,0-0.1,0-0.2-0.1c-0.2-0.2-0.4-0.4-0.5-0.6c-0.3-0.4-0.7-0.8-1.1-0.8c-0.1,0-0.2-0.1-0.2-0.3
        c0-0.1,0.1-0.2,0.3-0.2c0.6,0,1,0.5,1.4,1c0.2,0.2,0.3,0.4,0.5,0.5c0.1,0.1,0.1,0.3,0,0.4C15.5,34.5,15.4,34.5,15.3,34.5z"/>
    <path class="st0" d="M11,31.2c-0.1,0-0.3-0.1-0.3-0.3c0-0.1,0.1-0.3,0.3-0.3c0.7,0,1.5-0.4,1.6-0.5c0.1-0.1,0.3-0.1,0.4,0
        s0.1,0.3,0,0.4C12.7,30.8,11.7,31.2,11,31.2z"/>
    <path class="st0" d="M13.4,35.5L13.4,35.5c-0.4,0-0.8-0.1-1.1-0.3c-0.9-0.4-1.5-1.4-1.5-2.3v-7.1c0-0.6,0.3-1.2,0.9-1.6
        c0.5-0.3,1.2-0.4,1.8-0.2c2.4,0.9,3.9,3.2,3.9,5.9c0,2.1-0.8,3.9-2.3,5C14.5,35.3,13.9,35.5,13.4,35.5z M12.7,24.3
        c-0.3,0-0.6,0.1-0.8,0.3c-0.4,0.3-0.6,0.7-0.6,1.1v7.1c0,0.8,0.5,1.5,1.2,1.9c0.7,0.3,1.6,0.3,2.2-0.2c1.4-1,2.1-2.7,2.1-4.6
        c0-2.6-1.4-4.7-3.5-5.5C13.1,24.4,12.9,24.3,12.7,24.3z"/>
    <path class="st0" d="M11.9,34.9c-0.1,0-0.1,0-0.2-0.1c-0.1-0.1-0.1-0.3,0-0.4c0.3-0.3,0.7-0.7,0.7-1.1c0-0.1,0.1-0.3,0.3-0.3
        s0.3,0.1,0.3,0.3c0,0.6-0.4,1.1-0.8,1.5C12,34.8,11.9,34.9,11.9,34.9z"/>
    <path class="st0" d="M12.2,28.2C12.2,28.2,12.2,28.2,12.2,28.2c-0.3,0-0.9-0.1-1.4-0.8c-0.1-0.1-0.1-0.3,0.1-0.4
        c0.1-0.1,0.3-0.1,0.4,0.1c0.4,0.6,0.9,0.6,1,0.6c0.1,0,0.2,0.1,0.2,0.3C12.4,28.1,12.3,28.2,12.2,28.2z"/>
    <path class="st0" d="M23.7,4.8C23.7,4.8,23.7,4.8,23.7,4.8c-0.1,0-0.3-0.1-0.3-0.3c0-0.6-0.1-1.7-0.9-2.2c-0.1-0.1-0.2-0.2-0.1-0.3
        c0.1-0.1,0.2-0.2,0.3-0.1C23.6,2.4,24,3.4,24,4.6C24,4.7,23.9,4.8,23.7,4.8z"/>
    <path class="st0" d="M22.9,6.8c-0.3,0-0.5,0-0.7-0.1c-0.2-0.1-0.2-0.5-0.2-1.1c0-0.3,0-0.7,0-0.8c-0.1,0-0.4,0-0.5,0
        c-0.2,0-0.5,0.1-0.7,0c-0.1,0-0.2-0.1-0.2-0.3c0-0.1,0.1-0.3,0.3-0.2c0.2,0,0.4,0,0.6,0c0.4,0,0.7-0.1,0.9,0.1
        c0.2,0.2,0.2,0.6,0.2,1.2c0,0.2,0,0.5,0,0.7c0.3,0.1,0.9,0,1.2,0c0.1,0,0.3,0.1,0.3,0.2c0,0.1-0.1,0.3-0.2,0.3
        C23.7,6.8,23.3,6.8,22.9,6.8z"/>
    <path class="st0" d="M23.9,4c-0.1,0-0.2,0-0.3,0c-0.1,0-0.2-0.1-0.2-0.3c0-0.1,0.1-0.2,0.3-0.2c0.4,0,1,0,1,0
        c0.1,0,0.3,0.1,0.3,0.2c0,0.1-0.1,0.3-0.2,0.3C24.7,3.9,24.3,4,23.9,4z"/>
    <path class="st0" d="M20.6,9.2c-0.1,0-0.3-0.1-0.3-0.3s0.1-0.3,0.3-0.3c1.2,0,2-0.1,2.6-0.4c0.5-0.3,1.8-1.5,1.8-1.7
        c0-0.1,0.1-0.3,0.3-0.3s0.3,0.1,0.3,0.3c0,0.6-1.6,1.9-2.1,2.2C22.8,9.1,21.8,9.2,20.6,9.2z"/>
    <path class="st0" d="M21.9,11.6c-0.1,0-0.1,0-0.2-0.1c-0.1-0.1-0.1-0.3,0-0.4c0.2-0.1,0.3-0.3,0.5-0.5c0.4-0.5,0.9-1,1.5-1
        c0.1,0,0.3,0.1,0.3,0.2c0,0.1-0.1,0.3-0.2,0.3c-0.4,0-0.8,0.5-1.1,0.9c-0.2,0.2-0.3,0.4-0.5,0.5C22.1,11.6,22,11.6,21.9,11.6z"/>
    <path class="st0" d="M25.9,8.3c-0.6,0-1.1-0.2-1.5-0.7c-0.1-0.1-0.1-0.3,0-0.4c0.1-0.1,0.3-0.1,0.4,0c0.3,0.3,0.7,0.5,1.2,0.5
        c0.1,0,0.3,0.1,0.3,0.3C26.2,8.2,26,8.3,25.9,8.3z"/>
    <path class="st0" d="M23.9,12.6c-0.6,0-1.1-0.2-1.6-0.5c-1.5-1.1-2.3-2.9-2.3-5c0-2.8,1.5-5.1,3.9-5.9c0.6-0.2,1.2-0.1,1.7,0.2
        c0.5,0.3,0.7,0.9,0.7,1.6V10c0,1-0.5,1.9-1.4,2.3C24.6,12.5,24.3,12.6,23.9,12.6z M24.6,1.5c-0.2,0-0.3,0-0.5,0.1
        c-2.2,0.8-3.5,2.9-3.5,5.5c0,2,0.7,3.6,2.1,4.6c0.6,0.5,1.4,0.6,2.1,0.2c0.7-0.3,1.1-1,1.1-1.9V2.9c0-0.3-0.1-0.8-0.5-1.1
        C25.1,1.6,24.8,1.5,24.6,1.5z"/>
    <path class="st0" d="M25.3,11.9c-0.1,0-0.1,0-0.2-0.1c-0.3-0.3-0.7-0.7-0.7-1.4c0-0.1,0.1-0.3,0.3-0.3s0.3,0.1,0.3,0.3
        c0,0.4,0.2,0.7,0.6,1c0.1,0.1,0.1,0.3,0,0.4C25.5,11.8,25.4,11.9,25.3,11.9z"/>
    <path class="st0" d="M25.1,5.3c-0.1,0-0.2-0.1-0.3-0.2c0-0.1,0.1-0.3,0.2-0.3c0.2,0,0.2,0,0.6-0.5c0.1-0.1,0.2-0.1,0.4-0.1
        c0.1,0.1,0.1,0.2,0.1,0.4C25.7,5.1,25.6,5.3,25.1,5.3C25.1,5.3,25.1,5.3,25.1,5.3z"/>
    <path class="st0" d="M29.8,4.8c-0.1,0-0.2-0.1-0.3-0.2c0-1.2,0.4-2.2,1.2-2.6C30.8,1.9,31,1.9,31,2s0,0.3-0.1,0.3
        C30.1,2.9,30,4,30,4.6C30,4.7,29.9,4.8,29.8,4.8C29.8,4.8,29.8,4.8,29.8,4.8z"/>
    <path class="st0" d="M30.6,6.8c-0.4,0-0.8-0.1-0.9-0.1c-0.1,0-0.2-0.2-0.2-0.3c0-0.1,0.2-0.2,0.3-0.2c0.4,0.1,1,0.1,1.2,0
        c0-0.1,0-0.4,0-0.7c0-0.7-0.1-1.1,0.2-1.2c0.2-0.2,0.5-0.2,0.9-0.1c0.2,0,0.4,0,0.5,0c0.1,0,0.3,0.1,0.3,0.2c0,0.1-0.1,0.3-0.2,0.3
        c-0.2,0-0.4,0-0.6,0c-0.2,0-0.4,0-0.5,0c0,0.1,0,0.6,0,0.8c0,0.6,0.1,1-0.2,1.1C31.1,6.8,30.9,6.8,30.6,6.8z"/>
    <path class="st0" d="M29.6,4c-0.4,0-0.8-0.1-0.8-0.1c-0.1,0-0.2-0.1-0.2-0.3c0-0.1,0.1-0.2,0.3-0.2c0,0,0.6,0.1,1,0
        c0.1,0,0.3,0.1,0.3,0.2c0,0.1-0.1,0.3-0.2,0.3C29.8,4,29.7,4,29.6,4z"/>
    <path class="st0" d="M32.9,9.2c-1.2,0-2.1-0.1-2.7-0.4c-0.5-0.2-2.1-1.6-2.1-2.2c0-0.1,0.1-0.3,0.3-0.3s0.3,0.1,0.3,0.3
        c0,0.3,1.3,1.5,1.8,1.7c0.5,0.3,1.3,0.4,2.5,0.4c0.1,0,0.3,0.1,0.3,0.3S33,9.2,32.9,9.2z"/>
    <path class="st0" d="M31.5,11.6c-0.1,0-0.1,0-0.2-0.1c-0.2-0.2-0.4-0.4-0.5-0.6c-0.3-0.4-0.7-0.8-1.1-0.8c-0.1,0-0.2-0.1-0.2-0.3
        c0-0.1,0.1-0.2,0.3-0.2c0.6,0,1,0.5,1.4,1c0.2,0.2,0.3,0.4,0.5,0.5c0.1,0.1,0.1,0.3,0,0.4C31.7,11.6,31.6,11.6,31.5,11.6z"/>
    <path class="st0" d="M27.1,8.3c-0.1,0-0.3-0.1-0.3-0.3c0-0.1,0.1-0.3,0.3-0.3c0.7,0,1.5-0.4,1.6-0.5c0.1-0.1,0.3-0.1,0.4,0
        c0.1,0.1,0.1,0.3,0,0.4C28.9,7.9,27.9,8.3,27.1,8.3z"/>
    <path class="st0" d="M29.5,12.6L29.5,12.6c-0.4,0-0.8-0.1-1.1-0.3c-0.9-0.4-1.5-1.4-1.5-2.3V2.9c0-0.6,0.3-1.2,0.9-1.6
        C28.2,1,29,0.9,29.6,1.1C31.9,2,33.4,4.2,33.4,7c0,2.1-0.8,3.9-2.3,5C30.7,12.4,30.1,12.6,29.5,12.6z M28.9,1.5
        c-0.3,0-0.6,0.1-0.8,0.3c-0.4,0.3-0.6,0.7-0.6,1.1V10c0,0.8,0.5,1.5,1.2,1.9c0.7,0.3,1.6,0.3,2.2-0.2c1.4-1,2.1-2.7,2.1-4.6
        c0-2.6-1.4-4.7-3.5-5.5C29.2,1.5,29.1,1.5,28.9,1.5z"/>
    <path class="st0" d="M28.1,12c-0.1,0-0.1,0-0.2-0.1c-0.1-0.1-0.1-0.3,0-0.4c0.3-0.3,0.7-0.7,0.7-1.1c0-0.1,0.1-0.3,0.3-0.3
        c0.1,0,0.3,0.1,0.3,0.3c0,0.6-0.4,1.1-0.8,1.5C28.2,12,28.1,12,28.1,12z"/>
    <path class="st0" d="M28.4,5.3C28.4,5.3,28.4,5.3,28.4,5.3c-0.3,0-0.9-0.1-1.4-0.8c-0.1-0.1-0.1-0.3,0.1-0.4
        c0.1-0.1,0.3-0.1,0.4,0.1c0.4,0.6,0.9,0.6,1,0.6c0.1,0,0.2,0.1,0.2,0.3C28.6,5.2,28.5,5.3,28.4,5.3z"/>
</g>
<g id="Layer_2">
    <path class="st1" d="M31.9,24.1v-3.4c0,0,0.2-1.6-1.6-1.8c-1.8-0.2-4,3.1-4.1,5.2s0.5,4.2,1.8,5.2c1.3,1,2.4,1,3.2,0.3
        s0.7-1.8,0.7-1.8L31.9,24.1z"/>
    <path class="st1" d="M28.5,19.7c0,0,1.2,0.9,1.1,2.7"/>
    <path class="st1" d="M29.6,21.5c0,0,0.5,0.2,1,0"/>
    <path class="st1" d="M26.7,22.4h0.9c0,0,0.6,0.1,0.6,0.7c0,0.6-0.4,1.2,0.6,1.4h0.7"/>
    <path class="st1" d="M31.9,22.3c0,0-0.6,0.6-1,0.6"/>
    <path class="st1" d="M26.5,26.9c0,0,1.9,0,2.2-0.3c0.3-0.3,1.9-1.3,2-1.6"/>
    <path class="st1" d="M31.8,26.4c0,0-1.3-0.4-1.5-0.9"/>
    <path class="st1" d="M27.8,29.2c0,0,1.3-1.6,1.7-1.5"/>
    <path class="st1" d="M31.2,29.7c0,0-0.6-0.7-0.6-1.1"/>
    <g>
        <g>
            <path class="st0" d="M43.4,9.8c-0.7,0-1.5-0.3-2.2-0.9c-1.6-1.2-2.1-3.7-2-5.7c0.1-1.5,1.3-3.7,2.6-4.8c0.7-0.6,1.4-0.9,2.1-0.8
                c0.7,0.1,1.3,0.3,1.6,0.8C46-1,45.9-0.2,45.9-0.1l0,7c0,0,0.1,1.4-0.9,2.2C44.5,9.6,44,9.8,43.4,9.8z M43.6-1.4
                c-0.4,0-0.8,0.2-1.2,0.6c-1.1,0.9-2.2,2.8-2.2,4.1c-0.1,2,0.5,4,1.6,4.8c0.7,0.5,1.7,1,2.6,0.3C44.9,7.9,44.9,7,44.9,7l0-3.7
                c0,0,0,0,0,0v-3.4c0-0.1,0-0.5-0.2-0.9C44.5-1.2,44.2-1.4,43.6-1.4C43.7-1.4,43.7-1.4,43.6-1.4z M45.9,3.2L45.9,3.2L45.9,3.2z"/>
        </g>
        <g>
            <path class="st0" d="M43.1,1.8C43.1,1.8,43.1,1.8,43.1,1.8c-0.2,0-0.3-0.1-0.2-0.3c0.1-1.7-1-2.5-1-2.5c-0.1-0.1-0.1-0.2,0-0.4
                c0.1-0.1,0.2-0.1,0.4,0c0.1,0,1.3,1,1.2,2.9C43.3,1.7,43.2,1.8,43.1,1.8z"/>
        </g>
        <g>
            <path class="st0" d="M43.5,0.9c-0.3,0-0.6-0.1-0.6-0.1c-0.1,0-0.2-0.2-0.1-0.3c0-0.1,0.2-0.2,0.3-0.1c0,0,0.4,0.1,0.9,0
                c0.1,0,0.3,0,0.3,0.2c0,0.1,0,0.3-0.2,0.3C43.9,0.9,43.7,0.9,43.5,0.9z"/>
        </g>
        <g>
            <path class="st0" d="M42.9,3.8h-0.7c-1.1-0.2-0.9-0.9-0.9-1.3c0-0.1,0-0.2,0-0.3c0-0.3-0.3-0.4-0.4-0.4l-0.8,0
                c-0.1,0-0.2-0.1-0.2-0.2s0.1-0.2,0.2-0.2H41c0.3,0.1,0.9,0.3,0.8,0.9c0,0.1,0,0.2,0,0.3c-0.1,0.5-0.1,0.7,0.4,0.8l0.7,0
                c0.1,0,0.2,0.1,0.2,0.2S43,3.8,42.9,3.8z"/>
        </g>
        <g>
            <path class="st0" d="M44.3,2.3c-0.1,0-0.2-0.1-0.2-0.2c0-0.1,0.1-0.3,0.2-0.3c0.3,0,0.7-0.4,0.9-0.6c0.1-0.1,0.3-0.1,0.4,0
                c0.1,0.1,0.1,0.3,0,0.4C45.5,1.7,44.9,2.2,44.3,2.3C44.4,2.3,44.4,2.3,44.3,2.3z"/>
        </g>
        <g>
            <path class="st0" d="M40,6.2c-0.2,0-0.3-0.1-0.3-0.3c0-0.1,0.1-0.2,0.2-0.2c0,0,0,0,0.1,0c0.8,0,1.8-0.1,2-0.2
                c0.1-0.1,0.4-0.3,0.7-0.5c0.4-0.3,1.2-0.8,1.3-1c0-0.1,0.2-0.2,0.3-0.2c0.1,0,0.2,0.2,0.2,0.3c-0.1,0.2-0.4,0.5-1.5,1.2
                c-0.3,0.2-0.5,0.4-0.6,0.5C41.9,6.2,40.6,6.2,40,6.2z"/>
        </g>
        <g>
            <path class="st0" d="M45.3,5.7C45.3,5.7,45.2,5.7,45.3,5.7c-0.3-0.1-1.5-0.5-1.8-1c-0.1-0.1,0-0.3,0.1-0.3c0.1-0.1,0.3,0,0.3,0.1
                c0.1,0.2,0.8,0.6,1.4,0.8c0.1,0,0.2,0.2,0.2,0.3C45.5,5.7,45.4,5.7,45.3,5.7z"/>
        </g>
        <g>
            <path class="st0" d="M41.3,8.6c-0.1,0-0.1,0-0.2-0.1c-0.1-0.1-0.1-0.2,0-0.4c1-1.2,1.6-1.7,2-1.6c0.1,0,0.2,0.2,0.1,0.3
                c0,0.1-0.2,0.2-0.3,0.1c-0.2,0-0.9,0.7-1.5,1.4C41.4,8.6,41.3,8.6,41.3,8.6z"/>
        </g>
        <g>
            <path class="st0" d="M44.7,9c-0.1,0-0.1,0-0.2-0.1c-0.1-0.1-0.6-0.8-0.7-1.2c0-0.1,0.1-0.3,0.2-0.3c0.1,0,0.3,0.1,0.3,0.2
                c0,0.2,0.3,0.7,0.6,1c0.1,0.1,0.1,0.3,0,0.4C44.8,9,44.7,9,44.7,9z"/>
        </g>
    </g>
    <g>
        <g>
            <path class="st0" d="M48.9,9.8c-0.6,0-1.1-0.2-1.6-0.6c-1-0.8-0.9-2.2-0.9-2.3l0-7c0,0-0.1-0.8,0.4-1.5c0.4-0.5,0.9-0.7,1.6-0.8
                c0.7-0.1,1.4,0.2,2.1,0.8c1.3,1.1,2.5,3.3,2.6,4.8c0.1,2-0.4,4.5-2,5.7C50.4,9.5,49.6,9.8,48.9,9.8z M48.7-1.4
                C48.6-1.4,48.6-1.4,48.7-1.4c-0.5,0-0.8,0.2-1,0.4c-0.3,0.3-0.2,0.8-0.2,0.8l0,3.4c0,0,0,0,0,0l0,3.7c0,0,0,1,0.6,1.5
                c0.9,0.7,1.9,0.2,2.6-0.3c1.1-0.8,1.7-2.8,1.6-4.8C52.1,2,51,0.1,49.9-0.8C49.4-1.2,49-1.4,48.7-1.4z M46.9,3.2L46.9,3.2
                L46.9,3.2z"/>
        </g>
        <g>
            <path class="st0" d="M49.2,1.8c-0.1,0-0.2-0.1-0.2-0.2c-0.1-1.9,1.1-2.9,1.2-2.9c0.1-0.1,0.3-0.1,0.3,0c0.1,0.1,0.1,0.3,0,0.4
                c0,0-1.1,0.9-1,2.5C49.5,1.7,49.4,1.8,49.2,1.8C49.2,1.8,49.2,1.8,49.2,1.8z"/>
        </g>
        <g>
            <path class="st0" d="M48.8,0.9c-0.2,0-0.4,0-0.6-0.1c-0.1,0-0.2-0.2-0.2-0.3c0-0.1,0.2-0.2,0.3-0.2c0.5,0.1,0.9,0,0.9,0
                c0.1,0,0.3,0,0.3,0.1c0,0.1,0,0.3-0.1,0.3C49.4,0.8,49.1,0.9,48.8,0.9z"/>
        </g>
        <g>
            <path class="st0" d="M49.4,3.8c-0.1,0-0.2-0.1-0.2-0.2s0.1-0.2,0.2-0.2h0.7c0.5-0.1,0.5-0.3,0.4-0.8c0-0.1,0-0.2,0-0.3
                c0-0.6,0.5-0.9,0.8-0.9l0.9,0c0.1,0,0.2,0.1,0.2,0.2s-0.1,0.2-0.2,0.2h-0.9c0,0-0.3,0.1-0.3,0.4c0,0.1,0,0.2,0,0.3
                c0.1,0.4,0.2,1.2-0.8,1.3L49.4,3.8z"/>
        </g>
        <g>
            <path class="st0" d="M47.9,2.3C47.9,2.3,47.9,2.3,47.9,2.3c-0.6-0.1-1.2-0.6-1.2-0.7c-0.1-0.1-0.1-0.3,0-0.4
                c0.1-0.1,0.3-0.1,0.4,0c0.2,0.2,0.6,0.5,0.9,0.6c0.1,0,0.2,0.2,0.2,0.3C48.2,2.2,48.1,2.3,47.9,2.3z"/>
        </g>
        <g>
            <path class="st0" d="M52.3,6.2c-0.6,0-1.9,0-2.3-0.3c-0.1-0.1-0.4-0.3-0.6-0.5c-1-0.7-1.4-1-1.5-1.2c0-0.1,0-0.3,0.2-0.3
                c0.1,0,0.3,0,0.3,0.2c0.1,0.1,0.8,0.7,1.3,1c0.3,0.2,0.6,0.4,0.7,0.5c0.2,0.1,1.2,0.2,2,0.2c0,0,0,0,0,0c0.1,0,0.2,0.1,0.2,0.2
                C52.6,6.1,52.5,6.2,52.3,6.2z"/>
        </g>
        <g>
            <path class="st0" d="M47,5.7c-0.1,0-0.2-0.1-0.2-0.2c0-0.1,0-0.3,0.2-0.3c0.6-0.2,1.3-0.5,1.4-0.8c0.1-0.1,0.2-0.2,0.3-0.1
                c0.1,0.1,0.2,0.2,0.1,0.3C48.5,5.2,47.3,5.6,47,5.7C47,5.7,47,5.7,47,5.7z"/>
        </g>
        <g>
            <path class="st0" d="M51,8.6c-0.1,0-0.1,0-0.2-0.1c-0.6-0.7-1.3-1.4-1.5-1.4c-0.1,0.1-0.3,0-0.3-0.1c0-0.1,0-0.3,0.2-0.3
                c0.4-0.1,1,0.4,2,1.6c0.1,0.1,0.1,0.3,0,0.4C51.1,8.6,51.1,8.6,51,8.6z"/>
        </g>
        <g>
            <path class="st0" d="M47.6,9c-0.1,0-0.1,0-0.2-0.1c-0.1-0.1-0.1-0.2,0-0.4c0.2-0.2,0.5-0.7,0.6-1c0-0.1,0.1-0.2,0.3-0.2
                c0.1,0,0.2,0.1,0.2,0.3c0,0.5-0.6,1.2-0.7,1.2C47.8,9,47.7,9,47.6,9z"/>
        </g>
    </g>
    <g>
        <g>
            <path class="st0" d="M5.2,12.4c-0.7,0-1.4-0.3-2.1-0.8c-1.5-1.1-2-3.5-1.8-5.3c0.1-1.4,1.2-3.4,2.4-4.5C4.4,1.3,5,1,5.7,1.1
                c0.7,0.1,1.2,0.3,1.5,0.7c0.5,0.6,0.4,1.3,0.4,1.4l0,6.5c0,0,0.1,1.3-0.8,2.1C6.3,12.2,5.8,12.4,5.2,12.4z M5.5,2
                C5.1,2,4.7,2.2,4.3,2.5c-1,0.9-2,2.6-2.1,3.8C2.1,8.2,2.7,10,3.7,10.8c0.7,0.5,1.6,1,2.4,0.3c0.6-0.5,0.5-1.3,0.5-1.3l0-3.5
                c0,0,0,0,0,0V3.2c0-0.1,0-0.5-0.2-0.8C6.3,2.2,6,2,5.5,2C5.5,2,5.5,2,5.5,2z M7.6,6.3L7.6,6.3L7.6,6.3z"/>
        </g>
        <g>
            <path class="st0" d="M5,5.2C5,5.2,4.9,5.2,5,5.2C4.7,5.2,4.5,5,4.5,4.7c0.1-1.4-0.8-2.1-0.8-2.1C3.5,2.4,3.4,2.2,3.6,2
                C3.7,1.7,4,1.7,4.2,1.9c0.1,0,1.3,1,1.2,2.9C5.4,5,5.2,5.2,5,5.2z"/>
        </g>
        <g>
            <path class="st0" d="M5.4,4.4C5,4.4,4.8,4.3,4.7,4.3C4.5,4.2,4.4,3.9,4.5,3.7c0.1-0.2,0.4-0.4,0.6-0.3c0,0,0.3,0.1,0.7,0
                C6,3.3,6.2,3.5,6.3,3.7C6.4,4,6.2,4.2,6,4.3C5.8,4.4,5.6,4.4,5.4,4.4z"/>
        </g>
        <g>
            <path class="st0" d="M4.8,7H4.1C2.9,6.8,3,5.9,3.1,5.5c0-0.1,0-0.2,0-0.3C3.1,5.2,3,5.2,3,5.1H2.2C2,5.1,1.8,4.9,1.8,4.7
                S2,4.2,2.2,4.2H3c0.6,0.1,1,0.5,1,1.1c0,0.1,0,0.2,0,0.3C4,5.8,3.9,6,4,6l0,0c0,0,0.1,0,0.2,0.1l0.6,0c0.3,0,0.5,0.2,0.5,0.5
                S5.1,7,4.8,7z"/>
        </g>
        <g>
            <path class="st0" d="M6.1,5.7c-0.2,0-0.4-0.2-0.5-0.4c0-0.3,0.1-0.5,0.4-0.5c0.2,0,0.5-0.3,0.7-0.5c0.2-0.2,0.5-0.2,0.7,0
                c0.2,0.2,0.2,0.5,0,0.7C7.3,5.1,6.8,5.6,6.1,5.7C6.2,5.7,6.2,5.7,6.1,5.7z"/>
        </g>
        <g>
            <path class="st0" d="M2.1,9.3C2.1,9.3,2.1,9.3,2.1,9.3c-0.3,0-0.5-0.2-0.5-0.5c0-0.3,0.2-0.5,0.5-0.5c0,0,0,0,0,0
                c0.7,0,1.5-0.1,1.7-0.2C3.8,8.2,4.1,8,4.4,7.8c0.3-0.2,1-0.7,1.1-0.8C5.6,6.7,5.8,6.6,6,6.7C6.3,6.7,6.4,7,6.4,7.2
                C6.3,7.5,6,7.8,4.9,8.5C4.7,8.7,4.5,8.9,4.4,8.9C4.1,9.2,3.3,9.3,2.1,9.3z"/>
        </g>
        <g>
            <path class="st0" d="M7,8.9c0,0-0.1,0-0.1,0C6.4,8.7,5.4,8.3,5.2,7.7c-0.1-0.2,0-0.5,0.2-0.6C5.6,7,5.9,7.1,6,7.4
                c0.1,0.1,0.6,0.4,1.2,0.6C7.4,8,7.5,8.3,7.5,8.5C7.4,8.7,7.2,8.9,7,8.9z"/>
        </g>
        <g>
            <path class="st0" d="M3.3,11.5c-0.1,0-0.2,0-0.3-0.1c-0.2-0.2-0.2-0.5-0.1-0.7C4.4,9,4.9,9.2,5.1,9.2c0.2,0.1,0.4,0.4,0.3,0.6
                c-0.1,0.2-0.3,0.3-0.5,0.3c-0.2,0.1-0.8,0.7-1.2,1.2C3.6,11.5,3.4,11.5,3.3,11.5z"/>
        </g>
        <g>
            <path class="st0" d="M6.4,11.9c-0.1,0-0.3-0.1-0.4-0.2c-0.1-0.2-0.6-0.8-0.7-1.3c0-0.3,0.2-0.5,0.4-0.5c0.3,0,0.5,0.2,0.5,0.4
                c0,0.1,0.3,0.5,0.5,0.8c0.2,0.2,0.1,0.5-0.1,0.7C6.6,11.9,6.5,11.9,6.4,11.9z"/>
        </g>
    </g>
    <g>
        <g>
            <path class="st0" d="M8.9,11.8C8,11,8.1,9.8,8.1,9.7l0-6.5c0-0.1-0.1-0.8,0.4-1.4C8.8,1.4,9.3,1.1,10,1.1
                c0.6-0.1,1.3,0.2,1.9,0.7c1.2,1,2.3,3,2.4,4.5c0.1,1.8-0.4,4.1-1.8,5.3c-0.7,0.6-1.4,0.8-2.1,0.8C9.9,12.4,9.4,12.2,8.9,11.8z
                 M10.1,2C9.7,2,9.4,2.2,9.2,2.4C9,2.7,9,3.1,9,3.2v3.1c0,0,0,0,0,0l0,3.5c0,0,0,0.9,0.5,1.3c0.8,0.7,1.7,0.2,2.4-0.3
                c1-0.8,1.6-2.6,1.5-4.5c-0.1-1.2-1-2.9-2.1-3.8C10.9,2.2,10.5,2,10.1,2C10.1,2,10.1,2,10.1,2z M8.1,6.3L8.1,6.3L8.1,6.3z"/>
        </g>
        <g>
            <path class="st0" d="M10.7,5.2C10.7,5.2,10.7,5.2,10.7,5.2c0.3,0,0.5-0.2,0.5-0.5C11.1,3.3,12,2.6,12,2.6
                c0.2-0.2,0.2-0.4,0.1-0.7c-0.2-0.2-0.4-0.2-0.7-0.1c-0.1,0-1.3,1-1.2,2.9C10.2,5,10.4,5.2,10.7,5.2z"/>
        </g>
        <g>
            <path class="st0" d="M10.3,4.4c0.4,0,0.6-0.1,0.6-0.1c0.2-0.1,0.4-0.4,0.3-0.6c-0.1-0.2-0.4-0.4-0.6-0.3c0,0-0.3,0.1-0.7,0
                C9.7,3.3,9.4,3.5,9.4,3.7C9.3,4,9.4,4.2,9.7,4.3C9.9,4.4,10.1,4.4,10.3,4.4z"/>
        </g>
        <g>
            <path class="st0" d="M10.9,7h0.7c1.2-0.2,1.1-1.1,1-1.5c0-0.1,0-0.2,0-0.3c0-0.1,0.1-0.1,0.1-0.1h0.8c0.3,0,0.5-0.2,0.5-0.5
                s-0.2-0.5-0.5-0.5h-0.8c-0.6,0.1-1,0.5-1,1.1c0,0.1,0,0.2,0,0.3c0,0.1,0,0.3,0,0.4l0,0c0,0-0.1,0-0.2,0.1l-0.6,0
                c-0.3,0-0.5,0.2-0.5,0.5S10.6,7,10.9,7z"/>
        </g>
        <g>
            <path class="st0" d="M9.5,5.7c0.2,0,0.4-0.2,0.5-0.4C10,5,9.8,4.8,9.6,4.8c-0.2,0-0.5-0.3-0.7-0.5c-0.2-0.2-0.5-0.2-0.7,0
                C8,4.5,8,4.8,8.2,4.9C8.3,5.1,8.9,5.6,9.5,5.7C9.5,5.7,9.5,5.7,9.5,5.7z"/>
        </g>
        <g>
            <path class="st0" d="M13.5,9.3C13.6,9.3,13.6,9.3,13.5,9.3c0.3,0,0.5-0.2,0.5-0.5c0-0.3-0.2-0.5-0.5-0.5c0,0,0,0,0,0
                c-0.7,0-1.5-0.1-1.7-0.2c-0.1-0.1-0.3-0.2-0.6-0.4c-0.3-0.2-1-0.7-1.1-0.8c-0.1-0.2-0.3-0.3-0.5-0.3C9.4,6.7,9.2,7,9.3,7.2
                c0.1,0.3,0.4,0.6,1.4,1.3c0.3,0.2,0.5,0.3,0.6,0.4C11.6,9.2,12.3,9.3,13.5,9.3z"/>
        </g>
        <g>
            <path class="st0" d="M8.6,8.9c0,0,0.1,0,0.1,0c0.4-0.1,1.5-0.5,1.7-1.1c0.1-0.2,0-0.5-0.2-0.6C10,7,9.7,7.1,9.6,7.4
                C9.6,7.5,9,7.8,8.5,7.9C8.2,8,8.1,8.3,8.2,8.5C8.2,8.7,8.4,8.9,8.6,8.9z"/>
        </g>
        <g>
            <path class="st0" d="M12.4,11.5c0.1,0,0.2,0,0.3-0.1c0.2-0.2,0.2-0.5,0.1-0.7c-1.5-1.8-1.9-1.6-2.1-1.5c-0.2,0.1-0.4,0.4-0.3,0.6
                c0.1,0.2,0.3,0.3,0.5,0.3c0.2,0.1,0.8,0.7,1.2,1.2C12.1,11.5,12.2,11.5,12.4,11.5z"/>
        </g>
        <g>
            <path class="st0" d="M9.2,11.9c0.1,0,0.3-0.1,0.4-0.2c0.1-0.2,0.6-0.8,0.7-1.3c0-0.3-0.2-0.5-0.4-0.5c-0.3,0-0.5,0.2-0.5,0.4
                c0,0.1-0.3,0.5-0.5,0.8c-0.2,0.2-0.1,0.5,0.1,0.7C9,11.9,9.1,11.9,9.2,11.9z"/>
        </g>
    </g>
</g>
</svg>
