<?xml version="1.0" encoding="utf-8"?>
<!-- Generator: Adobe Illustrator 19.2.1, SVG Export Plug-In . SVG Version: 6.00 Build 0)  -->
<svg version="1.1" id="Layer_1" xmlns="http://www.w3.org/2000/svg" xmlns:xlink="http://www.w3.org/1999/xlink" x="0px" y="0px"
     viewBox="0 0 44.4 37.2" style="enable-background:new 0 0 44.4 37.2;" xml:space="preserve">
<style type="text/css">
    .st0{fill:#A6AFBC;}
</style>
<g>
    <path class="st0" d="M15.2,33.9c-1.9,0-3.8-0.8-5.7-2.2c-4.1-3-5.5-9.6-4.9-14.5c0.3-3.8,3.3-9.3,6.6-12.3C13,3.5,14.7,2.7,16.6,3
        s3.3,0.8,4.1,1.9c1.4,1.6,1.1,3.6,1.1,3.8v17.8c0,0,0.3,3.6-2.2,5.7C18.2,33.3,16.8,33.9,15.2,33.9z M16,5.5
        c-1.1,0-2.2,0.5-3.3,1.4C10,9.3,7.3,13.9,7,17.2c-0.3,5.2,1.4,10.1,4.1,12.3c1.9,1.4,4.4,2.7,6.6,0.8c1.6-1.4,1.4-3.6,1.4-3.6v-9.6
        l0,0V8.7c0-0.3,0-1.4-0.5-2.2C18.2,6,17.4,5.5,16,5.5L16,5.5z M21.8,17.2L21.8,17.2L21.8,17.2z"/>
</g>
<g>
    <path class="st0" d="M14.7,14.2C14.7,14.2,14.4,14.2,14.7,14.2c-0.8,0-1.4-0.5-1.4-1.4c0.3-3.8-2.2-5.7-2.2-5.7
        c-0.5-0.5-0.8-1.1-0.3-1.6c0.3-0.8,1.1-0.8,1.6-0.3c0.3,0,3.6,2.7,3.3,7.9C15.8,13.7,15.2,14.2,14.7,14.2z"/>
</g>
<g>
    <path class="st0" d="M15.8,12c-1.1,0-1.6-0.3-1.9-0.3c-0.5-0.3-0.8-1.1-0.5-1.6s1.1-1.1,1.6-0.8c0,0,0.8,0.3,1.9,0
        c0.5-0.3,1.1,0.3,1.4,0.8c0.3,0.8-0.3,1.4-0.8,1.6C16.8,12,16.3,12,15.8,12z"/>
</g>
<g>
    <path class="st0" d="M14.1,19.1h-1.9c-3.3-0.5-3-3-2.7-4.1c0-0.3,0-0.5,0-0.8c0,0-0.3,0-0.3-0.3H7c-0.5,0-1.1-0.5-1.1-1.1
        s0.5-1.4,1.1-1.4h2.2c1.6,0.3,2.7,1.4,2.7,3c0,0.3,0,0.5,0,0.8c0,0.5-0.3,1.1,0,1.1l0,0c0,0,0.3,0,0.5,0.3h1.6
        c0.8,0,1.4,0.5,1.4,1.4S14.9,19.1,14.1,19.1z"/>
</g>
<g>
    <path class="st0" d="M17.7,15.6c-0.5,0-1.1-0.5-1.4-1.1c0-0.8,0.3-1.4,1.1-1.4c0.5,0,1.4-0.8,1.9-1.4s1.4-0.5,1.9,0s0.5,1.4,0,1.9
        C21,13.9,19.6,15.3,17.7,15.6C17.9,15.6,17.9,15.6,17.7,15.6z"/>
</g>
<g>
    <path class="st0" d="M6.7,25.4L6.7,25.4c-0.8,0-1.4-0.5-1.4-1.4s0.5-1.4,1.4-1.4l0,0c1.9,0,5.5-0.8,6.3-1.4c0.8-0.5,3.8-3.3,4.4-3
        c0.8,0,1.1,0.8,1.1,1.4c-0.3,0.8-1.1,1.6-4.1,3.6c-0.5,0.5-1.1,1.1-1.4,1.1C12.2,25.1,10,25.4,6.7,25.4z"/>
</g>
<g>
    <path class="st0" d="M20.1,24.3h-0.3c-1.4-0.5-4.1-1.6-4.6-3.3c-0.3-0.5,0-1.4,0.5-1.6c0.5-0.3,1.4,0,1.6,0.8
        c0.3,0.3,1.6,1.1,3.3,1.6c0.5,0,0.8,0.8,0.8,1.4C21.2,23.8,20.7,24.3,20.1,24.3z"/>
</g>
<g>
    <path class="st0" d="M10,31.4c-0.3,0-0.5,0-0.8-0.3c-0.5-0.5-0.5-1.4-0.3-1.9c4.1-4.6,5.5-4.1,6-4.1c0.5,0.3,1.1,1.1,0.8,1.6
        c-0.3,0.5-0.8,0.8-1.4,0.8c-0.5,0.3-2.2,1.9-3.3,3.3C10.8,31.4,10.3,31.4,10,31.4z"/>
</g>
<g>
    <path class="st0" d="M18.5,32.5c-0.3,0-0.8-0.3-1.1-0.5c-0.3-0.5-1.6-2.2-1.9-3.6c0-0.8,0.5-1.4,1.1-1.4c0.8,0,1.4,0.5,1.4,1.1
        c0,0.3,0.8,1.4,1.4,2.2c0.5,0.5,0.3,1.4-0.3,1.9C19,32.5,18.8,32.5,18.5,32.5z"/>
</g>
<g>
    <path class="st0" d="M25.3,32.3c-2.5-2.2-2.2-5.5-2.2-5.7V8.7c0-0.3-0.3-2.2,1.1-3.8C25.1,3.8,26.4,3,28.3,3
        c1.6-0.3,3.6,0.5,5.2,1.9c3.3,2.7,6.3,8.2,6.6,12.3c0.3,4.9-1.1,11.2-4.9,14.5c-1.9,1.6-3.8,2.2-5.7,2.2
        C28.1,33.9,26.7,33.3,25.3,32.3z M28.6,5.5c-1.1,0-1.9,0.5-2.5,1.1c-0.5,0.8-0.5,1.9-0.5,2.2v8.5l0,0v9.6c0,0,0,2.5,1.4,3.6
        c2.2,1.9,4.6,0.5,6.6-0.8c2.7-2.2,4.4-7.1,4.1-12.3c-0.3-3.3-2.7-7.9-5.7-10.4C30.8,6,29.7,5.5,28.6,5.5L28.6,5.5z M23.1,17.2
        L23.1,17.2L23.1,17.2z"/>
</g>
<g>
    <path class="st0" d="M30.2,14.2L30.2,14.2c0.8,0,1.3-0.5,1.3-1.3c-0.3-3.7,2.1-5.5,2.1-5.5c0.5-0.5,0.5-1.1,0.3-1.8
        C33.4,5,32.9,5,32.1,5.3c-0.3,0-3.4,2.6-3.2,7.6C28.9,13.7,29.4,14.2,30.2,14.2z"/>
</g>
<g>
    <path class="st0" d="M29.2,12c1.1,0,1.6-0.3,1.6-0.3c0.5-0.3,1.1-1.1,0.8-1.6C31.3,9.6,30.5,9,30,9.3c0,0-0.8,0.3-1.9,0
        c-0.5-0.3-1.4,0.3-1.4,0.8c-0.3,0.8,0,1.4,0.8,1.6C28.1,12,28.6,12,29.2,12z"/>
</g>
<g>
    <path class="st0" d="M30.7,19.1h1.7c3-0.5,2.7-3,2.5-4c0-0.3,0-0.5,0-0.8s0.2-0.3,0.2-0.3h2c0.7,0,1.2-0.5,1.2-1.3
        s-0.5-1.3-1.2-1.3h-2c-1.5,0.3-2.5,1.3-2.5,3c0,0.3,0,0.5,0,0.8s0,0.8,0,1.1l0,0c0,0-0.2,0-0.5,0.3h-1.5c-0.7,0-1.2,0.5-1.2,1.3
        C29.4,18.6,29.9,19.1,30.7,19.1z"/>
</g>
<g>
    <path class="st0" d="M27.2,15.6c0.5,0,0.9-0.5,1.2-1c0-0.7-0.5-1.2-0.9-1.2c-0.5,0-1.2-0.7-1.7-1.2c-0.5-0.5-1.2-0.5-1.7,0
        c-0.5,0.5-0.5,1.2,0,1.4C24.3,14.1,25.7,15.3,27.2,15.6L27.2,15.6z"/>
</g>
<g>
    <path class="st0" d="M37.1,25.4C37.4,25.4,37.4,25.4,37.1,25.4c0.8,0,1.3-0.5,1.3-1.4s-0.5-1.4-1.3-1.4l0,0c-1.8,0-3.8-0.3-4.3-0.5
        c-0.3-0.3-0.8-0.5-1.5-1.1c-0.8-0.5-2.6-1.9-2.8-2.2c-0.3-0.5-0.8-0.8-1.3-0.8c-0.5,0.3-1,1.1-0.8,1.6c0.3,0.8,1,1.6,3.6,3.6
        c0.8,0.5,1.3,0.8,1.5,1.1C32.3,25.1,34.1,25.4,37.1,25.4z"/>
</g>
<g>
    <path class="st0" d="M24.5,24.3h0.3c1.1-0.3,4.1-1.4,4.6-3c0.3-0.5,0-1.4-0.5-1.6c-0.5-0.5-1.4-0.3-1.6,0.5c0,0.3-1.6,1.1-3,1.4
        c-0.8,0.3-1.1,1.1-0.8,1.6C23.4,23.8,24,24.3,24.5,24.3z"/>
</g>
<g>
    <path class="st0" d="M34.9,31.4c0.3,0,0.5,0,0.8-0.3c0.5-0.5,0.5-1.4,0.3-1.9c-4.1-4.9-5.2-4.4-5.7-4.1c-0.5,0.3-1.1,1.1-0.8,1.6
        c0.3,0.5,0.8,0.8,1.4,0.8c0.5,0.3,2.2,1.9,3.3,3.3C34.1,31.4,34.4,31.4,34.9,31.4z"/>
</g>
<g>
    <path class="st0" d="M26.1,32.5c0.3,0,0.8-0.3,1.1-0.5c0.3-0.5,1.6-2.2,1.9-3.6c0-0.8-0.5-1.4-1.1-1.4c-0.8,0-1.4,0.5-1.4,1.1
        c0,0.3-0.8,1.4-1.4,2.2c-0.5,0.5-0.3,1.4,0.3,1.9C25.6,32.5,25.9,32.5,26.1,32.5z"/>
</g>
</svg>
