<?xml version="1.0" encoding="utf-8"?>
<!-- Generator: Adobe Illustrator 19.2.1, SVG Export Plug-In . SVG Version: 6.00 Build 0)  -->
<svg version="1.1" id="Layer_1" xmlns="http://www.w3.org/2000/svg" xmlns:xlink="http://www.w3.org/1999/xlink" x="0px" y="0px"
	 width="300px" height="30px" viewBox="0 0 300 30" style="enable-background:new 0 0 300 30;" xml:space="preserve">
<style type="text/css">
	.st0{fill:#C4C4C3;}
	.st1{font-family:'Lato-Bold';}
	.st2{font-size:12px;}
	.st3{fill:#A09F9F;}
	.st4{fill:#F15835;}
	.st5{fill:#005287;}
</style>
<text transform="matrix(1 0 0 1 3.9021 19.1934)" class="st0 st1 st2">POWERED BY</text>
<g>
	<g>
		<g>
			<path class="st3" d="M128.8,7.7h3.5c2.4,0,2.9,0.9,2.9,3.5c0,2.8-0.5,3.3-1.8,3.5v0c1.6,0.3,1.9,0.8,1.9,3.3
				c0,3.1-0.4,4.1-3.3,4.1h-3.1V7.7z M130.8,13.9h1.2c1.2,0,1.3-0.2,1.3-2.6c0-1.6-0.3-2-1.5-2h-0.9V13.9z M130.8,20.5h1.2
				c1.1,0,1.3-0.3,1.3-2.6c0-2.2-0.2-2.5-1.3-2.5h-1.3V20.5z"/>
			<path class="st3" d="M136.3,7.7h2v14.4h-2V7.7z"/>
			<path class="st3" d="M139.5,17.9h2v1.2c0,1,0.4,1.6,1.2,1.6c1.1,0,1.3-0.7,1.3-1.7c0-1.2-0.1-1.6-2.1-3.7
				c-1.3-1.3-2.3-2.4-2.3-4.4c0-2.3,1.1-3.4,3.3-3.4c1.1,0,1.9,0.4,2.3,0.8c0.3,0.3,0.6,0.8,0.6,1.8v1.4h-1.9v-1.1
				c0-0.8-0.3-1.3-1.1-1.3c-0.8,0-1.2,0.5-1.2,1.6c0,1,0.2,1.6,2,3.5c2,2,2.3,2.7,2.3,4.5c0,2.2-0.9,3.5-3.2,3.5
				c-1.8,0-3.1-0.8-3.1-2.6V17.9z"/>
			<path class="st3" d="M146.8,11.4c0-2,0.7-3.8,3.4-3.8c2.6,0,3.4,1.3,3.4,3.6v7.3c0,2-0.7,3.8-3.4,3.8c-2.5,0-3.4-1.3-3.4-3.6
				V11.4z M148.8,18.8c0,1.2,0.6,1.9,1.4,1.9c0.8,0,1.4-0.7,1.4-1.9v-7.5c0-1.4-0.5-2.1-1.4-2.1c-0.9,0-1.4,0.7-1.4,2.1V18.8z"/>
			<path class="st3" d="M154.7,7.7h2.7l2.3,11.9h0V7.7h1.9v14.4h-2.9l-2.3-12.3h0v12.3h-1.8V7.7z"/>
		</g>
	</g>
	<path class="st4" d="M120.2,7.7l-1.8-3l-16.8,5l-0.7,0.8v2l-0.5,0.4l0.5,2.7l1.1-2.2l-0.7-0.8l0-1.6l0-0.1l0-0.1l0.4-0.5l1.1,5.2
		l-1.2,0.7v5.4l0.2,0.1v0.6h1.3l-0.7-0.7v-3.3l0.5-0.5l2.7,3.9l0.5,0.2l-0.3,0.4h1.4l-2.5-3.8l1-3.6l1.9,1.1l4.7-0.3l1,4.4h1
		l0.3,1.7l0.5,0.2l-0.2,0.3h1.5l-0.5-0.4l0-1.8l0.1-1.6l4.9-2.8l0.5,1.9l2.2-1.9h1.1V7.7H120.2z M121,9.2l0.7-1.4v2.5L121,9.2z"/>
</g>
<g id="_x32__1_">
	<g>
		<g>
			<g>
				<path class="st5" d="M204.4,9.9h1.2v4.3h4.9V9.9h1.2v10.3h-1.2v-4.9h-4.9v4.9h-1.2V9.9z"/>
			</g>
			<g>
				<path class="st5" d="M217.8,16.3c-2.1,0-3.1,0.6-3.1,1.7c0,0.8,0.6,1.4,1.6,1.4c1.3,0,2.4-1.2,2.4-2.7v-0.4
					C218.3,16.3,218,16.3,217.8,16.3z M218.6,18.7c-0.5,1-1.5,1.6-2.6,1.6c-1.6,0-2.6-1-2.6-2.3c0-1.7,1.5-2.6,4.6-2.6
					c0.2,0,0.4,0,0.7,0v-0.5c0-1.1-0.6-1.7-1.9-1.7c-1.2,0-1.8,0.4-2,1.3l-1.1-0.2c0.3-1.4,1.4-2.1,3.3-2.1c2,0,2.8,1,2.8,3v3.3
					c0,0.6,0,1.1,0.2,1.6h-1.1C218.7,19.7,218.6,19.2,218.6,18.7z"/>
			</g>
			<g>
				<path class="st5" d="M229.5,12.4c1.5,0,2.3,1,2.3,3v4.8h-1.1v-4.9c0-1.2-0.5-1.9-1.4-1.9c-1.1,0-2.1,1.1-2.1,2.6v4.2h-1.1v-4.9
					c0-1.2-0.6-1.9-1.4-1.9c-1.1,0-2,1.1-2,2.6v4.2h-1.1v-7.6h1v1.4c0.6-1.1,1.4-1.6,2.3-1.6c1.1,0,1.9,0.6,2.2,1.6
					C227.7,12.9,228.5,12.4,229.5,12.4z"/>
			</g>
			<g>
				<path class="st5" d="M233.8,9.9h1.1V11h-1.1V9.9z M233.8,12.5h1.1v7.6h-1.1V12.5z"/>
			</g>
			<g>
				<path class="st5" d="M237.2,9.9h1.1v10.3h-1.1V9.9z"/>
			</g>
			<g>
				<path class="st5" d="M241.2,13.4h-1.3v-0.8h1.3v-1.8l1.1-0.1v1.9h1.8v0.8h-1.8v4c0,1.4,0.1,2,1.3,2c0.2,0,0.5,0,0.8-0.1v1
					c-0.3,0.1-0.6,0.1-1,0.1c-0.9,0-1.5-0.3-2-0.9c-0.3-0.4-0.3-1.2-0.3-2.1V13.4z"/>
			</g>
			<g>
				<path class="st5" d="M251,16.3c0-1.9-0.9-3.1-2.2-3.1s-2.2,1.1-2.2,3.1c0,1.9,0.9,3.1,2.2,3.1C250.1,19.4,251,18.3,251,16.3z
					 M245.4,16.3c0-2.5,1.4-4,3.4-4c2,0,3.4,1.6,3.4,4c0,2.5-1.4,4-3.4,4C246.8,20.4,245.4,18.8,245.4,16.3z"/>
			</g>
			<g>
				<path class="st5" d="M253.8,12.5h1v1.4c0.6-1.1,1.4-1.6,2.5-1.6c1.6,0,2.5,1,2.5,3v4.8h-1.1v-4.9c0-1.3-0.6-2-1.6-2
					c-1.2,0-2.2,1.1-2.2,2.7v4.2h-1.1V12.5z"/>
			</g>
			<g>
				<path class="st5" d="M265.9,9.9h1.3V19h4.7v1.1h-6V9.9z"/>
			</g>
			<g>
				<path class="st5" d="M277.4,16.3c-2.1,0-3.1,0.6-3.1,1.7c0,0.8,0.6,1.4,1.6,1.4c1.3,0,2.4-1.2,2.4-2.7v-0.4
					C278,16.3,277.7,16.3,277.4,16.3z M278.3,18.7c-0.5,1-1.5,1.6-2.6,1.6c-1.6,0-2.6-1-2.6-2.3c0-1.7,1.5-2.6,4.6-2.6
					c0.2,0,0.4,0,0.7,0v-0.5c0-1.1-0.6-1.7-1.9-1.7c-1.2,0-1.8,0.4-2,1.3l-1.1-0.2c0.3-1.4,1.4-2.1,3.3-2.1c2,0,2.8,1,2.8,3v3.3
					c0,0.6,0,1.1,0.2,1.6h-1.1C278.3,19.7,278.3,19.2,278.3,18.7z"/>
			</g>
			<g>
				<path class="st5" d="M281.2,12.5h1v1.4c0.6-1.1,1.4-1.6,2.5-1.6c1.6,0,2.5,1,2.5,3v4.8h-1.1v-4.9c0-1.3-0.6-2-1.6-2
					c-1.2,0-2.2,1.1-2.2,2.7v4.2h-1.1V12.5z"/>
			</g>
			<g>
				<path class="st5" d="M294.1,15.6c-0.1-1.5-0.8-2.3-2.1-2.3c-1.2,0-2,0.8-2.2,2.3H294.1z M292,20.4c-2.1,0-3.4-1.5-3.4-4
					c0-2.4,1.4-4,3.4-4c2.1,0,3.4,1.5,3.4,4c0,0.1,0,0.1,0,0.2h-5.6c0,0,0,0,0,0c0,1.9,0.9,2.9,2.3,2.9c1,0,1.7-0.5,2.1-1.5l1.1,0.2
					C294.7,19.6,293.6,20.4,292,20.4z"/>
			</g>
			<g>
				<polygon class="st5" points="178.1,21.3 181.9,19.2 179.2,15.5 175.1,17.6 				"/>
				<polygon class="st5" points="189.4,7.5 191.9,5.6 189.7,2 186.9,3.4 				"/>
				<polygon class="st5" points="185.5,11.5 187.6,15.4 191,12.8 189.2,8.9 				"/>
				<polygon class="st5" points="185.1,22 188.6,19.5 187.4,16.7 183.2,19.4 				"/>
				<polygon class="st5" points="188.1,16.2 189.3,19.1 192.3,16.4 191.4,13.5 				"/>
				<polygon class="st5" points="190.1,21.3 192.7,19 192.5,17.1 189.6,19.7 				"/>
				<path class="st5" d="M190.4,21.8l0.3,1c1.1-0.9,2.3-2.2,2.3-2.2l-0.1-1L190.4,21.8z"/>
				<path class="st5" d="M190.2,23.1l-0.4-1l-3,1.9c0,0,0.7,0.7,0.7,0.7C189,24,190.2,23.1,190.2,23.1z"/>
				<polygon class="st5" points="194.9,14.4 193,16.6 193.2,18.5 195.2,16.2 				"/>
				<path class="st5" d="M194.6,18.1c0.2-0.4,0.7-1.3,0.7-1.3l-2,2.4l0,0.8C193.3,20,194.1,18.9,194.6,18.1z"/>
				<path class="st5" d="M195.6,15.9c0,0,0.4-0.8,0.9-3.5c0-0.1,0.1-0.9,0.1-0.9l-1.4,2.3L195.6,15.9z"/>
				<polygon class="st5" points="189.9,8.5 191.7,12.1 193.7,10.2 192.3,6.5 				"/>
				<polygon class="st5" points="192.9,6.1 194.2,9.6 195.4,8 194.2,4.7 				"/>
				<polygon class="st5" points="192,12.9 192.8,15.9 194.7,13.7 194,10.9 				"/>
				<polygon class="st5" points="194.5,10.4 195.1,13.1 196.4,11.1 195.7,8.7 				"/>
				<path class="st5" d="M196.7,10.6L196.7,10.6c0.1-2.2-0.2-3.3-0.2-3.3l-0.5,0.8L196.7,10.6z"/>
				<polygon class="st5" points="184.2,11.3 179.4,14.1 176.6,9.6 181.2,6.6 				"/>
			</g>
		</g>
	</g>
</g>
</svg>
