<?xml version="1.0" encoding="utf-8"?>
<!-- Generator: Adobe Illustrator 19.2.1, SVG Export Plug-In . SVG Version: 6.00 Build 0)  -->
<svg version="1.1" id="Layer_1" xmlns="http://www.w3.org/2000/svg" xmlns:xlink="http://www.w3.org/1999/xlink" x="0px" y="0px"
     width="1413.6px" height="800px" viewBox="0 0 1413.6 800" style="enable-background:new 0 0 1413.6 800;" xml:space="preserve">
<style type="text/css">
    .st0{fill:#006FF1;}
    .st1{fill:#424B4C;}
</style>
<g>
    <path class="st0" d="M387.9,337.6c-32.2,0-59.6,10.1-81.4,29.9c-21.7,19.7-32.6,45.3-32.6,76c0,30.8,10.5,56.3,31.4,75.9
        c20.9,19.7,48.7,29.6,82.7,29.6c32.7,0,60-10,81.1-29.8c21.1-19.7,31.7-45.2,31.7-75.6c0-30.5-10.9-56-32.5-75.8
        C446.6,347.7,419.5,337.6,387.9,337.6z M424.1,482c-9.6,10.3-21.9,15.5-36.7,15.5c-15.3,0-27.8-5.1-37.2-15.3
        c-9.3-10-14.1-23.1-14.1-38.7c0-15.7,4.9-28.8,14.7-39c9.8-10.2,22.1-15.4,36.6-15.4c14.2,0,26.4,5.2,36.2,15.4
        c9.8,10.2,14.7,23.3,14.7,39C438.4,458.8,433.6,471.8,424.1,482z"/>
    <path class="st0" d="M522,542.8h56.1v-19.6v-5.8l3.8,3.9c0.3,0.3,30.6,28,67.3,28c26.8,0,49.9-10.5,67.2-30.5
        c17.8-20.5,26.8-45.9,26.8-75.3c0-29.9-8.8-55.3-26.2-75.5c-17.4-20.2-39.9-30.5-66.7-30.5c-43.5,0-67.8,28.6-68.1,28.9l-4,5.3
        v-6.9V207.7L522,254.1V542.8z M593.4,404.5c9.8-10.2,22-15.4,36.2-15.4c14.5,0,26.8,5.2,36.6,15.4c9.8,10.2,14.7,23.3,14.7,39
        c0,15.7-4.7,28.7-14.1,38.7c-9.4,10.1-22,15.3-37.2,15.3c-14.8,0-27.1-5.2-36.7-15.5c-9.5-10.2-14.3-23.1-14.3-38.5
        C578.7,427.8,583.7,414.6,593.4,404.5z"/>
    <path class="st0" d="M913.9,361.9c-15.9-16.3-35.5-24.3-59.8-24.3c-26.9,0-49.3,10.2-66.7,30.5c-17.6,20.4-26.5,45.8-26.5,75.4
        c0,29.6,8.9,54.9,26.5,75.2c17.4,20.1,39.8,30.3,66.7,30.3c37,0,63.2-24.8,63.4-25.1l4.3-4.1v23.1H976V345.6h-54.3v26.9
        L913.9,361.9z M925.4,443.4c0,15.4-4.8,28.4-14.3,38.5c-9.6,10.3-21.9,15.5-36.7,15.5c-15.3,0-27.8-5.1-37.2-15.3
        c-9.3-10-14.1-23.1-14.1-38.7c0-15.7,4.9-28.8,14.7-39c9.8-10.2,22.1-15.4,36.6-15.4c14.2,0,26.4,5.2,36.2,15.4
        C920.5,414.6,925.4,427.8,925.4,443.4z"/>
    <polygon class="st0" points="1014,544.6 1070.1,592.3 1070.1,208.9 1014,251.8     "/>
    <path class="st0" d="M1205.7,392.6v-47h-41.6v-60.7l-59.7,39.6V474c0,8.1,1.8,15.8,3.6,23.2l0.9,4c1.6,7,4.8,14.4,10.4,23.9
        c4.1,6.8,10.8,12.8,19.4,17.3c8.5,4.4,18.9,6.6,31,6.6c16.4,0,31.2-3.5,44.2-10.4l-13.9-48c-1.2,0.6-2.5,1.2-4,1.7
        c-3.3,1.3-7.4,2-10.7,2c-9.5,0-21.3-5.9-21.3-34v-63.8v-3.8H1205.7z"/>
    <path class="st0" d="M215.9,404.5c0.8,0.9,1.7,1.8,2.5,2.9L263,381c-3.4-4.2-8.6-10.5-12-13.6c-16.2-14.8-37.2-29.9-71-29.9
        c-32.2,0-59.6,10.1-81.4,29.9C77,387.1,66,412.7,66,443.4c0,30.8,10.5,56.3,31.4,75.9c20.9,19.7,48.7,29.6,82.7,29.6
        c31.3,0,48.4-6.6,70.4-27.1c2-1.9,6.8-7.6,10.1-11.4c0.3-0.3,0.5-0.6,0.8-0.9L218,480c-0.6,0.7-1.1,1.3-1.7,2
        c-9.6,10.3-21.9,15.5-36.7,15.5c-15.3,0-27.8-5.1-37.2-15.3c-9.3-10-14.1-23.1-14.1-38.7c0-15.7,4.9-28.8,14.7-39
        c9.8-10.2,22.1-15.4,36.6-15.4C193.8,389,206,394.2,215.9,404.5z"/>
</g>
<g>
    <g>
        <path class="st1" d="M1281.7,235.8c-0.7-4-3.7-6-8.8-6c-2.7,0-4.8,0.6-6.3,1.8c-1.5,1.2-2.2,2.6-2.2,4.3c0,1.7,0.5,2.9,1.4,3.8
            s2.4,1.6,4.4,2.3l8.5,2.9c2.9,1,5.2,2.4,6.9,4.1c1.7,1.7,2.6,4.2,2.6,7.3c0,3.1-1.3,5.8-4,7.9c-2.7,2.1-6.3,3.2-10.8,3.2
            s-8.2-1.1-11.1-3.4c-2.9-2.3-4.4-5.5-4.5-9.6h5c0,2.7,0.9,4.7,2.8,6.2s4.3,2.1,7.3,2.1s5.3-0.7,7.1-2c1.7-1.3,2.6-2.9,2.6-4.7
            c0-1.8-0.5-3.2-1.6-4.3c-1.1-1-2.6-1.9-4.7-2.6l-7.2-2.7c-3.4-1.1-5.9-2.5-7.7-4c-1.7-1.6-2.6-3.8-2.6-6.9s1.2-5.5,3.6-7.5
            c2.4-2,5.8-3,10.2-3c4.4,0,7.7,1,10,2.9c2.3,1.9,3.7,4.5,4,7.8H1281.7z"/>
        <path class="st1" d="M1306.6,225.8l13.8,27.7l13.7-27.7h7.2v40.9h-5.1v-33.6l-14,28.5h-3.4l-14.2-28.9v34.1h-5.1v-40.9H1306.6z"/>
    </g>
</g>
</svg>
