<?xml version="1.0" encoding="utf-8"?>
<!-- Generator: Adobe Illustrator 19.2.1, SVG Export Plug-In . SVG Version: 6.00 Build 0)  -->
<svg version="1.1" id="Layer_1" xmlns="http://www.w3.org/2000/svg" xmlns:xlink="http://www.w3.org/1999/xlink" x="0px" y="0px"
     width="1280px" height="800px" viewBox="0 0 1280 800" style="enable-background:new 0 0 1280 800;" xml:space="preserve">
<style type="text/css">
    .st0{fill:#FFFFFF;}
</style>
<path class="st0" d="M150.8,449c-9.5,10.2-21.7,15.3-36.3,15.3c-15.1,0-27.5-5.1-36.9-15.1c-9.2-9.9-13.9-22.8-13.9-38.4
    c0-15.5,4.9-28.5,14.6-38.6c9.7-10.1,21.9-15.3,36.3-15.3c14.1,0,26.2,5.1,35.9,15.3c0.8,0.9,1.7,1.8,2.5,2.8l44.2-26
    c-3.3-4.1-8.5-10.4-11.8-13.5c-16-14.6-36.9-29.6-70.3-29.6c-31.9,0-59,10-80.6,29.6C12.9,355.1,2,380.4,2,410.8
    c0,30.5,10.4,55.7,31.1,75.1c20.7,19.5,48.2,29.3,81.8,29.3c31,0,47.9-6.5,69.7-26.9c2-1.8,6.8-7.5,10-11.3c0.3-0.3,0.5-0.6,0.8-0.9
    L152.5,447C152,447.7,151.4,448.3,150.8,449z"/>
<path class="st0" d="M408.6,344.3c-2.6-3-5.3-5.8-8.3-8.6C378.8,316,352.1,306,320.7,306c-31.9,0-59,10-80.6,29.6
    c-11.6,10.5-20.1,22.7-25.4,36.5c-4.6,11.8-6.9,24.7-6.9,38.7c0,14.1,2.2,27.1,6.7,38.9c5.2,13.7,13.3,25.8,24.4,36.2
    c20.7,19.5,48.2,29.3,81.8,29.3c32.4,0,59.4-9.9,80.3-29.5c2.8-2.7,5.5-5.4,7.9-8.3c15.6-18.2,23.5-40.5,23.5-66.6
    C432.5,384.9,424.4,362.6,408.6,344.3z M307.7,463c-9.5-2.1-17.7-6.7-24.3-13.8c-9.2-9.9-13.9-22.8-13.9-38.4
    c0-15.5,4.9-28.5,14.6-38.6c6-6.3,12.9-10.6,20.7-13l15.8-2.3c14,0.1,26,5.2,35.6,15.3c9.7,10.1,14.6,23.1,14.6,38.6
    c0,15.2-4.8,28.1-14.1,38.2c-9.5,10.2-21.7,15.3-36.3,15.3c-1.5,0-3-0.1-4.5-0.2L307.7,463z"/>
<path class="st0" d="M851,340.6l-8.6-10.5c-15.7-16.1-35.6-24.1-59.7-24.1c-26.6,0-49,10.1-66.2,30.2
    c-17.4,20.2-26.4,45.4-26.4,74.7c0,29.3,8.8,54.4,26.2,74.5c17.2,19.9,39.4,30,66,30c36.7,0,63.4-24.6,63.6-24.8l5.1-4.1V509h52V313
    h-52V340.6z M838.8,449c-9.5,10.2-21.7,15.3-36.3,15.3c-15.1,0-27.5-5.1-36.9-15.1c-9.2-9.9-13.9-22.8-13.9-38.4
    c0-15.5,4.9-28.5,14.6-38.6c9.7-10.1,21.9-15.3,36.3-15.3c14.1,0,26.2,5.1,35.9,15.3c9.7,10.1,14.6,23.1,14.6,38.6
    C853,426.1,848.2,438.9,838.8,449z"/>
<polygon class="st0" points="940,511 998,558.2 998,178.6 940,221.1 "/>
<path class="st0" d="M1124.9,457.4c-1.2,0.6-2.5,1.2-4,1.7c-3.3,1.3-8,2-11.2,2c-9.4,0-21.7-5.8-21.7-33.7v-63.2V358h45v-45h-45
    v-59.2l-58,39.2v148.2c0,8,1.9,15.6,3.7,23l1,3.9c1.6,7,4.8,14.2,10.4,23.6c4,6.8,10.7,12.7,19.2,17.1c8.4,4.3,18.7,6.5,30.7,6.5
    c16.2,0,30.9-3.5,43.8-10.3L1124.9,457.4z"/>
<g>
    <path class="st0" d="M579.3,515.6c13.9,0,26.8-2.9,38.4-8.4l-98.5-14C530.1,501.2,553.1,515.6,579.3,515.6z"/>
    <path class="st0" d="M646.4,336.1c-8.2-9.5-17.5-16.8-27.9-21.8c-11.5-5.5-24.2-8.3-38.1-8.3c-30.5,0-51.4,14.1-61.1,22.5
        c-4.1,3.5-5.7,6-5.8,6.1l-3.5,5.2V333v-3V177.4l-53,45.9v114.6v145.8V509h53v-17.3v-2V484l3.2,3.9c0.1,0.1,2.2,2.2,6.3,5.3l98.4,14
        c10.5-5.1,19.9-12.3,28-21.7c17.6-20.3,26.5-45.4,26.5-74.5C672.4,381.3,663.6,356.1,646.4,336.1z M597,449.2
        c-9.3,10-21.7,15.1-36.9,15.1c-14.6,0-26.8-5.2-36.3-15.3c-9.4-10.1-14.1-22.9-14.1-38.2c0-15.5,4.9-28.5,14.6-38.6
        c9.7-10.1,21.8-15.3,35.9-15.3c14.3,0,26.5,5.1,36.2,15.3c9.7,10.1,14.6,23.1,14.6,38.6C610.9,426.3,606.2,439.2,597,449.2z"/>
</g>
<g>
    <path class="st0" d="M1182.8,217.2c-1.2-6.3-5.8-9.5-13.9-9.5c-4.3,0-7.7,0.9-10,2.8c-2.3,1.9-3.5,4.2-3.5,6.8c0,2.6,0.7,4.7,2.2,6
        s3.8,2.6,7,3.6l13.5,4.6c4.6,1.6,8.3,3.7,11,6.5c2.7,2.8,4.1,6.6,4.1,11.6c0,5-2.1,9.2-6.4,12.6c-4.3,3.4-10,5.1-17.1,5.1
        c-7.1,0-13-1.8-17.6-5.4c-4.6-3.6-6.9-8.7-7.1-15.2h7.9c0,4.3,1.5,7.5,4.5,9.8c3,2.3,6.8,3.4,11.5,3.4s8.4-1,11.2-3.1
        c2.7-2.1,4.1-4.6,4.1-7.4c0-2.9-0.8-5.1-2.5-6.8c-1.7-1.7-4.2-3-7.5-4.1l-11.4-4.2c-5.4-1.8-9.4-3.9-12.2-6.4
        c-2.7-2.5-4.1-6.1-4.1-10.9s1.9-8.8,5.8-12c3.8-3.2,9.2-4.8,16.2-4.8c6.9,0,12.3,1.5,15.9,4.6c3.7,3.1,5.8,7.2,6.3,12.3H1182.8z"/>
    <path class="st0" d="M1222.3,201.4l21.9,43.9l21.6-43.9h11.4v64.8h-8.1V213l-22.3,45.2h-5.5l-22.6-45.9v54h-8.1v-64.8H1222.3z"/>
</g>
</svg>
