<?xml version="1.0" encoding="utf-8"?>
<!-- Generator: Adobe Illustrator 19.2.1, SVG Export Plug-In . SVG Version: 6.00 Build 0)  -->
<svg version="1.1" id="Layer_1" xmlns="http://www.w3.org/2000/svg" xmlns:xlink="http://www.w3.org/1999/xlink" x="0px" y="0px"
     width="524px" height="233.9px" viewBox="0 0 524 233.9" style="enable-background:new 0 0 524 233.9;" xml:space="preserve">
<style type="text/css">
    .st0{fill:none;stroke:#A1B3CE;stroke-width:3.1204;stroke-miterlimit:10;}
    .st1{fill:none;stroke:#A1B3CE;stroke-width:1.0401;stroke-miterlimit:10;}
    .st2{fill:#F05635;}
    .st3{fill:none;stroke:#A1B3CE;stroke-width:1.0401;stroke-linecap:round;stroke-linejoin:round;stroke-miterlimit:10;}
    .st4{fill:none;stroke:#A1B3CE;stroke-width:3.1204;stroke-linecap:round;stroke-linejoin:round;stroke-miterlimit:10;}
    .st5{fill:#FFFFFF;stroke:#A1B3CE;stroke-width:3.1204;stroke-linecap:round;stroke-linejoin:round;stroke-miterlimit:10;}
    .st6{fill:#3ABDE5;}
    .st7{fill:none;stroke:#A8BAD1;stroke-width:3.1183;stroke-linecap:round;stroke-linejoin:round;stroke-miterlimit:10;}
    .st8{fill:#FFFFFF;}
    .st9{fill:none;stroke:#FFFFFF;stroke-width:3.1204;stroke-linecap:round;stroke-linejoin:round;stroke-miterlimit:10;}
    .st10{fill:none;stroke:#3ABDE5;stroke-width:1.0401;stroke-linecap:round;stroke-linejoin:round;stroke-miterlimit:10;}
    .st11{fill:#FFFFFF;stroke:#3ABDE5;stroke-width:2;stroke-linecap:round;stroke-linejoin:round;stroke-miterlimit:10;}
    .st12{fill:none;stroke:#3ABDE5;stroke-width:2;stroke-linecap:round;stroke-linejoin:round;stroke-miterlimit:10;}
    .st13{fill:#3AC376;}
</style>
<g>
    <path class="st0" d="M166.5,178.9c0.1,1.7,0.2,2.9,0.3,4.2c0.6,6.3,1.2,12.6,1.7,19c0.1,1.5,0.7,2.6,1.9,3.5c1.6,1.1,3,2.4,4.5,3.7
        c-0.4,2.4-2.1,2.8-3.8,2.9c-5.3,0.2-39.8,0.2-51.7,0c-2.8,0-3.7-0.6-4.4-2.9c1.5-1.3,3.2-2.6,4.7-4c0.7-0.6,1.4-1.6,1.5-2.4
        c0.8-7.5,1.5-15,2.2-22.5c0-0.3-0.1-0.6-0.2-1.2c-1-0.1-1.9-0.2-2.9-0.2c-22.8,0-45.7,0-68.5,0c-6.4,0-9.6-3.1-9.6-9.6
        c0-39.4,0-78.8,0-118.2c0-6.5,3.2-9.7,9.7-9.7c61.6,0,123.2,0,184.8,0c6.6,0,9.8,3.2,9.8,9.7c0,39.4,0,78.8,0,118.2
        c0,6.6-3.1,9.6-9.8,9.6c-22.4,0-44.8,0-67.1,0C168.7,178.9,167.7,178.9,166.5,178.9z"/>
    <path class="st1" d="M49.7,147.8c3.3,0.9,188.1,0.5,189.4-0.3c0-32.4,0-64.7,0-97.2c-63.2,0-126.2,0-189.4,0
        C49.7,83,49.7,115.4,49.7,147.8z"/>
    <polygon class="st2" points="162.5,88.4 159.1,82.6 126.6,92.2 124.9,93.7 124.9,97.5 124.3,98.2 125.4,103.4 127.7,99.2
        126.3,97.6 126.3,94.5 126.4,94.1 127.1,93.1 129.2,103.1 126.9,104.4 126.9,114.7 126.9,114.9 126.9,115.4 129.8,115.4
        128.9,114.7 128.9,108.4 129.6,107.5 134.6,114.9 135.5,115 134.9,115.4 137.6,115.4 132.9,108.5 134.7,101.7 138.4,103.9
        147.3,102.7 149.2,110.4 151.2,110.4 151.7,114.4 152.7,114.8 152.5,115.4 155.3,115.4 154.4,114.9 154.4,111.7 154.6,108.6
        164.1,103.4 165,107.1 169.2,103.4 169.9,103.4 169.9,88.4     "/>
    <line class="st3" x1="129.8" y1="204.1" x2="159.2" y2="204.1"/>
    <line class="st4" x1="123.2" y1="179.1" x2="166.5" y2="178.9"/>
</g>
<g>
    <g>
        <polygon class="st4" points="371.9,92.9 363.5,85.9 363.5,60.1 371.9,53 380.1,60 380.1,86.2         "/>
        <line class="st3" x1="371.8" y1="53" x2="371.8" y2="92.9"/>
        <polygon class="st4" points="388.9,92.9 380.6,85.9 380.6,60.1 388.9,53 397.2,60 397.2,86.2         "/>
        <line class="st3" x1="388.9" y1="53" x2="388.9" y2="92.9"/>
        <line class="st3" x1="377.2" y1="83.9" x2="373.4" y2="86.9"/>
        <line class="st3" x1="394.3" y1="83.8" x2="390.6" y2="86.8"/>
        <polygon class="st4" points="405.6,92.9 397.2,85.9 397.2,60.1 405.6,53 413.8,60 413.8,86.2         "/>
        <line class="st3" x1="405.5" y1="53" x2="405.5" y2="92.9"/>
        <line class="st3" x1="410.9" y1="83.9" x2="407.1" y2="86.9"/>
        <path class="st4" d="M419.4,90.2V55.7c0-1.5-1.2-2.7-2.7-2.7l0,0c-1.5,0-2.7,1.2-2.7,2.7v34.5c0,1.5,1.2,2.7,2.7,2.7l0,0
            C418.2,92.9,419.4,91.7,419.4,90.2z"/>
    </g>
    <g>
        <path class="st5" d="M358.1,55.6v34.5c0,1.5,1.2,2.7,2.7,2.7l0,0c1.5,0,2.7-1.2,2.7-2.7V55.6c0-1.5-1.2-2.7-2.7-2.7l0,0
            C359.3,52.9,358.1,54.1,358.1,55.6z"/>
        <path class="st4" d="M322.2,82.6l9.7,0l26.2-0.1V62.9c-10.6,0-31,0-35.9,0"/>
    </g>
    <g>
        <path class="st5" d="M251.9,55.6v34.5c0,1.5-1.2,2.7-2.7,2.7h0c-1.5,0-2.7-1.2-2.7-2.7V55.6c0-1.5,1.2-2.7,2.7-2.7h0
            C250.6,52.9,251.9,54.1,251.9,55.6z"/>
        <path class="st4" d="M287.8,82.6l-9.7,0l-26.2-0.1V62.9c10.6,0,31,0,35.9,0"/>
    </g>
    <g>
        <path class="st5" d="M342.7,90.4l-19.8-41.7c-7-13.2-21.5-20.5-36.2-18.2l0,0c-14.4,2.2-24.9,14.8-24.6,29.3V62
            c0.3,14.8,9.8,25.2,23.3,31.2l37.3,17.5l0,0c12.7,6,26-7.2,20-20L342.7,90.4z"/>
        <path class="st6" d="M318,67.5c-1.5-0.2-2.8,1.9-2.2,3.3c0.2,0.5,0.7,0.9,1.1,1.3c0.6,0.6,1.1,1.2,0.9,2.1
            c-0.5,1.5-1.5,2.5-3.3,1.6c-0.4-0.2-1.1-0.3-1.5-0.2c-1.5,0.5-2.7,2.2-1.4,4c0.9,1.1,0.7,2.1-0.4,2.9c-1,0.8-1.7,0.8-2.8-0.2
            c-0.3-0.2-0.5-0.5-0.9-0.6c-0.4-0.2-0.9-0.3-1.3-0.3c-1.2,0.3-2.6,1.3-2.1,3.1c0,0.2,0,0.4,0.1,0.6c0.2,0.7,0,1.3-0.6,1.6
            c-1.5,1-2.7,1.1-3.5-0.7c-0.1-0.1-0.1-0.3-0.2-0.3c-0.5-0.9-1.4-1.3-2.4-1.1c-1,0.2-1.8,0.9-2,1.9c-0.1,0.3-0.1,0.6-0.2,0.9
            c-0.2,0.4-0.3,1-0.7,1.3c-0.8,0.5-1.6,0.5-2.5,0.2c-0.8-0.3-0.9-1.1-1-1.9c-0.1-0.4-0.3-0.9-0.5-1.3c-1-1.3-3.4-1.5-4.1,0.4
            c-0.9,1.9-2.3,1.7-3.6,0.9c-0.4-0.3-0.6-0.9-0.6-1.4c0-0.3,0.1-0.8,0.2-1.1c0.3-1.2-0.1-2-1.2-2.6c-1-0.6-1.9-0.5-2.8,0.3
            c-0.3,0.3-0.6,0.5-0.9,0.8c-0.5,0.3-1,0.3-1.5,0.1c-1.6-0.9-2.1-2-0.9-3.5c0-0.1,0.1-0.2,0.2-0.3c0.3-0.6,0.4-1.1,0.1-1.8
            c-0.7-1.6-1.9-2-3.5-1.4c-0.5,0.2-1.4,0.3-1.8,0c-1.2-0.9-2.2-2.5-0.2-3.8l0.1-0.1c1.5-1,1-2.8,0.3-3.7c-0.7-0.9-1.6-0.8-2.6-0.8
            c-0.9,0-1.5-0.3-1.7-1.3c-0.4-1.5-0.1-2.3,1.5-2.8c0.2-0.1,0.3-0.1,0.5-0.2c0.9-0.3,1.5-1.3,1.5-2.2c0-1-0.5-1.8-1.5-2.2
            c-0.3-0.2-0.8-0.2-1-0.4c-0.3-0.3-0.9-0.8-0.9-1.2c-0.2-1.4,0.3-3,2.2-2.8c0.3,0,0.5,0.1,0.8,0c0.3-0.1,0.7-0.2,0.9-0.3
            c1.5-1,1.5-2.9,0.1-4c-0.3-0.2-0.4-0.4-0.7-0.6c-0.4-0.4-0.6-1-0.4-1.6c0.5-1.5,1.5-2.6,3.3-1.6c1.5,0.9,2.8-0.3,3.4-1.5
            c0.3-0.9,0-1.5-0.4-2.2c-0.5-0.7-0.7-1.4-0.3-2.1c0.8-1.6,2.3-1.9,3.7-0.7c0.5,0.4,1.1,0.9,1.7,0.9c1.5,0.1,2.7-1.5,2.4-2.9
            c-0.1-0.3-0.2-0.6-0.2-0.9c0-0.4,0-0.9,0.3-1.2c1-1.5,2.9-1.3,3.8,0.3c0.1,0.1,0.2,0.3,0.3,0.4c0.4,0.6,0.9,1.1,1.8,1.1
            c1.8-0.1,2.4-0.9,2.7-2.5c0.3-1.5,0.9-1.9,2.5-1.8c1.1,0,1.7,0.7,1.8,2c0,1.2,0.7,2,2,2.2c1,0.2,1.9-0.2,2.5-1.2
            c0.2-0.3,0.3-0.6,0.5-0.9c0.5-0.7,1.2-0.9,2.2-0.5c1,0.4,1.5,0.9,1.5,1.8c-0.1,0.4-0.1,0.9-0.2,1.5c-0.1,0.8,0.2,1.5,0.8,1.9
            c0.8,0.6,1.5,1,2.5,0.6c0.3-0.2,0.7-0.5,1-0.8c0.5-0.4,1-0.9,1.8-0.7c1.5,0.5,2.7,1.9,1.4,3.6c-0.1,0.1-0.1,0.2-0.2,0.3
            c-0.4,0.9-0.4,1.6,0.2,2.4c0.7,0.9,1.4,1.5,2.5,1.1c0.4-0.2,0.9-0.3,1.3-0.4c0.8-0.2,1.4,0,1.9,0.7c0.8,1,1.1,2.2-0.4,3.4
            c-0.3,0.3-0.9,0.8-0.9,1.2c-0.4,1.7,0.7,3.4,2.4,3.3c0.3,0,0.7-0.1,1,0c0.4,0.2,0.9,0.3,1.2,0.7c0.9,1.3,0.5,2.8-1,3.4
            c-0.2,0.1-0.3,0.2-0.5,0.3c-0.9,0.3-1.5,1.2-1.5,2.2c0,1.1,0.6,1.9,1.6,2.2c0.3,0.2,0.6,0.3,0.9,0.4c0.8,0.4,1.2,1,1,1.9
            c-0.3,1.7-0.7,2.2-2.3,2.2c-0.1,0-0.1,0-0.2,0S318.1,68,318,67.5z M303.1,71.7c-1-0.7-2.1-1.5-3.1-2.2c-1.6-1.1-3.3-1.3-5.1-0.3
            c-1.2,0.7-1.8,1.7-2.2,2.9c-0.5,1.4-1,2.8-1.4,4.2c-0.3,1.2,0.3,2.2,0.9,3.1c1.1,1.5,2.5,1.6,4.1,1.3c2.4-0.4,4.7-1.2,6.9-2.5
            c0.9-0.5,1.5-1.6,1.5-3.5C304.7,73.8,304.3,72.7,303.1,71.7z M303,44.5c-2.3-1.3-4.7-2.1-7.4-2.4c-1.1-0.1-2,0.2-2.8,0.9
            c-0.9,0.8-1.5,1.8-1.5,3c-0.1,0.5,0.2,1,0.3,1.5c0.4,1.4,0.9,2.8,1.4,4c0.9,2.5,4.1,3.8,6.8,2c1.3-0.9,2.5-1.8,3.8-2.8
            c0.9-0.7,1-1.7,1.1-2.8C304.6,46.5,304.3,45.3,303,44.5z M312.3,57.6c-0.3-1.6-1.8-2.8-3.5-2.9c-1,0-2,0.2-2.8,0.9
            c-1.2,1-2.6,1.9-3.7,2.9c-1.8,1.6-1.8,4.6,0,6.2c1.4,1.3,2.9,2.4,4.6,3.4c0.5,0.3,1.4,0.3,2.1,0.3c1.7-0.1,3.1-1.3,3.4-3
            c0.3-1.3,0.3-2.5,0.5-3.8C312.6,60.2,312.5,58.9,312.3,57.6z M279.4,64.3c-2,0-3.4,1.1-4,3c-0.3,0.8-0.2,1.5,0.2,2.2
            c1.1,2.3,2.6,4.4,4.4,6.2c1.1,1.1,2.3,1.4,3.7,0.9c1.5-0.4,2.5-1.3,2.8-2.8c0.3-1.5,0.9-2.8,1.2-4.2c0.6-2.4-1.1-4.9-3.6-5.2
            c-1-0.2-2.2-0.2-3.2-0.2c0-0.1,0-0.1,0,0C280.4,64.3,279.9,64.3,279.4,64.3z M284.2,58.7c2.4-0.3,4.2-2.8,3.7-5.2
            c-0.4-1.7-1-3.4-1.5-5.2c-0.1-0.3-0.3-0.6-0.6-0.9c-1.2-1-2.5-1.5-4-1.2c-0.3,0.1-0.8,0.3-1,0.5c-2.1,1.8-3.7,4-4.9,6.5
            c-1.1,2.4,0.8,5.4,3.4,5.4c0.6,0,1.3,0,1.9,0.1l0,0C282,58.8,283,58.8,284.2,58.7z M290.8,61.5c0,1.4,1.2,2.5,2.5,2.5
            c1.5,0,2.6-1.1,2.6-2.4c0-1.6-1-2.7-2.5-2.7C291.8,59,290.8,60,290.8,61.5z"/>
        <path class="st6" d="M339.1,97.5c-0.8-0.2-1.4,0.9-1.1,1.5c0.2,0.3,0.4,0.4,0.6,0.6c0.3,0.3,0.5,0.5,0.4,0.9
            c-0.2,0.7-0.7,1.2-1.5,0.8c-0.3-0.1-0.5-0.2-0.8-0.1c-0.8,0.3-1.4,1-0.7,1.9c0.4,0.6,0.3,1-0.3,1.5c-0.5,0.3-0.9,0.3-1.4-0.1
            c-0.2-0.2-0.3-0.3-0.4-0.3s-0.4-0.2-0.6-0.2c-0.6,0.2-1.3,0.7-1,1.5c0.1,0.2,0.1,0.3,0.1,0.3c0.1,0.3,0,0.6-0.3,0.8
            c-0.7,0.5-1.3,0.5-1.7-0.3c0-0.1-0.1-0.1-0.1-0.2c-0.3-0.4-0.6-0.6-1.1-0.5c-0.5,0.1-0.9,0.4-0.9,0.9c0,0.2,0,0.3-0.1,0.4
            c-0.1,0.2-0.2,0.5-0.3,0.6c-0.3,0.3-0.8,0.3-1.2,0.1c-0.3-0.2-0.4-0.6-0.5-0.9c-0.1-0.2-0.1-0.4-0.3-0.6c-0.4-0.7-1.5-0.8-2,0.2
            c-0.4,0.9-1.2,0.9-1.8,0.4c-0.3-0.2-0.3-0.4-0.3-0.7c0-0.3,0.1-0.4,0.1-0.6c0.1-0.5-0.1-0.9-0.6-1.2c-0.5-0.3-0.9-0.2-1.4,0.2
            c-0.2,0.1-0.3,0.3-0.4,0.3c-0.3,0.3-0.5,0.3-0.8,0.1c-0.9-0.5-1-0.9-0.5-1.7c0,0,0.1,0,0.1-0.1c0.2-0.3,0.3-0.5,0.1-0.9
            c-0.3-0.8-0.9-1-1.7-0.7c-0.3,0.1-0.7,0.2-0.9,0c-0.6-0.4-1-1.3-0.1-1.9c0.1,0,0.1,0,0.1,0c0.8-0.5,0.6-1.4,0.2-1.8
            c-0.3-0.3-0.9-0.3-1.3-0.3c-0.5,0-0.7-0.2-0.9-0.6c-0.3-0.8-0.1-1.1,0.7-1.4c0.1,0,0.2-0.1,0.3-0.1c0.4-0.2,0.7-0.6,0.7-1.1
            c0-0.5-0.3-0.9-0.8-1c-0.2,0-0.4-0.1-0.5-0.2c-0.2-0.2-0.4-0.4-0.4-0.6c-0.1-0.7,0.2-1.5,1.1-1.4c0.1,0,0.3,0,0.3,0
            c0.2-0.1,0.3-0.1,0.5-0.2c0.8-0.5,0.8-1.5,0.1-2c-0.1-0.1-0.3-0.2-0.3-0.3c-0.2-0.2-0.3-0.5-0.2-0.8c0.2-0.8,0.7-1.2,1.5-0.8
            c0.8,0.3,1.4-0.2,1.6-0.8c0.1-0.4,0-0.7-0.3-1c-0.3-0.3-0.3-0.6-0.2-0.9c0.4-0.8,1.1-0.9,1.8-0.3c0.3,0.3,0.6,0.4,0.9,0.4
            c0.8,0,1.4-0.8,1.2-1.5c-0.1-0.2-0.1-0.3-0.1-0.4c0.1-0.2,0.1-0.4,0.2-0.6c0.6-0.7,1.5-0.6,1.9,0.2c0,0.1,0,0.2,0.1,0.3
            c0.2,0.3,0.4,0.5,0.9,0.5c0.9,0,1.2-0.4,1.3-1.2c0.1-0.7,0.4-0.9,1.2-0.9c0.5,0,0.9,0.3,0.9,0.9c0,0.6,0.3,0.9,0.9,1.1
            c0.5,0.1,0.9-0.1,1.2-0.6c0.1-0.2,0.2-0.3,0.3-0.4c0.3-0.3,0.6-0.4,1.1-0.3c0.5,0.2,0.7,0.4,0.7,0.9c0,0.2-0.1,0.4-0.1,0.7
            c-0.1,0.4,0,0.7,0.3,0.9c0.3,0.3,0.8,0.5,1.2,0.3c0.2-0.1,0.3-0.2,0.5-0.3c0.3-0.3,0.5-0.4,0.9-0.3c0.7,0.2,1.3,0.9,0.7,1.7
            c0,0.1-0.1,0.1-0.1,0.2c-0.3,0.3-0.2,0.8,0.1,1.1c0.3,0.4,0.7,0.7,1.2,0.5c0.2,0,0.4-0.1,0.6-0.2c0.4-0.1,0.7,0,0.9,0.3
            c0.4,0.5,0.6,1.1-0.2,1.6c-0.3,0.2-0.4,0.3-0.5,0.6c-0.2,0.8,0.3,1.5,1.2,1.5c0.2,0,0.3-0.1,0.5,0c0.3,0.1,0.5,0.2,0.6,0.3
            c0.4,0.7,0.3,1.5-0.5,1.7c-0.1,0-0.2,0.1-0.3,0.1c-0.4,0.2-0.7,0.6-0.7,1.1c0,0.5,0.3,0.9,0.8,1c0.1,0,0.3,0.1,0.4,0.2
            c0.4,0.3,0.6,0.5,0.5,0.9c-0.2,0.9-0.3,1-1.2,1c0.1,0,0.1,0,0,0C339.3,97.6,339.2,97.6,339.1,97.5z M332,99.5
            c-0.5-0.3-1-0.8-1.5-1.1c-0.9-0.5-1.6-0.6-2.5-0.2c-0.5,0.3-0.9,0.8-1,1.4c-0.3,0.7-0.5,1.4-0.7,2.1c-0.2,0.5,0.1,1,0.4,1.5
            c0.5,0.7,1.2,0.8,2,0.6c1.2-0.2,2.3-0.6,3.4-1.2c0.4-0.3,0.7-0.8,0.7-1.7C332.6,100.4,332.4,99.9,332,99.5z M331.7,86.2
            c-1.1-0.5-2.3-0.9-3.6-1.1c-0.6,0-1,0.1-1.4,0.4c-0.5,0.3-0.7,0.9-0.8,1.5c0,0.2,0.1,0.4,0.2,0.7c0.3,0.7,0.4,1.3,0.7,2
            c0.4,1.2,2.1,1.8,3.4,0.9c0.7-0.4,1.3-0.9,1.9-1.4c0.5-0.3,0.6-0.9,0.6-1.4C332.6,87.1,332.4,86.5,331.7,86.2z M336.3,92.6
            c-0.2-0.9-0.9-1.4-1.7-1.5c-0.4,0-0.9,0.1-1.3,0.4c-0.6,0.4-1.3,0.9-1.8,1.4c-0.9,0.8-0.9,2.2,0,3c0.7,0.7,1.5,1.2,2.2,1.7
            c0.2,0.1,0.6,0.1,0.9,0.1c0.9-0.1,1.5-0.6,1.6-1.5c0.1-0.6,0.2-1.2,0.3-1.8C336.5,93.9,336.5,93.2,336.3,92.6z M320.4,95.8
            c-0.9,0-1.7,0.5-2,1.5c-0.1,0.4-0.1,0.8,0.1,1.1c0.5,1.1,1.3,2.2,2.2,3c0.5,0.5,1.1,0.6,1.8,0.4c0.7-0.3,1.2-0.6,1.4-1.4
            c0.2-0.7,0.4-1.4,0.6-2.1c0.3-1.2-0.6-2.4-1.8-2.6c-0.5-0.1-1-0.1-1.5-0.1l0,0C320.8,95.7,320.5,95.7,320.4,95.8z M322.6,93.2
            c1.2-0.2,2.1-1.4,1.8-2.5c-0.3-0.9-0.5-1.6-0.8-2.5c0-0.2-0.2-0.3-0.3-0.4c-0.6-0.5-1.2-0.8-2-0.6c-0.2,0.1-0.3,0.2-0.5,0.3
            c-1,0.9-1.8,2-2.4,3.2c-0.5,1.1,0.3,2.6,1.6,2.6c0.3,0,0.6,0,0.9,0l0,0C321.6,93.1,322.1,93.1,322.6,93.2z M325.9,94.5
            c0,0.7,0.6,1.2,1.2,1.2c0.7,0,1.2-0.6,1.2-1.2c0-0.8-0.5-1.3-1.2-1.3C326.3,93.2,325.9,93.8,325.9,94.5z"/>
        <line class="st7" x1="335.1" y1="74.4" x2="332.3" y2="75.6"/>
        <line class="st7" x1="337.5" y1="79.7" x2="334.7" y2="80.9"/>
        <line class="st7" x1="332.5" y1="68.9" x2="329.7" y2="70.1"/>
        <line class="st7" x1="329.7" y1="63.6" x2="327" y2="64.8"/>
        <line class="st7" x1="326.7" y1="57.4" x2="324" y2="58.6"/>
        <line class="st7" x1="306.4" y1="99.3" x2="305" y2="101.9"/>
        <line class="st7" x1="300.5" y1="96.6" x2="299" y2="99.2"/>
        <line class="st7" x1="294.4" y1="93.9" x2="293" y2="96.6"/>
        <line class="st7" x1="288.5" y1="91.4" x2="287" y2="93.9"/>
        <line class="st7" x1="312.4" y1="102.4" x2="311" y2="105"/>
        <line class="st7" x1="323.1" y1="49.7" x2="320.5" y2="50.9"/>
    </g>
</g>
<path class="st8" d="M483.8,161.2h16.7l-2.2-17.4c0,0-11.4-19.2-15.3-0.8S483.8,161.2,483.8,161.2z"/>
<path class="st9" d="M482.5,135.1"/>
<line class="st0" x1="481.6" y1="160.7" x2="506.4" y2="160.7"/>
<path class="st4" d="M468,96.5h-34.5c-1.5,0-2.7-1.2-2.7-2.7v0c0-1.5,1.2-2.7,2.7-2.7H468c1.5,0,2.7,1.2,2.7,2.7v0
    C470.7,95.3,469.5,96.5,468,96.5z"/>
<path class="st4" d="M434.3,96.5c-22,0-29.4,17-29.4,17h91.7c0,0-7.5-17-29.4-17"/>
<path class="st4" d="M439.8,89.7l0-6.4l-9.7,0L420,83.3l0-19.6c10.6,0,13,0.1,18,0.1c24.1,0.2,22.5,18.3,22.5,18.3l0,7.7"/>
<path class="st3" d="M447.4,69.1c0,0,4.9,0.3,7,5.8"/>
<rect x="412.5" y="156.6" class="st10" width="26.7" height="42.8"/>
<rect x="446.6" y="156.6" class="st10" width="26.7" height="42.8"/>
<path class="st10" d="M446,135.1c-7.7,0-6.8,13.1-6.8,13.1h-26.7c0,0-1-13.1,7.4-13.1"/>
<path class="st10" d="M480.5,135.1c-7.7,0-6.8,13.1-6.8,13.1H447c0,0-1-13.1,7.4-13.1"/>
<path class="st11" d="M25,26.1c0,0-15.6,7.5-14.5,24.1S21.7,72,25,73.2c3.3,1.2,15.4,3.1,20-6.4S51.7,48,66.2,50.2s31.7-2.9,40.1-2
    c8.4,0.9,35.8,12.8,52.9,11.2c17.2-1.6,42.1-8.4,56.3-10.2c14.8-1.9,27.4-5.1,33.7,3.7c6.3,8.8,21.5,8.3,26.1,0
    c3.1-5.7,2-14.1,11.1-14.9c9-0.8,25.7,11,35.5,10.1c9.8-0.8,4.9-12.9,4.9-12.9s-8.7-24.6-36-22.4c-27.2,2.2-37.5,8.7-51.7,4.7
    c-9.8-2.8-47.1-9.9-74.2-8.2c-25.7,1.6-81.6,5.1-81.6,5.1S46.2,15.6,25,26.1z"/>
<path class="st11" d="M48.7,180.2H128c0,0,2.1,1.5,0.4,2.7c-1.7,1.2-5.9,0.6-5.9,0.6l-7.8,1.4l-1.7,0.1l-2.3,18.1l-3.8-18.2
    c0,0-2.6,0.6-3.4,0.7c-0.7,0.1-1.8-1.1-1.8-1.1l-3.4,11.8l-3.6-11.9l-4.8,0.7l-4.4,31.7L80.2,185c0,0-5.3-2.9-7.4-1.4
    s-3.4,3.4-4.9,2.8c-1.4-0.6-2.7-1.9-2.7-1.9l-2.8,13.2l-2.8-13.2c0,0-9.9,1-10.9-0.9S48.7,180.2,48.7,180.2z"/>
<path class="st12" d="M341.6,107.8c0,0-5.8,6.7-14.5,5.7c0,0-1.6,1.1-25.5-11.1l-18.1-8.4c0,0-11.3-5.4-13.7-9.7h-16.1v4.3
    c0,0-0.1,3.2,1.7,2.9c1.9-0.3,3.4-2.3,4.1-2.3c0.7,0,2.9,14,2.9,14l2.4-15.5c0,0,0.7,1.5,2.2,1.8c1.9,0.3,3.7,1.2,3.9,1.8
    c0.1,0.6,4.4,30.1,4.4,30.1l2.1-24.1c0,0,3,3.1,4.7,3.5c3.7,1.1,5,0.7,7,1c1.8,0.2,2.2,0.8,2.2,0.8l3.2,11.1l2-8.4
    c0,0,1.9,1.8,3.7,2.4c1.8,0.6,3.4,0.4,3.4,0.4c0.1,0.5,1.9,18,1.9,18l1.1-17.4c0,0,1.2,2.4,2.2,3.1c2.7,1.7,5.6,3.2,6.9,3.6
    s2.2-0.2,2.8,0.2c0.5,0.4,0.3,2.6,2.1,3.4c1.2,0.6,1.7,0.3,1.7,0.3l4.8,32.1l3.3-32.1c0,0,1.4,0.7,2.5,0.6c1.6-0.2,1.9-1.4,1.9-1.4
    l1.8,9.9l1.7-11.7c0,0,1.2-0.2,3.3-1c2.1-0.8,5.3-3.2,4.9-6.2S343,106.5,341.6,107.8z"/>
<path class="st0" d="M489.2,135.1c0,0-7.5,0.6-7.5,13.7v65.5h-77.2v-62.4c0,0-2.3-16.8,10.8-16.8S489.2,135.1,489.2,135.1
    s8.9-0.9,8.9,13.3c0,0-0.2,12.5,8.3,12.3c8.5-0.2,7.5-12.5,7.5-12.5V143h-16.4"/>
<path class="st12" d="M220.1,180.2H236c0,0,10.3,1.2,11.4-6.8s6.2-2.8,5.8,0c-0.3,1.6-0.7,2.6-1.4,5.5c-0.3,1.4-4.1,19.6-4.1,19.6
    l-2.5-15.7c0,0-2,1.9-4.4,2.2c-2.3,0.3-2.1-1.3-4.2-1.1l-3.3,10l-3.1-10c0,0-2.7,1.7-4.4,1.7s-4.2-2-5.8-1.7
    C218.6,184.2,215.9,181.4,220.1,180.2z"/>
<path class="st10" d="M295.9,17c0,0,10.7-0.7,17.8,7.8"/>
<path class="st10" d="M33.5,70.1c0,0,7.1-0.2,10.2-11.2"/>
<line class="st10" x1="87.3" y1="186.6" x2="86.2" y2="195.2"/>
<line class="st10" x1="327.8" y1="119.7" x2="327.4" y2="124.6"/>
<circle class="st13" cx="484.5" cy="202" r="23.8"/>
<g>
    <path class="st8" d="M481.6,203.4l13.4-10.6c0.1-0.1,0.3-0.1,0.4-0.1s0.3,0.1,0.3,0.2l3.3,4.1c0.1,0.1,0.1,0.2,0.1,0.4
        c0,0.1-0.1,0.3-0.2,0.4l-18.3,14.6c-0.1,0.1-0.2,0.1-0.4,0.1c-0.1,0-0.3-0.1-0.3-0.2l-7.2-9c-0.1-0.1-0.1-0.3-0.1-0.4
        c0-0.1,0.1-0.3,0.2-0.3l4.1-3.3c0.1-0.1,0.2-0.1,0.4-0.1c0.1,0,0.3,0.1,0.4,0.2l3.2,4c0.1,0.1,0.2,0.2,0.4,0.2
        C481.3,203.5,481.5,203.5,481.6,203.4z"/>
</g>
</svg>
