<?xml version="1.0" standalone="no"?>
<!DOCTYPE svg PUBLIC "-//W3C//DTD SVG 1.1//EN" "http://www.w3.org/Graphics/SVG/1.1/DTD/svg11.dtd">
<svg xmlns="http://www.w3.org/2000/svg">
<metadata>Copyright (C) 2020 by original authors @ fontello.com</metadata>
<defs>
<font id="bison-icons" horiz-adv-x="1000" >
<font-face font-family="bison-icons" font-weight="400" font-stretch="normal" units-per-em="1000" ascent="850" descent="-150" />
<missing-glyph horiz-adv-x="1000" />
<glyph glyph-name="add-comment" unicode="&#xe800;" d="M166 743l0-493c0-2 2-3 4-3l412 0c0 0 2 0 2-2l242-161c4-2 8 0 8 2l0 657c0 2-2 4-4 4l-660 0c-2 0-4-2-4-4z m496-289l-117 0c-2 0-4-2-4-4l0-118c0-1-2-3-4-3l-74 0c-2 0-4 2-4 3l0 118c0 2-2 4-4 4l-117 0c-2 0-4 2-4 3l0 77c0 2 2 4 4 4l117 0c2 0 4 2 4 3l0 118c0 2 2 4 4 4l74 0c2 0 4-2 4-4l0-118c0-1 2-3 4-3l117 0c2 0 4-2 4-4l0-77c0-1-2-3-4-3z" horiz-adv-x="1000" />

<glyph glyph-name="align-bottom" unicode="&#xe801;" d="M498 248c0-1 4-1 4 0l158 157c0 2 0 4 0 6 0 0-2 2-4 2l-111 0c0 0-2 0-2 2-2 0-2 1-2 1l0 327c0 0 0 2 0 2-2 2-2 2-4 2l-74 0c-2 0-2 0-4-2 0 0 0-2 0-2l0-327c0 0 0-1-2-1 0-2-2-2-2-2l-111 0c-2 0-4-2-4-2 0-2 0-4 0-6z m291-85l-576 0c-2 0-2 0-4-2 0 0 0-2 0-2l0-77c0 0 0-1 0-1 2-2 2-2 4-2l574 0c2 0 2 0 4 2 0 0 0 1 0 1l0 77c0 0 0 2 0 2-2 2-2 2-4 2z" horiz-adv-x="1000" />

<glyph glyph-name="align-center" unicode="&#xe802;" d="M209 700l0-75c0-2 2-3 4-3l574 0c2 0 4 1 4 3l0 75c0 2-2 4-4 4l-574 0c-2 0-4-2-4-4z m0-500l0-75c0-2 2-3 4-3l574 0c2 0 4 1 4 3l0 75c0 2-2 4-4 4l-574 0c-2 0-4-2-4-4z m166 334l0-77c0-1 2-3 4-3l283 0c2 0 4 2 4 3l0 77c0 2-2 4-4 4l-283 0c-2 0-4-2-4-4z m-80-246l410 0c2 0 4 2 4 3l0 77c0 2-2 4-4 4l-410 0c-2 0-4-2-4-4l0-77c0-1 2-3 4-3z" horiz-adv-x="1000" />

<glyph glyph-name="align-justify" unicode="&#xe803;" d="M209 700l0-75c0-2 2-3 4-3l574 0c2 0 4 1 4 3l0 75c0 2-2 4-4 4l-574 0c-2 0-4-2-4-4z m0-166l0-77c0-1 2-3 4-3l574 0c2 0 4 2 4 3l0 77c0 2-2 4-4 4l-574 0c-2 0-4-2-4-4z m4-246l574 0c2 0 4 2 4 3l0 77c0 2-2 4-4 4l-574 0c-2 0-4-2-4-4l0-77c0-1 2-3 4-3z m578-163l0 75c0 2-2 4-4 4l-574 0c-2 0-4-2-4-4l0-75c0-2 2-3 4-3l574 0c2 0 4 1 4 3z" horiz-adv-x="1000" />

<glyph glyph-name="align-left" unicode="&#xe804;" d="M705 704l-576 0c-2 0-4-2-4-4l0-75c0-2 2-3 4-3l576 0c2 0 4 1 4 3l0 75c0 2-2 4-4 4z m-576-250l326 0c2 0 4 2 4 3l0 77c0 2-2 4-4 4l-326 0c-2 0-4-2-4-4l0-77c0-1 2-3 4-3z m0-166l492 0c2 0 4 2 4 3l0 77c0 2-2 4-4 4l-492 0c-2 0-4-2-4-4l0-77c0-1 2-3 4-3z m576-84l-576 0c-2 0-4-2-4-4l0-75c0-2 2-3 4-3l576 0c2 0 4 1 4 3l0 75c0 2-2 4-4 4z" horiz-adv-x="1000" />

<glyph glyph-name="align-right" unicode="&#xe805;" d="M291 700l0-75c0-2 2-3 4-3l576 0c2 0 4 1 4 3l0 75c0 2-2 4-4 4l-576 0c-2 0-4-2-4-4z m254-246l326 0c2 0 4 2 4 3l0 77c0 2-2 4-4 4l-326 0c-2 0-4-2-4-4l0-77c0-1 2-3 4-3z m-166-166l492 0c2 0 4 2 4 3l0 77c0 2-2 4-4 4l-492 0c-2 0-4-2-4-4l0-77c0-1 2-3 4-3z m-84-166l576 0c2 0 4 1 4 3l0 75c0 2-2 4-4 4l-576 0c-2 0-4-2-4-4l0-75c0-2 2-3 4-3z" horiz-adv-x="1000" />

<glyph glyph-name="align-middle" unicode="&#xe806;" d="M791 375l0 75c0 2-2 4-4 4l-574 0c-2 0-4-2-4-4l0-75c0-2 2-3 4-3l574 0c2 0 4 1 4 3z m-293-89l-158-159c0 0 0-2 0-4 0-1 2-1 4-1l111 0c2 0 4-2 4-4l0-118c0-2 2-4 4-4l74 0c2 0 4 2 4 4l0 118c0 2 2 4 4 4l111 0c4 0 6 3 4 5l-156 159c-2 0-6 0-8-2z m4 254l158 158c0 0 0 2 0 4 0 2-2 2-4 2l-111 0c-2 0-4 2-4 3l0 118c0 2-2 4-4 4l-74 0c-2 0-4-2-4-4l0-118c0-1-2-3-4-3l-111 0c-2 0-4 0-4-2-2-2 0-4 0-4l158-158c0 0 4 0 4 0z" horiz-adv-x="1000" />

<glyph glyph-name="align-top" unicode="&#xe807;" d="M502 618c0 2-4 2-6 0l-156-157c0-2-2-4 0-4 0-1 2-3 4-3l111 0c2 0 4-2 4-4l0-325c0-2 2-3 4-3l74 0c2 0 4 1 4 3l0 325c0 2 2 4 4 4l111 0c4 0 6 5 4 7z m285 170l-574 0c-2 0-4-2-4-4l0-77c0-1 2-3 4-3l574 0c2 0 4 2 4 3l0 77c0 2-2 4-4 4z" horiz-adv-x="1000" />

<glyph glyph-name="attachment" unicode="&#xe808;" d="M236 168c41-45 106-64 166-48 55 17 104 50 139 93l205 209c22 18 39 39 55 63 17 25 25 56 23 86-4 27-15 52-33 74-27 43-74 68-125 66-43-7-82-31-109-66l-223-223c-19-21-31-49-33-76 0-27 12-53 33-72 18-20 45-31 72-31 30 0 55 11 75 31l209 209-30 29-209-209c-11-12-27-19-45-19-15 0-31 7-43 19-13 12-19 28-19 45 0 16 6 33 19 43l221 221c22 29 51 49 86 56 35 0 66-19 88-46 12-16 21-36 23-55 0-22-6-43-17-61-14-21-30-39-47-56l-205-205c-31-39-72-69-119-84-73-14-145 29-166 101-30 82 39 153 99 211l186 186-30 29-187-186c-66-66-147-146-109-255 11-30 27-57 50-79z" horiz-adv-x="1000" />

<glyph glyph-name="attachment-add" unicode="&#xe809;" d="M393 174c-73-13-145 30-166 102-30 82 39 152 99 211l186 185-30 32-187-188c-66-64-147-144-109-256 11-29 27-54 50-76 41-47 106-64 166-51 38 12 71 32 100 59-6 15-8 33-10 49-27-30-60-53-99-67z m213 239l84 84-30 29-209-209c-10-12-27-20-43-20-17 0-33 8-45 20-11 12-19 27-19 43 0 17 8 33 19 45l221 224c22 28 51 47 86 57 35-4 66-21 86-51 14-15 23-35 25-56 0-22-6-43-17-61-14-20-30-39-47-55l-39-37c17 0 35-4 51-10l15 18c22 18 39 39 55 63 17 25 25 54 23 85-2 30-13 55-31 79-27 41-74 66-125 66-43-8-82-31-109-66l-223-223c-19-22-31-49-33-76 0-30 12-57 33-74 18-20 45-32 72-32 30 0 55 12 75 32l25 25c17 45 55 82 100 100z m68-18c-82 0-149-66-149-148 0-84 67-151 149-151 82 0 150 67 150 151 0 39-15 78-45 105-27 29-64 45-105 45z m76-166l-57 0 0-59-37 0 0 59-58 0 0 37 58 0 0 57 37 0 0-57 57 0z" horiz-adv-x="1000" />

<glyph glyph-name="attachment-remove-minus" unicode="&#xe80a;" d="M606 413l84 84-30 29-209-209c-10-12-27-20-43-20-17 0-33 8-45 20-11 12-19 27-19 43 0 17 8 33 19 45l221 224c22 28 51 47 86 57 35-4 66-21 86-51 14-15 23-35 25-56 0-22-6-43-17-61-14-20-30-39-47-55l-39-37c17 0 35-4 51-10l15 18c22 18 39 39 55 63 17 25 25 54 23 85-2 30-13 55-31 79-27 41-74 66-125 66-43-8-82-31-109-66l-223-223c-19-22-31-49-33-76 0-30 12-57 33-74 18-20 45-32 72-32 30 0 55 12 75 32l25 25c17 45 55 82 100 100z m-213-239c-73-13-145 30-166 102-30 82 39 152 99 211l186 185-30 32-187-188c-66-64-147-144-109-256 11-29 27-54 50-76 41-47 106-64 166-51 38 12 71 32 100 59-6 15-8 33-10 49-27-30-60-53-99-67z m281 223c-82 0-149-66-149-149 0-83 67-150 149-150 82 0 148 67 150 149 0 39-15 78-45 105-27 29-64 45-105 45z m58-168l-134 0 0 39 134 0z" horiz-adv-x="1000" />

<glyph glyph-name="attachment-remove-x" unicode="&#xe80b;" d="M606 413l84 84-30 29-209-209c-10-12-27-20-43-20-17 0-33 8-45 20-11 12-19 27-19 43 0 17 8 33 19 45l221 224c22 28 51 47 86 57 35-4 66-21 86-51 14-15 23-35 25-56 0-22-6-43-17-61-14-20-30-39-47-55l-39-37c17 0 35-4 51-10l15 18c22 18 39 39 55 63 17 25 25 54 23 85-2 30-13 55-31 79-27 41-74 66-125 66-43-8-82-31-109-66l-223-223c-19-22-31-49-33-76 0-30 12-57 33-74 18-20 45-32 72-32 30 0 55 12 75 32l25 25c17 45 55 82 100 100z m-213-239c-73-13-145 30-166 102-30 82 39 152 99 211l186 185-30 32-187-188c-66-64-147-144-109-256 11-29 27-54 50-76 41-47 106-64 166-51 38 12 71 32 100 59-6 15-8 33-10 49-27-30-60-53-99-67z m281 223c-82 0-149-66-149-149 0-83 67-150 149-150 82 0 148 67 150 149 0 39-15 78-45 105-27 29-64 45-105 45z m58-186l-27-27-35 37-37-37-27 27 37 36-37 37 27 27 37-37 35 37 27-27-37-37z" horiz-adv-x="1000" />

<glyph glyph-name="bin" unicode="&#xe80c;" d="M584 663l0 41-168 0 0-41-162 0c-2 0-4-2-4-4l0-77c0-1 2-3 4-3l492 0c2 0 4 2 4 3l0 77c0 2-2 4-4 4z m-289-541l410 0c2 0 4 1 4 3l0 368c0 2-2 4-4 4l-410 0c-2 0-4-2-4-4l0-368c0-2 2-3 4-3z" horiz-adv-x="1000" />

<glyph glyph-name="bullet-list" unicode="&#xe80d;" d="M416 700l0-75c0-2 2-3 4-3l367 0c2 0 4 1 4 3l0 75c0 2-2 4-4 4l-367 0c-2 0-4-2-4-4z m4-328l367 0c2 0 4 1 4 3l0 75c0 2-2 4-4 4l-367 0c-2 0-4-2-4-4l0-75c0-2 2-3 4-3z m0-250l367 0c2 0 4 1 4 3l0 75c0 2-2 4-4 4l-367 0c-2 0-4-2-4-4l0-75c0-2 2-3 4-3z m-170 625c-47 0-84-38-84-84 0-47 37-84 84-84 47 0 84 37 84 84 0 46-37 84-84 84z m0-250c-47 0-84-38-84-84 0-47 37-84 84-84 47 0 84 37 84 84 0 46-37 84-84 84z m0-250c-47 0-84-38-84-84 0-47 37-84 84-84 47 0 84 37 84 84 0 46-37 84-84 84z" horiz-adv-x="1000" />

<glyph glyph-name="calendar" unicode="&#xe80e;" d="M709 707l0 77c0 2-2 4-4 4l-76 0c-2 0-4-2-4-4l0-77c0-1-2-3-4-3l-242 0c-2 0-4 2-4 3l0 77c0 2-2 4-4 4l-76 0c-2 0-4-2-4-4l0-77c0-1-2-3-4-3l-158 0c-2 0-4-2-4-4l0-659c0-1 2-3 4-3l742 0c2 0 4 2 4 3l0 659c0 2-2 4-4 4l-158 0c-2 0-4 2-4 3z m78-585l-574 0c-2 0-4 1-4 3l0 450c0 2 2 4 4 4l78 0 0-41 84 0 0 41 250 0 0-41 84 0 0 41 78 0c2 0 4-2 4-4l0-450c0-2-2-3-4-3z m-492 207l76 0c2 0 4 2 4 3l0 77c0 2-2 4-4 4l-76 0c-2 0-4-2-4-4l0-77c0-1 2-3 4-3z m0-125l76 0c2 0 4 2 4 3l0 77c0 2-2 4-4 4l-76 0c-2 0-4-2-4-4l0-77c0-1 2-3 4-3z m168 125l74 0c2 0 4 2 4 3l0 77c0 2-2 4-4 4l-74 0c-2 0-4-2-4-4l0-77c0-1 2-3 4-3z m0-125l74 0c2 0 4 2 4 3l0 77c0 2-2 4-4 4l-74 0c-2 0-4-2-4-4l0-77c0-1 2-3 4-3z m166 125l76 0c2 0 4 2 4 3l0 77c0 2-2 4-4 4l-76 0c-2 0-4-2-4-4l0-77c0-1 2-3 4-3z m0-125l76 0c2 0 4 2 4 3l0 77c0 2-2 4-4 4l-76 0c-2 0-4-2-4-4l0-77c0-1 2-3 4-3z" horiz-adv-x="1000" />

<glyph glyph-name="bold" unicode="&#xe80f;" d="M303 700c0 2 2 4 4 4l216 0c69 0 108-6 143-28 37-21 61-64 61-109 0-51-22-86-69-111-4-2-4-6 0-6 57-32 82-71 82-129 0-53-19-96-56-123-36-26-73-35-151-35l-226 0c-2 0-4 2-4 3z m236-205c43 0 67 17 67 52 0 35-24 53-67 53l-111 0c-4 0-6-2-6-4l0-98c0-1 2-3 6-3z m-2-229c51 0 78 24 78 66 0 43-27 67-78 67l-109 0c-4 0-6-2-6-4l0-125c0-2 2-4 6-4l109 0z" horiz-adv-x="1000" />

<glyph glyph-name="border-all" unicode="&#xe810;" d="M125 784l0-743c0-1 2-3 4-3l742 0c2 0 4 2 4 3l0 743c0 2-2 4-4 4l-742 0c-2 0-4-2-4-4z m88-80l242 0c2 0 4-2 4-4l0-243c0-1-2-3-4-3l-242 0c-2 0-4 2-4 3l0 243c0 2 2 4 4 4z m-4-579l0 243c0 2 2 4 4 4l242 0c2 0 4-2 4-4l0-243c0-2-2-3-4-3l-242 0c-2 0-4 1-4 3z m578-3l-242 0c-2 0-4 1-4 3l0 243c0 2 2 4 4 4l242 0c2 0 4-2 4-4l0-243c0-2-2-3-4-3z m-246 335l0 243c0 2 2 4 4 4l242 0c2 0 4-2 4-4l0-243c0-1-2-3-4-3l-242 0c-2 0-4 2-4 3z" horiz-adv-x="1000" />

<glyph glyph-name="cancel-circle" unicode="&#xe811;" d="M500 743c-182 0-330-149-330-330 0-182 148-331 330-331 182 0 330 149 330 331 0 181-148 330-330 330z m191-463l-58-59-133 133-133-133-58 59 132 133-132 132 58 59 133-133 133 133 58-59-132-132z" horiz-adv-x="1000" />

<glyph glyph-name="caret-down" unicode="&#xe812;" d="M699 579l-402 0c0 0-2 0-4-2 0-2 0-2 0-4l201-321c2-2 2-2 4-2 2 0 2 0 4 2l201 319c2 2 2 4 2 6-2 2-4 4-6 4z" horiz-adv-x="1000" />

<glyph glyph-name="border-bottom" unicode="&#xe813;" d="M205 788l-76 0c-2 0-4-2-4-4l0-77c0-1 2-3 4-3l76 0c2 0 4 2 4 3l0 77c0 2-2 4-4 4z m0-166l-76 0c-2 0-4-2-4-4l0-77c0-1 2-3 4-3l76 0c2 0 4 2 4 3l0 77c0 2-2 4-4 4z m0-334l-76 0c-2 0-4-2-4-4l0-77c0-1 2-3 4-3l76 0c2 0 4 2 4 3l0 77c0 2-2 4-4 4z m-76-250l742 0c2 0 4 2 4 3l0 77c0 2-2 4-4 4l-742 0c-2 0-4-2-4-4l0-77c0-1 2-3 4-3z m242 750l-76 0c-2 0-4-2-4-4l0-77c0-1 2-3 4-3l76 0c2 0 4 2 4 3l0 77c0 2-2 4-4 4z m166 0l-74 0c-2 0-4-2-4-4l0-77c0-1 2-3 4-3l74 0c2 0 4 2 4 3l0 77c0 2-2 4-4 4z m0-166l-74 0c-2 0-4-2-4-4l0-77c0-1 2-3 4-3l74 0c2 0 4 2 4 3l0 77c0 2-2 4-4 4z m0-334l-74 0c-2 0-4-2-4-4l0-77c0-1 2-3 4-3l74 0c2 0 4 2 4 3l0 77c0 2-2 4-4 4z m258-84l76 0c2 0 4 2 4 3l0 77c0 2-2 4-4 4l-76 0c-2 0-4-2-4-4l0-77c0-1 2-3 4-3z m-258 250l-74 0c-2 0-4-2-4-4l0-75c0-2 2-3 4-3l74 0c2 0 4 1 4 3l0 75c0 2-2 4-4 4z m168 334l-76 0c-2 0-4-2-4-4l0-77c0-1 2-3 4-3l76 0c2 0 4 2 4 3l0 77c0 2-2 4-4 4z m86-4l0-77c0-1 2-3 4-3l76 0c2 0 4 2 4 3l0 77c0 2-2 4-4 4l-76 0c-2 0-4-2-4-4z m4-246l76 0c2 0 4 2 4 3l0 77c0 2-2 4-4 4l-76 0c-2 0-4-2-4-4l0-77c0-1 2-3 4-3z m-590-84l-76 0c-2 0-4-2-4-4l0-75c0-2 2-3 4-3l76 0c2 0 4 1 4 3l0 75c0 2-2 4-4 4z m166 0l-76 0c-2 0-4-2-4-4l0-75c0-2 2-3 4-3l76 0c2 0 4 1 4 3l0 75c0 2-2 4-4 4z m334 0l-76 0c-2 0-4-2-4-4l0-75c0-2 2-3 4-3l76 0c2 0 4 1 4 3l0 75c0 2-2 4-4 4z m90-82l76 0c2 0 4 1 4 3l0 75c0 2-2 4-4 4l-76 0c-2 0-4-2-4-4l0-75c0-2 2-3 4-3z" horiz-adv-x="1000" />

<glyph glyph-name="border-color" unicode="&#xe814;" d="M125 118l0-77c0-1 2-3 4-3l742 0c2 0 4 2 4 3l0 77c0 2-2 4-4 4l-742 0c-2 0-4-2-4-4z m395 203c2-2 3-2 5 0l331 330c1 2 1 4 0 6l-112 111c-2 2-4 2-6 0l-330-330c-2-2-2-4 0-6l112-111z m-223-117l152 0c10 0 16 11 8 19l-146 145c-8 7-20 2-20-8l0-153c0-1 2-3 6-3z" horiz-adv-x="1000" />

<glyph glyph-name="caret-left" unicode="&#xe815;" d="M662 211l0 403c0 2 0 2-2 4-2 0-2 0-4 0l-320-202c-2-1-2-1-2-3 0-2 0-2 2-4l320-202c2 0 2 0 4 0 2 2 2 2 2 4z" horiz-adv-x="1000" />

<glyph glyph-name="border-inside" unicode="&#xe816;" d="M537 788l-74 0c-2 0-4-2-4-4l0-327c0-1-2-3-4-3l-326 0c-2 0-4-2-4-4l0-75c0-2 2-3 4-3l326 0c2 0 4-2 4-4l0-327c0-1 2-3 4-3l74 0c2 0 4 2 4 3l0 327c0 2 2 4 4 4l326 0c2 0 4 1 4 3l0 75c0 2-2 4-4 4l-326 0c-2 0-4 2-4 3l0 327c0 2-2 4-4 4z m-332 0l-76 0c-2 0-4-2-4-4l0-77c0-1 2-3 4-3l76 0c2 0 4 2 4 3l0 77c0 2-2 4-4 4z m0-166l-76 0c-2 0-4-2-4-4l0-77c0-1 2-3 4-3l76 0c2 0 4 2 4 3l0 77c0 2-2 4-4 4z m166 166l-76 0c-2 0-4-2-4-4l0-77c0-1 2-3 4-3l76 0c2 0 4 2 4 3l0 77c0 2-2 4-4 4z m334 0l-76 0c-2 0-4-2-4-4l0-77c0-1 2-3 4-3l76 0c2 0 4 2 4 3l0 77c0 2-2 4-4 4z m86-4l0-77c0-1 2-3 4-3l76 0c2 0 4 2 4 3l0 77c0 2-2 4-4 4l-76 0c-2 0-4-2-4-4z m4-246l76 0c2 0 4 2 4 3l0 77c0 2-2 4-4 4l-76 0c-2 0-4-2-4-4l0-77c0-1 2-3 4-3z m0-500l76 0c2 0 4 2 4 3l0 77c0 2-2 4-4 4l-76 0c-2 0-4-2-4-4l0-77c0-1 2-3 4-3z m0 166l76 0c2 0 4 2 4 3l0 77c0 2-2 4-4 4l-76 0c-2 0-4-2-4-4l0-77c0-1 2-3 4-3z m-166-166l76 0c2 0 4 2 4 3l0 77c0 2-2 4-4 4l-76 0c-2 0-4-2-4-4l0-77c0-1 2-3 4-3z m-334 0l76 0c2 0 4 2 4 3l0 77c0 2-2 4-4 4l-76 0c-2 0-4-2-4-4l0-77c0-1 2-3 4-3z m-166 0l76 0c2 0 4 2 4 3l0 77c0 2-2 4-4 4l-76 0c-2 0-4-2-4-4l0-77c0-1 2-3 4-3z m0 166l76 0c2 0 4 2 4 3l0 77c0 2-2 4-4 4l-76 0c-2 0-4-2-4-4l0-77c0-1 2-3 4-3z" horiz-adv-x="1000" />

<glyph glyph-name="caret-right" unicode="&#xe817;" d="M334 614l0-403c0-2 0-2 2-4 0 0 2 0 4 0l320 202c2 2 2 2 2 4 0 2 0 2-2 3l-320 202c-2 2-6-2-6-4z" horiz-adv-x="1000" />

<glyph glyph-name="caret-up" unicode="&#xe818;" d="M297 247l402 0c2 0 2 0 4 1 0 2 0 2 0 4l-203 323c0 2-2 2-4 2-2 0-2 0-4-2l-199-321c-2-2-2-4-2-6 2-1 4-3 6-1z" horiz-adv-x="1000" />

<glyph glyph-name="border-left" unicode="&#xe819;" d="M791 784l0-77c0-1 2-3 4-3l76 0c2 0 4 2 4 3l0 77c0 2-2 4-4 4l-76 0c-2 0-4-2-4-4z m-162-80l76 0c2 0 4 2 4 3l0 77c0 2-2 4-4 4l-76 0c-2 0-4-2-4-4l0-77c0-1 2-3 4-3z m-334 0l76 0c2 0 4 2 4 3l0 77c0 2-2 4-4 4l-76 0c-2 0-4-2-4-4l0-77c0-1 2-3 4-3z m-166-666l76 0c2 0 4 2 4 3l0 743c0 2-2 4-4 4l-76 0c-2 0-4-2-4-4l0-743c0-1 2-3 4-3z m666 500l76 0c2 0 4 2 4 3l0 77c0 2-2 4-4 4l-76 0c-2 0-4-2-4-4l0-77c0-1 2-3 4-3z m0-166l76 0c2 0 4 1 4 3l0 75c0 2-2 4-4 4l-76 0c-2 0-4-2-4-4l0-75c0-2 2-3 4-3z m-166 0l76 0c2 0 4 1 4 3l0 75c0 2-2 4-4 4l-76 0c-2 0-4-2-4-4l0-75c0-2 2-3 4-3z m-334 0l76 0c2 0 4 1 4 3l0 75c0 2-2 4-4 4l-76 0c-2 0-4-2-4-4l0-75c0-2 2-3 4-3z m0-334l76 0c2 0 4 2 4 3l0 77c0 2-2 4-4 4l-76 0c-2 0-4-2-4-4l0-77c0-1 2-3 4-3z m168 334l74 0c2 0 4 1 4 3l0 75c0 2-2 4-4 4l-74 0c-2 0-4-2-4-4l0-75c0-2 2-3 4-3z m332-168l76 0c2 0 4 2 4 3l0 77c0 2-2 4-4 4l-76 0c-2 0-4-2-4-4l0-77c0-1 2-3 4-3z m0-166l76 0c2 0 4 2 4 3l0 77c0 2-2 4-4 4l-76 0c-2 0-4-2-4-4l0-77c0-1 2-3 4-3z m-166 0l76 0c2 0 4 2 4 3l0 77c0 2-2 4-4 4l-76 0c-2 0-4-2-4-4l0-77c0-1 2-3 4-3z m-166 666l74 0c2 0 4 2 4 3l0 77c0 2-2 4-4 4l-74 0c-2 0-4-2-4-4l0-77c0-1 2-3 4-3z m0-166l74 0c2 0 4 2 4 3l0 77c0 2-2 4-4 4l-74 0c-2 0-4-2-4-4l0-77c0-1 2-3 4-3z m0-334l74 0c2 0 4 2 4 3l0 77c0 2-2 4-4 4l-74 0c-2 0-4-2-4-4l0-77c0-1 2-3 4-3z m0-166l74 0c2 0 4 2 4 3l0 77c0 2-2 4-4 4l-74 0c-2 0-4-2-4-4l0-77c0-1 2-3 4-3z" horiz-adv-x="1000" />

<glyph glyph-name="border-middle-horizontal" unicode="&#xe81a;" d="M205 788l-76 0c-2 0-4-2-4-4l0-77c0-1 2-3 4-3l76 0c2 0 4 2 4 3l0 77c0 2-2 4-4 4z m0-166l-76 0c-2 0-4-2-4-4l0-77c0-1 2-3 4-3l76 0c2 0 4 2 4 3l0 77c0 2-2 4-4 4z m-76-250l742 0c2 0 4 1 4 3l0 75c0 2-2 4-4 4l-742 0c-2 0-4-2-4-4l0-75c0-2 2-3 4-3z m242 416l-76 0c-2 0-4-2-4-4l0-77c0-1 2-3 4-3l76 0c2 0 4 2 4 3l0 77c0 2-2 4-4 4z m166 0l-74 0c-2 0-4-2-4-4l0-77c0-1 2-3 4-3l74 0c2 0 4 2 4 3l0 77c0 2-2 4-4 4z m0-166l-74 0c-2 0-4-2-4-4l0-77c0-1 2-3 4-3l74 0c2 0 4 2 4 3l0 77c0 2-2 4-4 4z m-74-418l74 0c2 0 4 2 4 3l0 77c0 2-2 4-4 4l-74 0c-2 0-4-2-4-4l0-77c0-1 2-3 4-3z m242 584l-76 0c-2 0-4-2-4-4l0-77c0-1 2-3 4-3l76 0c2 0 4 2 4 3l0 77c0 2-2 4-4 4z m86-4l0-77c0-1 2-3 4-3l76 0c2 0 4 2 4 3l0 77c0 2-2 4-4 4l-76 0c-2 0-4-2-4-4z m4-246l76 0c2 0 4 2 4 3l0 77c0 2-2 4-4 4l-76 0c-2 0-4-2-4-4l0-77c0-1 2-3 4-3z m-666-500l76 0c2 0 4 2 4 3l0 77c0 2-2 4-4 4l-76 0c-2 0-4-2-4-4l0-77c0-1 2-3 4-3z m0 166l76 0c2 0 4 2 4 3l0 77c0 2-2 4-4 4l-76 0c-2 0-4-2-4-4l0-77c0-1 2-3 4-3z m166-166l76 0c2 0 4 2 4 3l0 77c0 2-2 4-4 4l-76 0c-2 0-4-2-4-4l0-77c0-1 2-3 4-3z m168 0l74 0c2 0 4 2 4 3l0 77c0 2-2 4-4 4l-74 0c-2 0-4-2-4-4l0-77c0-1 2-3 4-3z m166 0l76 0c2 0 4 2 4 3l0 77c0 2-2 4-4 4l-76 0c-2 0-4-2-4-4l0-77c0-1 2-3 4-3z m166 0l76 0c2 0 4 2 4 3l0 77c0 2-2 4-4 4l-76 0c-2 0-4-2-4-4l0-77c0-1 2-3 4-3z m0 166l76 0c2 0 4 2 4 3l0 77c0 2-2 4-4 4l-76 0c-2 0-4-2-4-4l0-77c0-1 2-3 4-3z" horiz-adv-x="1000" />

<glyph glyph-name="carret-up-down" unicode="&#xe81b;" d="M699 372l-402 0c0 0-2-2-4-2 0-2 0-4 0-6l201-321c2 0 2-2 4-2 2 0 2 2 4 2l201 321c0 2 0 4 0 6-2 0-2 2-4 2z m-402 82l402 0c2 0 2 2 4 2 0 1 0 3 0 5l-203 321c0 2-2 2-4 2-2 0-2 0-4-2l-199-321c0-2 0-4 0-4 2-1 4-1 4-1z" horiz-adv-x="1000" />

<glyph glyph-name="chart" unicode="&#xe81c;" d="M463 370l322 0c2 0 4-2 4-4-4-207-209-325-402-274-115 31-192 121-215 237-18 91 6 187 66 259 57 69 123 112 215 114 2 0 4-2 4-4l2-325c0-1 0-3 4-3z m78 89l0 317c0 2 2 4 6 4 168-2 328-157 328-324l-330 0c-2 0-4 1-4 3z" horiz-adv-x="1000" />

<glyph glyph-name="border-middle-vertical" unicode="&#xe81d;" d="M791 784l0-77c0-1 2-3 4-3l76 0c2 0 4 2 4 3l0 77c0 2-2 4-4 4l-76 0c-2 0-4-2-4-4z m-162-80l76 0c2 0 4 2 4 3l0 77c0 2-2 4-4 4l-76 0c-2 0-4-2-4-4l0-77c0-1 2-3 4-3z m-166-666l74 0c2 0 4 2 4 3l0 743c0 2-2 4-4 4l-74 0c-2 0-4-2-4-4l0-743c0-1 2-3 4-3z m332 500l76 0c2 0 4 2 4 3l0 77c0 2-2 4-4 4l-76 0c-2 0-4-2-4-4l0-77c0-1 2-3 4-3z m0-166l76 0c2 0 4 1 4 3l0 75c0 2-2 4-4 4l-76 0c-2 0-4-2-4-4l0-75c0-2 2-3 4-3z m-166 0l76 0c2 0 4 1 4 3l0 75c0 2-2 4-4 4l-76 0c-2 0-4-2-4-4l0-75c0-2 2-3 4-3z m-334 0l76 0c2 0 4 1 4 3l0 75c0 2-2 4-4 4l-76 0c-2 0-4-2-4-4l0-75c0-2 2-3 4-3z m500-168l76 0c2 0 4 2 4 3l0 77c0 2-2 4-4 4l-76 0c-2 0-4-2-4-4l0-77c0-1 2-3 4-3z m0-166l76 0c2 0 4 2 4 3l0 77c0 2-2 4-4 4l-76 0c-2 0-4-2-4-4l0-77c0-1 2-3 4-3z m-166 0l76 0c2 0 4 2 4 3l0 77c0 2-2 4-4 4l-76 0c-2 0-4-2-4-4l0-77c0-1 2-3 4-3z m-500 666l76 0c2 0 4 2 4 3l0 77c0 2-2 4-4 4l-76 0c-2 0-4-2-4-4l0-77c0-1 2-3 4-3z m166 0l76 0c2 0 4 2 4 3l0 77c0 2-2 4-4 4l-76 0c-2 0-4-2-4-4l0-77c0-1 2-3 4-3z m-166-166l76 0c2 0 4 2 4 3l0 77c0 2-2 4-4 4l-76 0c-2 0-4-2-4-4l0-77c0-1 2-3 4-3z m0-166l76 0c2 0 4 1 4 3l0 75c0 2-2 4-4 4l-76 0c-2 0-4-2-4-4l0-75c0-2 2-3 4-3z m0-168l76 0c2 0 4 2 4 3l0 77c0 2-2 4-4 4l-76 0c-2 0-4-2-4-4l0-77c0-1 2-3 4-3z m0-166l76 0c2 0 4 2 4 3l0 77c0 2-2 4-4 4l-76 0c-2 0-4-2-4-4l0-77c0-1 2-3 4-3z m166 0l76 0c2 0 4 2 4 3l0 77c0 2-2 4-4 4l-76 0c-2 0-4-2-4-4l0-77c0-1 2-3 4-3z" horiz-adv-x="1000" />

<glyph glyph-name="border-none" unicode="&#xe81e;" d="M129 704l76 0c2 0 4 2 4 3l0 77c0 2-2 4-4 4l-76 0c-2 0-4-2-4-4l0-77c0-1 2-3 4-3z m0-166l76 0c2 0 4 2 4 3l0 77c0 2-2 4-4 4l-76 0c-2 0-4-2-4-4l0-77c0-1 2-3 4-3z m0-334l76 0c2 0 4 2 4 3l0 77c0 2-2 4-4 4l-76 0c-2 0-4-2-4-4l0-77c0-1 2-3 4-3z m166 500l76 0c2 0 4 2 4 3l0 77c0 2-2 4-4 4l-76 0c-2 0-4-2-4-4l0-77c0-1 2-3 4-3z m168 0l74 0c2 0 4 2 4 3l0 77c0 2-2 4-4 4l-74 0c-2 0-4-2-4-4l0-77c0-1 2-3 4-3z m0-166l74 0c2 0 4 2 4 3l0 77c0 2-2 4-4 4l-74 0c-2 0-4-2-4-4l0-77c0-1 2-3 4-3z m0-334l74 0c2 0 4 2 4 3l0 77c0 2-2 4-4 4l-74 0c-2 0-4-2-4-4l0-77c0-1 2-3 4-3z m332 0l76 0c2 0 4 2 4 3l0 77c0 2-2 4-4 4l-76 0c-2 0-4-2-4-4l0-77c0-1 2-3 4-3z m0-166l76 0c2 0 4 2 4 3l0 77c0 2-2 4-4 4l-76 0c-2 0-4-2-4-4l0-77c0-1 2-3 4-3z m-166 0l76 0c2 0 4 2 4 3l0 77c0 2-2 4-4 4l-76 0c-2 0-4-2-4-4l0-77c0-1 2-3 4-3z m-166 0l74 0c2 0 4 2 4 3l0 77c0 2-2 4-4 4l-74 0c-2 0-4-2-4-4l0-77c0-1 2-3 4-3z m-168 0l76 0c2 0 4 2 4 3l0 77c0 2-2 4-4 4l-76 0c-2 0-4-2-4-4l0-77c0-1 2-3 4-3z m-166 0l76 0c2 0 4 2 4 3l0 77c0 2-2 4-4 4l-76 0c-2 0-4-2-4-4l0-77c0-1 2-3 4-3z m334 334l74 0c2 0 4 1 4 3l0 75c0 2-2 4-4 4l-74 0c-2 0-4-2-4-4l0-75c0-2 2-3 4-3z m166 332l76 0c2 0 4 2 4 3l0 77c0 2-2 4-4 4l-76 0c-2 0-4-2-4-4l0-77c0-1 2-3 4-3z m162 80l0-77c0-1 2-3 4-3l76 0c2 0 4 2 4 3l0 77c0 2-2 4-4 4l-76 0c-2 0-4-2-4-4z m4-246l76 0c2 0 4 2 4 3l0 77c0 2-2 4-4 4l-76 0c-2 0-4-2-4-4l0-77c0-1 2-3 4-3z m-666-166l76 0c2 0 4 1 4 3l0 75c0 2-2 4-4 4l-76 0c-2 0-4-2-4-4l0-75c0-2 2-3 4-3z m166 0l76 0c2 0 4 1 4 3l0 75c0 2-2 4-4 4l-76 0c-2 0-4-2-4-4l0-75c0-2 2-3 4-3z m334 0l76 0c2 0 4 1 4 3l0 75c0 2-2 4-4 4l-76 0c-2 0-4-2-4-4l0-75c0-2 2-3 4-3z m166 0l76 0c2 0 4 1 4 3l0 75c0 2-2 4-4 4l-76 0c-2 0-4-2-4-4l0-75c0-2 2-3 4-3z" horiz-adv-x="1000" />

<glyph glyph-name="checkbox-checked" unicode="&#xe81f;" d="M455 207l-195 178c0 0 0 2 0 4 0 0 0 2 0 2l51 55c2 2 4 2 5 0l137-117c0 0 2-2 2-2 2 0 4 2 4 2l217 236c2 0 6 0 8 0l52-53c2-2 2-6 0-6l-273-299c-2 0-2-1-4-1-2 0-2 0-4 1z m332 497l-574 0c-2 0-2 0-4 0 0-2 0-2 0-4l0-575c0-2 0-2 0-3 2 0 2 0 4 0l574 0c2 0 2 0 4 0 0 1 0 1 0 3l0 575c0 2 0 2 0 4-2 0-2 0-4 0z m47-622c0-1-2-3-6-3l-658 0c-2 0-4 2-4 3l0 661c0 0 0 2 2 2 0 2 2 2 2 2l660 0c2 0 4-2 4-6z" horiz-adv-x="1000" />

<glyph glyph-name="checkbox-unchecked" unicode="&#xe820;" d="M787 704l-574 0c-2 0-2 0-4 0 0-2 0-2 0-4l0-575c0-2 0-2 0-3 2 0 2 0 4 0l574 0c2 0 2 0 4 0 0 1 0 1 0 3l0 575c0 2 0 2 0 4-2 0-2 0-4 0z m47-622c0-1-2-3-6-3l-658 0c-2 0-4 2-4 3l0 661c0 0 0 2 2 2 0 2 2 2 4 2l658 0c2 0 4-2 4-6z" horiz-adv-x="1000" />

<glyph glyph-name="border-outline" unicode="&#xe821;" d="M537 622l-74 0c-2 0-4-2-4-4l0-77c0-1 2-3 4-3l74 0c2 0 4 2 4 3l0 77c0 2-2 4-4 4z m168-168l-76 0c-2 0-4-2-4-4l0-75c0-2 2-3 4-3l76 0c2 0 4 1 4 3l0 75c0 2-2 4-4 4z m-168 0l-74 0c-2 0-4-2-4-4l0-75c0-2 2-3 4-3l74 0c2 0 4 1 4 3l0 75c0 2-2 4-4 4z m0-166l-74 0c-2 0-4-2-4-4l0-77c0-1 2-3 4-3l74 0c2 0 4 2 4 3l0 77c0 2-2 4-4 4z m-412 496l0-743c0-1 2-3 4-3l742 0c2 0 4 2 4 3l0 743c0 2-2 4-4 4l-742 0c-2 0-4-2-4-4z m662-662l-574 0c-2 0-4 1-4 3l0 575c0 2 2 4 4 4l574 0c2 0 4-2 4-4l0-575c0-2-2-3-4-3z m-416 332l-76 0c-2 0-4-2-4-4l0-75c0-2 2-3 4-3l76 0c2 0 4 1 4 3l0 75c0 2-2 4-4 4z" horiz-adv-x="1000" />

<glyph glyph-name="border-right" unicode="&#xe822;" d="M129 38l76 0c2 0 4 2 4 3l0 77c0 2-2 4-4 4l-76 0c-2 0-4-2-4-4l0-77c0-1 2-3 4-3z m166 0l76 0c2 0 4 2 4 3l0 77c0 2-2 4-4 4l-76 0c-2 0-4-2-4-4l0-77c0-1 2-3 4-3z m334 0l76 0c2 0 4 2 4 3l0 77c0 2-2 4-4 4l-76 0c-2 0-4-2-4-4l0-77c0-1 2-3 4-3z m162 746l0-743c0-1 2-3 4-3l76 0c2 0 4 2 4 3l0 743c0 2-2 4-4 4l-76 0c-2 0-4-2-4-4z m-662-580l76 0c2 0 4 2 4 3l0 77c0 2-2 4-4 4l-76 0c-2 0-4-2-4-4l0-77c0-1 2-3 4-3z m0 168l76 0c2 0 4 1 4 3l0 75c0 2-2 4-4 4l-76 0c-2 0-4-2-4-4l0-75c0-2 2-3 4-3z m166 0l76 0c2 0 4 1 4 3l0 75c0 2-2 4-4 4l-76 0c-2 0-4-2-4-4l0-75c0-2 2-3 4-3z m334 0l76 0c2 0 4 1 4 3l0 75c0 2-2 4-4 4l-76 0c-2 0-4-2-4-4l0-75c0-2 2-3 4-3z m0 332l76 0c2 0 4 2 4 3l0 77c0 2-2 4-4 4l-76 0c-2 0-4-2-4-4l0-77c0-1 2-3 4-3z m-166-332l74 0c2 0 4 1 4 3l0 75c0 2-2 4-4 4l-74 0c-2 0-4-2-4-4l0-75c0-2 2-3 4-3z m-334 166l76 0c2 0 4 2 4 3l0 77c0 2-2 4-4 4l-76 0c-2 0-4-2-4-4l0-77c0-1 2-3 4-3z m0 166l76 0c2 0 4 2 4 3l0 77c0 2-2 4-4 4l-76 0c-2 0-4-2-4-4l0-77c0-1 2-3 4-3z m166 0l76 0c2 0 4 2 4 3l0 77c0 2-2 4-4 4l-76 0c-2 0-4-2-4-4l0-77c0-1 2-3 4-3z m168-666l74 0c2 0 4 2 4 3l0 77c0 2-2 4-4 4l-74 0c-2 0-4-2-4-4l0-77c0-1 2-3 4-3z m0 166l74 0c2 0 4 2 4 3l0 77c0 2-2 4-4 4l-74 0c-2 0-4-2-4-4l0-77c0-1 2-3 4-3z m0 334l74 0c2 0 4 2 4 3l0 77c0 2-2 4-4 4l-74 0c-2 0-4-2-4-4l0-77c0-1 2-3 4-3z m0 166l74 0c2 0 4 2 4 3l0 77c0 2-2 4-4 4l-74 0c-2 0-4-2-4-4l0-77c0-1 2-3 4-3z" horiz-adv-x="1000" />

<glyph glyph-name="chevron-down" unicode="&#xe823;" d="M514 165l369 371c2 0 2 4 0 4l-119 121c-2 0-4 0-6 0l-244-246c-2 0-4 0-6 0l-244 246c-2 0-4 0-6 0l-119-121c-2 0-2-4 0-4l369-371c2 0 4 0 6 0z" horiz-adv-x="1000" />

<glyph glyph-name="chevron-left" unicode="&#xe824;" d="M264 411l369-371c2 0 4 0 6 0l119 121c2 0 2 4 0 4l-244 246c-2 0-2 4 0 4l244 246c2 0 2 4 0 4l-119 121c-2 0-4 0-6 0l-369-371c-2 0-2-4 0-4z" horiz-adv-x="1000" />

<glyph glyph-name="border-top" unicode="&#xe825;" d="M795 38l76 0c2 0 4 2 4 3l0 77c0 2-2 4-4 4l-76 0c-2 0-4-2-4-4l0-77c0-1 2-3 4-3z m0 166l76 0c2 0 4 2 4 3l0 77c0 2-2 4-4 4l-76 0c-2 0-4-2-4-4l0-77c0-1 2-3 4-3z m0 334l76 0c2 0 4 2 4 3l0 77c0 2-2 4-4 4l-76 0c-2 0-4-2-4-4l0-77c0-1 2-3 4-3z m-670 246l0-77c0-1 2-3 4-3l742 0c2 0 4 2 4 3l0 77c0 2-2 4-4 4l-742 0c-2 0-4-2-4-4z m504-746l76 0c2 0 4 2 4 3l0 77c0 2-2 4-4 4l-76 0c-2 0-4-2-4-4l0-77c0-1 2-3 4-3z m-166 0l74 0c2 0 4 2 4 3l0 77c0 2-2 4-4 4l-74 0c-2 0-4-2-4-4l0-77c0-1 2-3 4-3z m0 166l74 0c2 0 4 2 4 3l0 77c0 2-2 4-4 4l-74 0c-2 0-4-2-4-4l0-77c0-1 2-3 4-3z m0 334l74 0c2 0 4 2 4 3l0 77c0 2-2 4-4 4l-74 0c-2 0-4-2-4-4l0-77c0-1 2-3 4-3z m-334 0l76 0c2 0 4 2 4 3l0 77c0 2-2 4-4 4l-76 0c-2 0-4-2-4-4l0-77c0-1 2-3 4-3z m334-166l74 0c2 0 4 1 4 3l0 75c0 2-2 4-4 4l-74 0c-2 0-4-2-4-4l0-75c0-2 2-3 4-3z m-168-334l76 0c2 0 4 2 4 3l0 77c0 2-2 4-4 4l-76 0c-2 0-4-2-4-4l0-77c0-1 2-3 4-3z m-166 0l76 0c2 0 4 2 4 3l0 77c0 2-2 4-4 4l-76 0c-2 0-4-2-4-4l0-77c0-1 2-3 4-3z m0 166l76 0c2 0 4 2 4 3l0 77c0 2-2 4-4 4l-76 0c-2 0-4-2-4-4l0-77c0-1 2-3 4-3z m666 168l76 0c2 0 4 1 4 3l0 75c0 2-2 4-4 4l-76 0c-2 0-4-2-4-4l0-75c0-2 2-3 4-3z m-166 0l76 0c2 0 4 1 4 3l0 75c0 2-2 4-4 4l-76 0c-2 0-4-2-4-4l0-75c0-2 2-3 4-3z m-334 0l76 0c2 0 4 1 4 3l0 75c0 2-2 4-4 4l-76 0c-2 0-4-2-4-4l0-75c0-2 2-3 4-3z m-166 0l76 0c2 0 4 1 4 3l0 75c0 2-2 4-4 4l-76 0c-2 0-4-2-4-4l0-75c0-2 2-3 4-3z" horiz-adv-x="1000" />

<glyph glyph-name="collaborate" unicode="&#xe826;" d="M699 409l-127 0c-41 0-80-22-103-55-2 0-2-2-4-2l-143 0c-84 0-152-66-154-150l-2 0 0-4 0-2 2-112c0-2 2-3 4-3l459 0c4 0 6 1 6 3l-2 112c0 86-70 156-156 156l43 0c31 0 60-10 85-25 28-20 49-53 51-88 0-2 2-4 4-4l168 0c2 0 4 2 4 4l0 35c0 72-61 135-135 135z m-324 4c92 0 166 74 166 166 0 91-74 168-166 168-92 0-166-77-166-168 0-92 74-166 166-166z m250 41c68 0 125 56 125 125 0 70-57 125-125 125-25 0-49-6-70-22 19-31 29-66 29-103 0-36-10-73-29-104 21-14 45-21 70-21z" horiz-adv-x="1000" />

<glyph glyph-name="coins" unicode="&#xe827;" d="M621 532c-121 0-219-98-219-219 0-119 98-219 219-219 121 0 219 100 219 219 0 121-98 219-219 219z m10-332l0-30-20 0 0 30c-50 2-82 29-84 72l49 0c0-20 12-31 35-33l0 56c-11 4-23 6-35 10-27 8-45 31-45 59 0 37 32 64 80 68l0 22 20 0 0-24c39 2 74-27 78-66l-49 0c-2 15-13 27-29 29l0-53c14-4 25-6 35-11 27-6 47-32 47-59 0-37-29-66-82-70z m-47 170c0-14 8-22 29-26l0 47c-6 0-9 0-13-2-8-2-16-12-16-21z m47-79l0-50c19 0 33 11 33 25 0 14-10 22-33 25z m-178 315c160 0 291 27 291 62 0 34-131 63-291 63-162 0-293-29-293-63 0-35 133-62 293-62z m-293 0l0-84c86-27 174-41 264-41 80 92 213 117 320 59l0 66c-94-31-193-45-291-43-99-2-197 12-293 43z m203-289c-70 4-138 17-203 39l0-84c69-24 141-35 215-39-10 27-14 55-14 84z m-203 80c67-22 137-35 209-39 4 29 14 58 29 84-80 2-160 17-236 41z" horiz-adv-x="1000" />

<glyph glyph-name="code" unicode="&#xe828;" d="M363 668l-248-248c0-2 0-4 0-5l248-247c2-2 4-2 6 0l53 53c2 2 2 4 0 6l-188 188c-2 1-2 3 0 5l188 190c2 2 2 4 0 6l-53 52c-2 2-4 2-6 0z m264 0l-53-52c-2-2-2-4 0-6l190-190c0-2 0-4 0-5l-190-188c-2-2-2-4 0-6l53-53c2-2 4-2 6 0l248 247c2 1 2 3 0 5l-248 248c-2 2-4 2-6 0z" horiz-adv-x="1000" />

<glyph glyph-name="cloud-upload" unicode="&#xe829;" d="M709 498c-12 0-23-1-33-3-28 84-102 140-190 146-86 4-168-47-201-127-15-2-31-6-47-10-41-19-74-54-86-97-15-49-7-102 18-145 25-39 66-66 113-74 20-4 39-6 59-4l342 0c68-2 131 37 158 98 10 23 15 47 14 70 0 39-16 76-43 104-28 27-65 42-104 42z m94-199c-22-47-71-76-121-74l-334 0c-18 0-37 0-57 2-35 8-66 29-86 63-17 31-21 70-10 105 8 31 32 57 63 70 14 6 29 8 43 8l15 0 6 14c26 72 94 117 170 111 74-4 137-60 151-133l4-25 23 10c14 6 27 7 43 7 57 0 103-46 103-103 0-20-3-37-13-53z m-344-11l41 0 0 125 63 0-84 84-82-84 62 0z" horiz-adv-x="1000" />

<glyph glyph-name="cloud-download" unicode="&#xe82a;" d="M709 498c-12 0-23-1-33-3-28 84-102 140-190 146-86 4-168-47-201-127-15-2-31-6-47-10-41-19-74-54-86-97-15-49-7-102 18-145 25-39 66-66 113-74 20-4 39-6 59-4l342 0c68-2 131 37 158 98 10 23 15 47 14 70 0 39-16 76-43 104-28 27-65 42-104 42z m94-199c-22-47-71-76-121-74l-334 0c-18 0-37 0-57 2-35 8-66 29-86 63-17 31-21 70-10 105 8 31 32 57 63 70 14 6 29 8 43 8l15 0 6 14c26 72 94 117 170 111 74-4 137-60 151-133l4-25 23 10c14 6 27 7 43 7 57 0 103-46 103-103 0-20-3-37-13-53z m-303 198l-41 0 0-125-64 0 82-84 84 84-61 0z" horiz-adv-x="1000" />

<glyph glyph-name="cloud" unicode="&#xe82b;" d="M709 498c-12 0-23-1-33-3-28 84-102 140-190 146-86 4-168-47-201-127-15-2-31-6-47-10-41-19-74-54-86-97-15-49-7-102 18-145 25-39 66-66 113-74 20-4 39-6 59-4l342 0c68-2 131 37 158 98 10 23 15 47 14 70 0 39-16 76-43 104-28 27-65 42-104 42z m94-199c-22-47-71-76-121-74l-334 0c-18 0-37 0-57 2-35 8-66 29-86 63-17 31-21 70-10 105 8 31 32 57 63 70 14 6 29 8 43 8l15 0 6 14c26 72 94 117 170 111 74-4 137-60 151-133l4-25 23 10c14 6 27 7 43 7 57 0 103-46 103-103 0-20-3-37-13-53z" horiz-adv-x="1000" />

<glyph glyph-name="close" unicode="&#xe82c;" d="M756 616l-53 52c-2 2-4 2-6 0l-189-189c-2 0-4 0-6 0l-187 189c-2 2-4 2-6 0l-53-52c-2-2-2-4 0-6l187-190c2-2 2-4 0-5l-187-188c-2-2-2-4 0-6l53-53c2-2 4-2 6 0l187 188c2 2 4 2 6 0l189-188c2-2 4-2 6 0l53 53c2 2 2 4 0 6l-190 188c0 1 0 3 0 5l190 190c2 2 2 4 0 6z" horiz-adv-x="1000" />

<glyph glyph-name="clock" unicode="&#xe82d;" d="M500 747c-184 0-334-151-334-334 0-184 150-334 334-334 184 0 334 150 334 334 0 183-150 334-334 334z m0-629c-164 0-297 130-297 295 0 164 133 296 297 296 164 0 297-132 297-296 0-165-133-297-297-297z m18 535c0-10-8-18-18-18-10 0-18 8-18 18 0 10 8 19 18 19 10 0 18-9 18-19z m0-481c0-9-8-19-18-19-10 0-18 10-18 19 0 10 8 18 18 18 10 0 18-8 18-18z m242 241c0-10-10-18-20-18-9 0-17 8-17 18 0 9 8 17 17 17 10 0 20-8 20-17z m-483 0c0-10-7-18-17-18-10 0-20 8-20 18 0 9 10 17 20 17 10 0 17-8 17-17z m393-153c-4 0-10-2-12-4-8-8-8-19 0-27 2-4 8-6 12-6 6 0 10 2 14 6 7 8 7 19 0 27-4 2-8 4-14 4z m-340 342c-6 0-10-2-14-6-7-8-7-19 0-27 4-2 8-4 14-4 4 0 10 2 12 4 8 8 8 19 0 27-2 4-8 6-12 6z m340 0c-4 0-10-2-12-6-8-8-8-19 0-27 2-2 8-4 12-4 6 0 10 2 14 4 7 8 7 19 0 27-4 4-8 6-14 6z m-340-342c-6 0-10-2-14-4-7-8-7-19 0-27 4-4 8-6 14-6 4 0 10 2 12 6 8 8 8 19 0 27-2 2-8 4-12 4z m266 84l-76 74 0 143c2 8-2 14-8 18-6 3-14 3-20 0-8-4-10-10-10-18l0-148c0-6 2-10 6-14l80-80c8-6 18-4 26 2 6 6 6 17 0 25z" horiz-adv-x="1000" />

<glyph glyph-name="clear-formatting" unicode="&#xe82e;" d="M711 438l-336-338c-2 0-2-2-2-2 0-2 0-4 2-4 90-45 197-47 287-2 45 24 80 65 96 112 15 52 14 107-8 156-2 4-2 8-4 10l-10 23c-7 16-15 31-25 45z m80 326l-170-170c-2-2-2-2-4-2-2 0-2 0-4 2l-109 170c0 0-2 2-4 2-2 0-2-2-2-2l-148-226-49-81c-14-19-28-41-37-64-10-25-16-55-14-82 0-25 4-49 12-72 0-2 0-4 0-6l-112-110c-2-1-2-3 0-5l53-53c2-2 4-2 6 0l641 639c2 2 2 3 0 5l-53 55c-2 2-4 2-4 0z" horiz-adv-x="1000" />

<glyph glyph-name="circle-full" unicode="&#xe82f;" d="M500 743c-182 0-330-149-330-330 0-182 148-331 330-331 182 0 330 149 330 331 0 181-148 330-330 330z" horiz-adv-x="1000" />

<glyph glyph-name="circle-empty" unicode="&#xe830;" d="M500 743c-182 0-330-149-330-330 0-182 148-331 330-331 182 0 330 149 330 331 0 181-148 330-330 330z m0-625c-160 0-291 130-291 291 0 162 131 293 291 293 160 0 291-131 291-293-2-159-131-287-291-287z" horiz-adv-x="1000" />

<glyph glyph-name="chevrot-right" unicode="&#xe831;" d="M758 415l-369 371c-2 0-4 0-6 0l-119-121c-2 0-2-4 0-6l244-244c2 0 2-4 0-6l-244-244c-2 0-2-4 0-6l119-119c2 0 4 0 6 0l369 369c2 2 2 6 0 6z" horiz-adv-x="1000" />

<glyph glyph-name="chevron-up" unicode="&#xe832;" d="M508 661l-369-371c-2 0-2-4 0-4l119-121c2 0 4 0 6 0l244 246c2 0 4 0 6 0l244-246c2 0 4 0 6 0l119 121c2 0 2 4 0 4l-369 371c-2 0-4 0-6 0z" horiz-adv-x="1000" />

<glyph glyph-name="color-palette" unicode="&#xe833;" d="M500 788c-205 0-375-170-375-375 0-206 170-375 375-375l0 375 375 0c0 205-170 375-375 375z m-287-291c0 41 33 74 72 74 41 0 74-33 74-74 0-41-33-75-74-75-39 0-72 34-72 75z m123-321c-41 0-74 33-74 74 0 41 33 75 74 75 41 0 74-34 74-75 0-41-33-72-74-72z m146 395c-41 0-72 33-72 74 0 41 31 74 72 74 41 0 75-33 75-74 0-41-34-74-75-74z m198-98c-41 0-74 33-74 72 0 41 33 75 74 75 41 0 74-34 74-75 0-39-33-72-74-72z" horiz-adv-x="1000" />

<glyph glyph-name="color-picker" unicode="&#xe834;" d="M297 96c-6 26-37 51-39 53l0 0 0 0c-2-2-33-27-39-53-6-25 12-55 39-56l0 0c29 1 45 31 39 56z m525 678c-39 23-91 14-123-20l-70-70-41 43c-18 16-45 16-63 0l-9-12c-18-15-18-43 0-60l41-41-254-256-2-2-39-164c-2-8 4-16 11-14l170 35 2 2 256 254 41-41c18-17 45-17 63 0l10 10c17 18 17 45 0 62l-42 41 73 71c21 23 33 54 27 86-4 33-21 60-51 76z m-281-402l-144 0 189 189 72-72-117-117z" horiz-adv-x="1000" />

<glyph glyph-name="comment" unicode="&#xe835;" d="M166 743l0-493c0-2 2-3 4-3l285 0c2 0 4-2 4-4l0-155c0-2 4-4 6-2l158 159c2 0 2 2 4 2l203 0c2 0 4 1 4 3l0 493c0 2-2 4-4 4l-660 0c-2 0-4-2-4-4z" horiz-adv-x="1000" />

<glyph glyph-name="copy" unicode="&#xe836;" d="M416 575l0-493c0-1 2-3 4-3l326 0c2 0 4 2 4 3l0 493c0 2-2 4-4 4l-326 0c-2 0-4-2-4-4z m246-412l-158 0c-2 0-4 2-4 3l0 327c0 2 2 4 4 4l158 0c2 0 4-2 4-4l0-327c0-1-2-3-4-3z m4 584l-412 0c-2 0-4-2-4-4l0-580 84 0 0 496c0 2 2 4 4 4l328 0z" horiz-adv-x="1000" />

<glyph glyph-name="currency-euro" unicode="&#xe837;" d="M648 483l-21-55-174 0 0-29 162 0-21-55-133 0c20-60 55-94 100-94 37 2 74 14 105 34l0-98c-37-14-76-21-115-23-59 2-113 29-149 74-23 31-41 68-46 107l-55 0 19 55 30 0 0 29-49 0 19 55 36 0c27 113 103 180 210 180 49 2 96-16 133-45l-33-86c-29 25-66 41-105 43-47 0-79-30-98-92z" horiz-adv-x="1000" />

<glyph glyph-name="currency-pound" unicode="&#xe838;" d="M609 438l0-61-121 0c0-9 2-19 2-25 0-29-13-57-35-76l18 0c21 0 45-6 66-14 10-2 20-4 29-4 30 0 57 16 73 43l47-84c-28-35-71-54-116-54-21 2-45 5-66 11-20 8-39 14-61 14-23 0-47-10-66-25l-57 78c57 39 73 60 73 99 0 14-2 26-8 37l-76 0 0 61 50 0c-13 25-21 55-21 82 0 84 72 143 172 143 54 3 107-20 140-63 22-29 32-66 30-102l-98 0c0 57-23 81-72 81-16 2-33-2-47-14-14-12-22-27-22-45 2-29 10-57 22-82z" horiz-adv-x="1000" />

<glyph glyph-name="currency-usd" unicode="&#xe839;" d="M523 469c28-6 53-12 79-19 58-14 99-67 97-127 0-84-66-143-176-155l0-60-42 0 0 60c-110 8-176 65-180 159l103 0c4-45 28-67 75-71l0 119c-26 6-49 14-75 24-56 14-95 64-93 125 0 82 64 139 168 144l0 49 44 0 0-51c84 2 155-62 161-146l-100 0c-4 31-29 57-61 59z m-42 110c-10 0-20-2-28-6-19-4-35-22-37-43 0-26 20-41 65-53z m42-325c42 4 67 26 67 53 0 27-20 47-67 57z" horiz-adv-x="1000" />

<glyph glyph-name="currency-yen" unicode="&#xe83a;" d="M723 663l-123 0-102-209-96 209-125 0 133-252-97 0 0-61 130 0 0-19-130 0 0-63 130 0 0-105 112 0 0 105 133 0 0 63-133 0 0 19 133 0 0 61-100 0z" horiz-adv-x="1000" />

<glyph glyph-name="cut" unicode="&#xe83b;" d="M834 555c35 33 2 94-43 72l-234-134c0-2-2 0-4 0l-45 39c-26 21 8 95-24 117-248 166-289-117-269-133 0 0 0 0 0 0l185-107c0 0 2-2 2-4 0-2-2-2-2-4l-185-108c-22-9 19-267 269-132 34 19-2 95 24 117l326 277z m-471-400c-48 0-90 41-90 90 0 48 42 89 90 89 49 0 90-41 90-89 0-49-41-90-90-90z m0 328c-48 0-90 39-90 88 0 49 42 90 90 90 49 0 90-41 90-90 0-49-41-88-90-88z m352-125c-2 2-4 0-6 0l-80-80c-2-2-2-6 2-6l160-90c45-21 78 39 43 72 0 0-45 41-119 104z" horiz-adv-x="1000" />

<glyph glyph-name="dash" unicode="&#xe83c;" d="M746 454l-492 0c-2 0-4-2-4-4l0-75c0-2 2-3 4-3l492 0c2 0 4 1 4 3l0 75c0 2-2 4-4 4z" horiz-adv-x="1000" />

<glyph glyph-name="database" unicode="&#xe83d;" d="M500 559c150 0 272 31 272 72 0 41-122 73-272 73-150 0-271-32-271-73 0-41 121-72 271-72z m0-49c-232 0-271 49-271 49l0-98c0 0 39-48 271-48 232 0 272 48 272 48l0 98c0 0-40-49-272-49z m0-146c-232 0-271 49-271 49l0-98c0 0 39-49 271-49 232 0 272 49 272 49l0 98c0 0-40-49-272-49z m0-147c-232 0-271 49-271 49l0-96c0 0 39-48 271-48 232 0 272 48 272 48l0 96c0 0-40-49-272-49z" horiz-adv-x="1000" />

<glyph glyph-name="database-add" unicode="&#xe83e;" d="M459 541c-232 0-271 49-271 49l0-97c0 0 39-49 271-49 231 0 270 49 270 49l0 97c0 0-39-49-270-49z m0 49c148 0 270 32 270 73 0 41-122 72-270 72-150 0-271-31-271-72 0-41 121-73 271-73z m41-340l-41 0c-232 0-271 49-271 49l0-97c0 0 39-49 271-49l64 0c-15 25-23 54-23 84 0 4 0 8 0 13z m-41 145c-232 0-271 49-271 49l0-98c0 0 39-49 271-49l53 0c25 65 88 106 154 106 22 0 43-6 63-14l0 55c0 0-39-49-270-49z m207-14c-80 0-144-64-144-146 0-80 64-145 144-145 82 0 147 65 147 145 0 82-65 146-147 146z m84-166l-62 0 0-62-41 0 0 62-63 0 0 41 63 0 0 63 41 0 0-63 62 0z" horiz-adv-x="1000" />

<glyph glyph-name="database-remove" unicode="&#xe83f;" d="M816 313l-58 59-72-75-77 75-58-59 74-74-74-74 58-57 75 72 74-72 58 57-74 74z m-361 260c149 0 270 33 270 72 0 41-121 74-270 74-150 0-271-33-271-74 0-39 121-72 271-72z m0-147c231 0 270 49 270 49l0 98c0 0-39-49-270-49-232 0-271 49-271 49l0-98c0 0 39-49 271-49z m166-37l2-2 61-58 41 43 0 54c0 0-16-21-104-37z m-166-107l96 2-29 29 72 74c-47-6-94-10-141-8-232 0-269 47-269 47l0-97c0 0 37-47 269-47z m82-102l59 59c-45-6-92-8-139-8-232 0-271 49-271 49l0-98c0 0 39-49 271-49l94 4-28 28z" horiz-adv-x="1000" />

<glyph glyph-name="download" unicode="&#xe840;" d="M791 409l0-284c0-2-2-3-4-3l-574 0c-2 0-4 1-4 3l0 284c0 2-2 4-4 4l-76 0c-2 0-4-2-4-4l0-368c0-1 2-3 4-3l742 0c2 0 4 2 4 3l0 368c0 2-2 4-4 4l-76 0c-2 0-4-2-4-4z m-135 4l-111 0c-2 0-4 2-4 3l0 368c0 2-2 4-4 4l-74 0c-2 0-4-2-4-4l0-368c0-1-2-3-4-3l-111 0c-4 0-6-4-4-8l158-157c0-1 4-1 6 0l156 157c0 2 2 4 0 6 0 0-2 2-4 2z" horiz-adv-x="1000" />

<glyph glyph-name="drawing" unicode="&#xe841;" d="M662 541c-17 92-86 170-178 196-66 17-142 8-203-24-107-60-140-215-91-322 33-72 103-127 181-141 2 0 4-2 4-3l0-163c0-3 2-3 4-3l451 0c2 0 4 0 4 3l0 450c0 2-2 4-4 4l-164 0c-2 0-2 2-4 3z m-365 73c39 39 96 56 152 45 61-12 110-57 127-116 0-3-2-5-4-5l-193 0c-2 0-4-2-4-4l0-194c0-2-2-4-6-4-84 26-135 125-111 209 8 26 21 49 39 69z m279-166c-15-53-58-96-111-112-4 0-6 2-6 4l0 110c0 2 2 4 4 4l109 0c2 0 4-2 4-6z m170-285l-283 0c-2 0-4 2-4 3l0 81c0 1 0 1 2 3 102 18 184 98 201 200 0 2 2 4 4 4l80 0c2 0 4-2 4-4l0-284c0-1-2-3-4-3z" horiz-adv-x="1000" />

<glyph glyph-name="dropbox" unicode="&#xe842;" d="M322 487l178-114-178-113-179 115 179 114-179 113 179 113 178-113z m178-149l178-115-178-113-178 113z m178 151l-178 113 178 113 179-113-179-115 179-114-179-113-178 115z" horiz-adv-x="1000" />

<glyph glyph-name="edit" unicode="&#xe843;" d="M436 237c2-2 4-2 5 0l331 330c1 2 1 4 0 6l-112 111c-2 2-4 2-6 0l-330-330c-2-2-2-4 0-6l112-111z m-223-115l154 0c10 0 14 11 8 17l-148 145c-2 4-8 4-12 4-4-2-6-6-6-10l0-153c0-2 2-3 4-3z" horiz-adv-x="1000" />

<glyph glyph-name="email" unicode="&#xe844;" d="M770 663l-539 0c-32 0-57-24-57-55l0-391c0-13 6-29 16-41 11-10 25-15 41-15l539 0c15 0 29 5 41 15 9 12 15 28 15 41l0 391c0 31-25 55-56 55z m19-448c0-9-10-19-19-19l-539 0c-10 0-20 10-20 19l0 393c0 10 10 19 20 19l539 0c9 0 19-9 19-19z m-78 364l-209-207-207 207-29-30 146-144-144-141 29-29 146 146 63-62 62 62 145-146 29 29-146 145 146 144z" horiz-adv-x="1000" />

<glyph glyph-name="find" unicode="&#xe845;" d="M686 307c-2 2-2 4 0 4 27 43 43 92 43 143 0 150-131 271-291 271-161 0-291-121-291-271 0-149 130-270 291-270 70 0 134 23 185 63 2 0 4 0 6 0l203-206c2 0 4 0 6 0l53 55c2 0 2 4 0 6l-205 205z m-248-57c-122 0-219 92-219 204 0 113 97 203 219 203 121 0 218-90 218-203 0-112-97-204-218-204z" horiz-adv-x="1000" />

<glyph glyph-name="flag-empty" unicode="&#xe846;" d="M662 743c-101 0-201-61-303-61-39 0-76 10-109 29l-41 0 0-632 41 0 0 279c33-20 70-29 109-29 102 0 202 60 303 60 39 0 76-10 110-29l0 353c-34 20-71 30-110 30z m69-321c-24 6-45 10-69 10-56-4-111-14-164-33-45-16-92-26-139-27-23 0-46 3-68 13l-41 18 0 263 41-15c24-8 47-10 70-10 55 2 110 14 162 31 45 18 92 26 139 30 26 0 49-4 70-14z" horiz-adv-x="1000" />

<glyph glyph-name="flag-full" unicode="&#xe847;" d="M250 713l-41 0 0-634 41 0 0 283c174-104 350 105 523 0l0 351c-173 104-347-105-523 0z" horiz-adv-x="1000" />

<glyph glyph-name="folder" unicode="&#xe848;" d="M129 122l742 0c2 0 4 1 4 3l0 450c0 2-2 4-4 4l-328 0c0 0-2 2-2 2l-123 123c0 0-2 0-4 0l-285 0c-2 0-4-2-4-4l0-575c0-2 2-3 4-3z" horiz-adv-x="1000" />

<glyph glyph-name="form" unicode="&#xe849;" d="M375 622l-84 0 0-84 84 0z m0-168l-84 0 0-82 84 0z m0-166l-84 0 0-84 84 0z m334 334l-250 0 0-84 250 0z m0-168l-250 0 0-82 250 0z m0-166l-250 0 0-84 250 0z m-584 500l0-750 750 0 0 750z m666-666l-582 0 0 582 582 0z" horiz-adv-x="1000" />

<glyph glyph-name="image" unicode="&#xe84a;" d="M254 211c0-2 0-4 0-5 0 0 2-2 4-2l484 0c2 0 4 2 4 2 0 1 0 3 0 5l-201 280c0 2-2 2-2 2-2 0-4-2-4-2l-101-170c-2-2-6-2-8 0l-51 86c-2 2-6 2-8 0z m537 577l-662 0c-2 0-4-2-4-4l0-743c0-1 2-3 4-3l742 0c2 0 4 2 4 3l0 743c0 2-2 4-4 4z m-4-666l-574 0c-2 0-4 1-4 3l0 575c0 2 2 4 4 4l574 0c2 0 4-2 4-4l0-575c0-2-2-3-4-3z" horiz-adv-x="1000" />

<glyph glyph-name="indent-decrease" unicode="&#xe84b;" d="M129 122l742 0c2 0 4 1 4 3l0 75c0 2-2 4-4 4l-742 0c-2 0-4-2-4-4l0-75c0-2 2-3 4-3z m0 287l156-116c2-2 2-2 4-2 2 2 2 2 2 4l0 235c0 2 0 2-2 4-2 0-2 0-4-2l-156-116c-2-1-2-5 0-7z m250-121l492 0c2 0 4 2 4 3l0 77c0 2-2 4-4 4l-492 0c-2 0-4-2-4-4l0-77c0-1 2-3 4-3z m0 166l492 0c2 0 4 2 4 3l0 77c0 2-2 4-4 4l-492 0c-2 0-4-2-4-4l0-77c0-1 2-3 4-3z m-254 246l0-75c0-2 2-3 4-3l742 0c2 0 4 1 4 3l0 75c0 2-2 4-4 4l-742 0c-2 0-4-2-4-4z" horiz-adv-x="1000" />

<glyph glyph-name="indent-increase" unicode="&#xe84c;" d="M125 700l0-75c0-2 2-3 4-3l742 0c2 0 4 1 4 3l0 75c0 2-2 4-4 4l-742 0c-2 0-4-2-4-4z m4-578l742 0c2 0 4 1 4 3l0 75c0 2-2 4-4 4l-742 0c-2 0-4-2-4-4l0-75c0-2 2-3 4-3z m250 166l492 0c2 0 4 2 4 3l0 77c0 2-2 4-4 4l-492 0c-2 0-4-2-4-4l0-77c0-1 2-3 4-3z m0 166l492 0c2 0 4 2 4 3l0 77c0 2-2 4-4 4l-492 0c-2 0-4-2-4-4l0-77c0-1 2-3 4-3z m-254 76l0-235c0-2 4-5 6-2l156 116c2 2 2 2 2 4 0 2 0 2-2 3l-156 116c-2 4-6 0-6-2z" horiz-adv-x="1000" />

<glyph glyph-name="info" unicode="&#xe84d;" d="M770 682c-55 55-123 88-204 100-62 9-128 6-187-14l-29-12c-118-50-203-162-221-289-12-82 4-168 41-242 37-74 102-127 180-156 86-33 179-41 269-12 115 39 207 133 240 252 30 98 14 209-35 299-15 27-33 53-54 74z m-266-19c39 0 70-32 70-71 0-39-31-72-70-72-39 0-70 33-70 72 0 39 31 71 70 71z m55-450l-104 0 0 227 102 51 0-278z" horiz-adv-x="1000" />

<glyph glyph-name="insert-link" unicode="&#xe84e;" d="M275 530c28 11 57 8 84 8l94 0c2 0 2 0 4 0 2 2 2 3 2 5l0 71c0 2 0 4-2 4 0 2-4 2-6 2l-123 2c-29 1-60 1-92-14-54-26-84-74-101-129-14-45-14-96 4-141 15-41 45-76 82-101 33-22 72-33 113-33l121 0c2 0 4 2 4 3l0 77c0 2-2 4-4 4l-121 0c-49 0-92 27-113 70-16 31-16 66-4 98 10 31 29 60 58 74z m485 84c-14 6-28 8-45 8l-166 0c-2 0-4-2-6-2-2-2-2-4-2-6l0-71c0-2 0-3 2-5 2 0 2 0 4 0l117 0c29 0 61 3 82-18 35-37 55-96 39-145l-4-9c-19-47-64-78-115-78l-121 0c-2 0-4-2-4-4l0-77c0-1 2-3 4-3l121 0c51 0 98 17 135 50 37 32 72 80 74 157 0 70-18 109-60 162-6 8-12 13-18 19-12 10-24 18-37 22z m-422-242l324 0c2 0 4 1 4 3l0 75c0 2-2 4-4 4l-324 0c-2 0-4-2-4-4l0-75c0-2 2-3 4-3z" horiz-adv-x="1000" />

<glyph glyph-name="decimal-decrease" unicode="&#xe84f;" d="M129 329l76 0c2 0 4 2 4 3l0 77c0 2-2 4-4 4l-76 0c-2 0-4-2-4-4l0-77c0-1 2-3 4-3z m359 394c-7 8-17 14-27 18-23 9-53 11-80 6-35-8-65-32-82-63-20-35-27-76-27-137 0-60 7-99 27-134 21-41 64-67 109-67 49 0 90 26 112 67 19 33 27 76 27 132 0 49-6 102-31 145-8 12-18 23-28 33z m-80-307c-37 0-56 45-56 131 0 86 19 131 56 131 39 0 59-45 59-133 0-84-20-129-59-129z m283-207c-1 0-3 2-3 4l0 75-102-102c-2-2-2-4 0-6l102-101 0 74c0 2 2 4 3 4l184 0 0 52z" horiz-adv-x="1000" />

<glyph glyph-name="decimal-increase" unicode="&#xe850;" d="M129 329l76 0c2 0 4 2 4 3l0 77c0 2-2 4-4 4l-76 0c-2 0-4-2-4-4l0-77c0-1 2-3 4-3z m359 394c-13 10-27 18-45 22-23 3-46 3-70-2-31-10-58-32-74-59-20-35-27-76-27-137 0-60 7-99 27-134 21-41 64-67 109-67 49 0 90 26 112 67 19 35 27 76 27 132 0 61-10 139-59 178z m-78-307c-39 0-58 45-58 131 0 86 19 131 56 131 39 0 59-45 59-131 0-86-20-131-57-131z m326-70c49 0 90 26 112 67 19 35 27 76 27 132 0 47-4 96-27 139-26 49-80 74-135 63l-12-2c-33-10-58-34-74-61-20-35-27-76-27-137 0-58 7-99 27-134 21-41 64-67 109-67z m0 332c39 0 59-45 59-133 0-84-20-129-59-129-37 0-56 45-56 131 0 86 19 131 56 131z m36-465c0-2-2-4-4-4l-184 0 0-52 184 0c2 0 4-2 4-4l0-74 101 101c0 2 0 4 0 6l-101 102 0-75z" horiz-adv-x="1000" />

<glyph glyph-name="document-add" unicode="&#xe851;" d="M680 397c-82 0-149-66-149-147 0-82 67-148 149-148 82 0 148 66 146 148 0 82-66 147-146 147z m78-164l-57 0 0-57-37 0 0 57-58 0 0 37 58 0 0 59 37 0 0-57 57 0z m-377 25l0-39 125 0c-2 10-4 20-4 29l0 10z m-78-135c-10 0-20 10-20 20l0 539c0 10 10 20 20 20l250 0 0-96c0-33 27-59 58-59l98 0 0-125c12-2 25-6 37-9l0 173-154 153-287 0c-16 2-32-6-41-16-12-12-18-25-18-41l0-539c0-16 6-29 16-41 11-10 25-16 41-16l304 0c-19 8-39 22-54 37z m289 561l98-100-79 0c-5 0-11 2-13 6-4 4-6 10-6 14z m19-271l-230 0 0-40 174 0c15 18 35 30 56 40z m-86-77l-144 0 0-39 129 0c4 14 10 26 15 39z" horiz-adv-x="1000" />

<glyph glyph-name="document-csv" unicode="&#xe852;" d="M574 373l0 40-230 0 0-40z m0-76l0 39-230 0 0-39z m135-78l0 367-154 153-287 0c-16 2-32-6-43-16-10-12-16-25-16-41l0-539c0-31 25-57 57-57l269 0 0-43 299 0 0 176z m-154 465l99-100-80 0c-9 0-19 10-19 20z m-20-561l-267 0c-12 2-18 10-18 20l0 539c0 4 2 10 6 14 2 4 8 6 14 6l250 0 0-96c0-16 5-31 15-41 12-12 26-18 41-18l94 0 0-328-96 0 0 39-230 0 0-39 191 0z m98-21c-6-10-18-16-31-16-12 0-24 6-32 16-5 8-9 20-9 31-2 12 2 24 9 33 8 8 20 14 32 14 17 2 35-12 37-29l-12 0c-4 12-14 19-25 19-16 0-28-13-28-35 0-21 12-37 28-37 13 0 25 12 25 25l14 0c0-7-4-15-8-21z m58-16c-9-2-19 2-27 8-8 6-12 16-12 26l14 0c0-6 4-14 10-18 4-4 10-6 17-4 12 0 22 6 22 14 0 10-4 11-14 13l-21 6c-16 4-24 12-24 24 0 11 12 25 34 25 7 0 17-2 23-8 8-6 12-13 12-21l-14 0c0 6-2 10-8 14-4 3-10 5-13 3-14 0-22-3-22-11 0-8 6-12 18-14l13-4c8 0 16-4 22-8 4-4 8-11 8-17-2-16-16-28-38-28z m88 0l-15 0-32 90 14 0 20-58 6-20c0 10 3 12 5 20l18 58 16 0z" horiz-adv-x="1000" />

<glyph glyph-name="document-pdf" unicode="&#xe853;" d="M574 413l-230 0 0-40 230 0z m28-245l-20 0 0-31 20 0c5-2 11 0 15 4 4 2 6 8 6 12-2 4-4 8-6 10-4 3-10 5-15 5z m-28 168l-230 0 0-39 230 0z m106-168l-18 0 0-68 18 0c21 0 31 10 31 35 0 8-2 16-6 24-6 7-15 11-25 9z m29 51l0 367-154 153-287 0c-16 2-32-6-43-16-10-12-16-25-16-41l0-539c0-31 25-57 57-57l269 0 0-43 299 0 0 176z m-154 465l99-100-80 0c-9 0-19 10-19 20z m-20-561l-267 0c-12 2-18 10-18 20l0 539c0 4 2 10 6 14 2 4 8 6 14 6l250 0 0-96c0-16 5-31 15-41 12-12 26-18 41-18l94 0 0-328-96 0 0 39-230 0 0-39 191 0z m90 8c-6-4-16-8-23-6l-22 0 0-37-14 0 0 92 34 0c7 2 17-2 25-6 6-6 10-13 10-21 0-8-4-16-10-20z m57-45l-34 0 0 94 34 0c13 2 25-4 33-15 6-8 10-20 8-30 2-12-2-25-10-33-8-10-20-16-31-16z m123 82l-49 0 0-27 41 0 0-12-41 0 0-41-14 0 0 92 63 0z" horiz-adv-x="1000" />

<glyph glyph-name="document-preview" unicode="&#xe854;" d="M227 153c-10 0-18 10-18 19l0 539c0 10 8 18 20 18l250 0 0-96c0-31 23-56 54-56l96 0 0-125c14-2 25-6 39-10l0 172-156 154-285 0c-16 0-32-6-43-16-12-11-18-25-18-41l0-539c0-15 6-31 18-41 11-11 25-17 41-17l304 0c-21 9-39 23-54 39z m287 560l97-99-78 0c-11 2-19 9-19 19z m19-271l-230 0 0-39 174 0c15 17 35 29 56 39z m-230-154l0-40 125 0c-2 10-2 20-2 30l0 10z m146 76l-146 0 0-37 129 0c4 13 9 25 15 37z m278-166l0 2c15 23 23 50 23 78 2 60-33 115-88 138-56 24-119 12-162-29-43-43-57-105-35-162 23-55 78-92 137-92 35 0 68 12 95 33l2 0 104-109 4 0 25 29c2 0 2 2 0 2z m-125-30c-59 2-106 51-104 112 0 58 49 105 108 105 60 0 107-49 107-107 0-30-12-57-33-78-22-20-49-32-78-30z" horiz-adv-x="1000" />

<glyph glyph-name="document-remove" unicode="&#xe855;" d="M490 336l-146 0 0-39 129 0c4 14 9 26 15 39z m-222-213c-12 2-18 10-18 20l0 539c0 4 2 10 6 14 2 4 8 6 14 6l250 0 0-96c0-16 5-31 15-41 12-12 26-18 41-18l94 0 0-125c14-2 25-6 37-9l0 173-152 153-287 0c-16 2-32-6-43-16-10-12-16-25-16-41l0-539c0-31 25-57 57-57l304 0c-19 8-39 22-54 37z m287 561l99-100-80 0c-9 0-19 10-19 20z m-211-426l0-39 125 0c-2 10-2 20-2 29-2 4-2 6 0 10z m299 139c-82 0-147-66-147-149 0-82 67-146 149-146 82 0 146 66 146 148 0 40-16 77-43 104-27 29-66 43-105 43z m66-158l-135 0 0 37 135 0z m-135 174l-230 0 0-40 174 0c17 18 35 30 56 40z" horiz-adv-x="1000" />

<glyph glyph-name="document-xls" unicode="&#xe856;" d="M574 336l-230 0 0-39 230 0z m0 77l-230 0 0-40 230 0z m135-194l0 367-154 153-287 0c-16 2-32-6-43-16-10-12-16-25-16-41l0-539c0-31 25-57 57-57l269 0 0-43 299 0 0 176z m-154 465l99-100-80 0c-9 0-19 10-19 20z m-20-561l-267 0c-12 2-18 10-18 20l0 539c0 4 2 10 6 14 2 4 8 6 14 6l250 0 0-96c0-16 5-31 15-41 12-12 26-18 41-18l94 0 0-328-96 0 0 39-230 0 0-39 191 0z m92-37l-25 37-24-37-17 0 33 49-31 45 15 0 24-35 21 35 16 0-32-45 36-49z m90 0l-63 0 0 94 12 0 0-84 49 0z m49-2c-10-2-22 2-30 8-7 8-11 18-11 28l13 0c0-8 2-14 8-18 6-6 12-8 20-6 13 0 23 6 23 16 0 11-6 11-16 13l-21 6c-16 4-25 12-25 26 0 11 13 25 35 25 10 2 19-2 25-8 8-6 12-13 12-23l-14 0c0 6-4 12-8 15-4 4-9 6-15 4-12 0-22-5-22-13 0-8 6-10 18-14l15-2c8-2 14-4 20-10 6-4 8-11 8-17 2-18-14-30-35-30z" horiz-adv-x="1000" />

<glyph glyph-name="email-read" unicode="&#xe857;" d="M815 534l-71 52-244 186-240-178-67-51c-11-11-19-27-21-45l0-388c0-31 27-59 59-59l539 0c13 0 29 8 39 18 11 12 17 25 17 41l0 388c2 14-4 26-11 36z m-116 41l63-49-63-63z m-195 150l168-131-342 0z m154-172l0-133-154-152-160 156 0 129z m-355 20l0-110-63 63z m484-461c0-12-8-20-17-20l-539 0c-6 0-10 2-14 6-4 2-6 8-6 14l0 388 201-201-144-142 27-30 146 145 63-63 62 63 145-145 29 30-146 142 193 194z" horiz-adv-x="1000" />

<glyph glyph-name="equation" unicode="&#xe858;" d="M787 747l-574 0c-2 0-4-2-4-4l0-78c0-2 0-2 0-4l283-258c2 0 2-2 2-4 0 0 0-2-2-2l-283-232c0-2 0-2 0-4l0-79c0-1 2-3 4-3l574 0c2 0 4 2 4 3l0 77c0 2-2 4-4 4l-441 0c-2 0-4 2-4 2-2 1-2 3 0 5l271 229-2 0 2 2-271 254c-4 4-2 8 2 8l443 0c2 0 4 2 4 3l0 77c0 2-2 4-4 4z" horiz-adv-x="1000" />

<glyph glyph-name="erase" unicode="&#xe859;" d="M875 159c0 2-2 4-4 4l-96 0 96 95c2 2 2 4 0 6l-457 459c-2 2-6 2-6 0l-273-273c-2-2-2-4 0-6l275-274c0-2 2-4 0-5 0 0-2-2-4-2l-277 0c-2 0-4-2-4-4l0-77c0-1 2-3 4-3l742 0c2 0 4 2 4 3z m-617 291l150 148c0 2 4 2 6 0l149-148c2-2 2-4 0-6l-149-149c-2-2-6-2-6 0l-150 149c0 2 0 4 0 6z" horiz-adv-x="1000" />

<glyph glyph-name="exclamation-mark" unicode="&#xe85a;" d="M559 508l-28-215-62 0-28 215 0 186 118 0z m0-377l-118 0 0 117 118 0z" horiz-adv-x="1000" />

<glyph glyph-name="fast-forward" unicode="&#xe85b;" d="M787 416l-320 202c-2 0-4 0-4 0-2-2-2-2-2-4l0-149-244 153c-2 2-4 2-6 2-2-2-4-4-2-6l0-403c0-2 0-2 2-4 2 0 2 0 4 0l244 153 0-149c0-2 0-2 2-4 2 0 2 0 4 0l320 202c2 0 4 2 4 4 0 0 0 2-2 3z" horiz-adv-x="1000" />

<glyph glyph-name="fast-rewind" unicode="&#xe85c;" d="M213 416l320 202c2 0 4 0 4 0 2-2 2-2 2-4l0-149 244 153c2 0 4 0 4 0 2-2 2-2 2-4l0-403c0-2 0-2-2-4 0 0-2 0-4 0l-242 153 0-149c0-2 0-2-2-4-2 0-2 0-4 0l-322 202c-2 2-2 2-2 4 0 2 0 2 2 3z" horiz-adv-x="1000" />

<glyph glyph-name="fill-color" unicode="&#xe85d;" d="M731 329c0 0-2 0-2 0l-456 0-17 19 310 268c2 0 2 4 0 6l-123 142c-2 2-3 2-5 0l-41-37c-2 0-2-4-2-6l82-94c2-2 2-4 0-5l-313-268c0 0-2-4 0-6l311-308c2-2 4-2 6 0l287 238c2 2 2 4 0 6l-37 45z m82-137c-4 8-12 12-22 12-8 0-16-4-19-12 0 0-63-133 19-133 84 0 22 133 22 133z" horiz-adv-x="1000" />

<glyph glyph-name="filter" unicode="&#xe85e;" d="M416 413l0-288c0-2 2-3 4-3l158-79c0-2 2-2 4 0 0 0 2 2 2 2l0 368c0 2 0 2 0 3l285 368c2 0 2 2 2 4-2 0-4 2-4 2l-734 0c0 0-2-2-4-2 0-2 0-4 2-4l285-368c0-1 0-1 0-3z m80 44l-158 200c0 0 0 2 0 4 2 2 2 2 4 2l316 0c2 0 2 0 4-2 0-2 0-4 0-4l-158-200c-2 0-2 0-4 0-2 0-2 0-4 0z" horiz-adv-x="1000" />

<glyph glyph-name="formula" unicode="&#xe85f;" d="M357 198l86 340 80 0 20 78-80 0 10 35c6 29 11 31 39 31l27 0 20-4 21 84-23 2c-12 2-18 2-32 2-74 0-117-31-134-101l-12-49-59 0-19-78 56 0-84-340z m127 308l75-144-170-164 103 0 102 99 51-99 89 0-82 156 157 152-102 0-90-88-43 88-90 0z m-318-384l0-84 668 0 0 84z" horiz-adv-x="1000" />

<glyph glyph-name="google-drive" unicode="&#xe860;" d="M371 651l104-180-196-342-103 180z m61-342l390 0-101-180-391 0z m172 29l203 0-205 358-204 0z" horiz-adv-x="1000" />

<glyph glyph-name="google-sheets" unicode="&#xe861;" d="M590 274l-104 0 0-33 104 0z m0 115l-104 0 0-37 104 0z m0-58l-104 0 0-36 104 0z m0 197c-35 0-63 29-63 62l0 143-220 0c-20 0-35-18-35-37l0-565c0-19 15-37 35-37l386 0c20 0 36 18 36 37l0 397z m27-317l-236 0 0 209 238 0z m-27 342l137 0-102 106-70 72 0-143c0-9 4-17 10-25 7-8 17-10 27-10z m-137-279l-43 0 0-33 47 0z m0 115l-43 0 0-37 47 0z m0-58l-43 0 0-36 47 0z" horiz-adv-x="1000" />

<glyph glyph-name="hamburger-menu" unicode="&#xe862;" d="M170 684c0 0-2 0-2-2-2 0-2-2-2-2l0-121 668 0 0 125z m-4-213l0-121 668 0 0 125-664 0c0 0-2 0-2-2-2 0-2-2-2-2z m0-209l0-121 668 0 0 125-664 0c0 0-2 0-2 0-2-2-2-2-2-4z" horiz-adv-x="1000" />

<glyph glyph-name="help" unicode="&#xe863;" d="M500 788c-207 0-375-168-375-375 0-207 168-375 375-375 207 0 375 168 375 375 0 207-168 375-375 375z m-154-120c0 2 4 2 4 0l78-78c2-2 2-4-2-6-43-19-78-54-98-97-2-4-4-4-6-2l-78 78c-2 0-2 2 0 4 26 43 59 76 102 101z m82-433l-78-78c0-2-4-2-4 0-43 25-76 58-102 101-2 0-2 4 0 4l78 78c2 2 4 2 6-2 20-43 55-78 98-97 4-2 4-4 2-6z m-53 178c0 68 57 125 125 125 68 0 125-57 125-125 0-69-57-125-125-125-68 0-125 56-125 125z m279-256c0-2-4-2-4 0l-78 78c-2 2-2 4 2 6 43 19 78 54 98 97 2 4 4 4 6 2l78-78c2 0 2-2 0-4-25-43-59-76-102-101z m102 406l-78-78c-2-2-4-2-6 2-20 43-55 78-98 97-4 2-4 4-2 6l78 78c0 2 4 2 4 0 43-25 77-58 102-101 2 0 2-4 0-4z" horiz-adv-x="1000" />

<glyph glyph-name="hidden" unicode="&#xe864;" d="M691 704l-95-96c-2 0-2 0-4 0-29 8-61 14-92 14-195 0-346-184-363-207 0-2 0-2 0-4 10-14 58-73 131-123 0 0 2-2 2-2 0-2 0-4-2-4l-102-102c0-2 0-4 0-6l53-52c2-2 6-2 6 0l525 523c2 2 2 4 0 6l-53 53c-2 2-4 2-6 0z m-169-168c-6 2-14 2-22 2-68 0-125-57-125-125 0-8 0-16 2-22l-33-35c-6 17-10 37-10 57 0 91 74 166 166 166 20 0 39-4 57-10l-35-33z m-22-248c68 0 125 56 125 125 0 7 0 15-2 21l-144-144c5-2 13-2 21-2z m229 252l-71-71c-2 0-2-2-2-4 6-15 10-33 10-52 0-92-74-166-166-166-19 0-39 3-57 9l-37-37c30-10 61-15 94-15 195 0 354 183 373 207 2 0 2 2 0 4-12 13-62 74-141 125-1 1-3 1-3 0z" horiz-adv-x="1000" />

<glyph glyph-name="highlight" unicode="&#xe865;" d="M537 268l-162 80-6-2-33-70 41-22-61-127c-1-4 0-5 4-5l92 0c2 0 6 1 8 3l43 88 43-21 33 70-2 6z m0 422l-142-295c-2-2 0-4 2-6l162-78c2-2 4 0 6 2l142 293c0 4 0 6-2 6l-162 80c-2 0-4 0-6-2z" horiz-adv-x="1000" />

<glyph glyph-name="idea" unicode="&#xe866;" d="M379 38l242 0c2 0 4 2 4 3l0 77c0 2-2 4-4 4l-242 0c-2 0-4-2-4-4l0-77c0-1 2-3 4-3z m0 125l242 0c2 0 4 2 4 3l0 77c0 2-2 4-4 4l-242 0c-2 0-4-2-4-4l0-77c0-1 2-3 4-3z m-55 550c-58-56-86-138-70-218 14-73 57-137 121-174l0-33 250 0 0 33c74 43 125 125 125 217 0 91-51 175-131 220-103 55-221 28-295-45z" horiz-adv-x="1000" />

<glyph glyph-name="italic" unicode="&#xe867;" d="M791 623l0 79c0 2 0 2-2 2l-412 0c0 0-2 0-2-2l0-79c0-1 2-1 2-1l135 0c2 0 4-2 4-4l-116-370c0-1 0-1-2-1l-146 0c0 0-2-2-2-4l0-78c0 0 2-2 2-2l412 0c2 0 2 2 2 2l0 78c0 2 0 4-2 4l-135 0c-2 0-4 1-2 1l114 372c0 0 2 2 2 2l146 0c2 0 2 0 2 1z" horiz-adv-x="1000" />

<glyph glyph-name="key" unicode="&#xe868;" d="M816 473l-459 0 0 24c0 15-5 33-19 44-12 12-29 18-47 18l-82 0c-35-2-62-29-64-62l0-125c0-18 5-36 17-47 14-12 29-20 47-20l82 0c18 0 35 8 47 20 12 11 19 29 18 47l0 19 334 0 0-103c-2-8 1-16 9-20 6-4 14-4 20 0 8 4 10 12 10 20l0 84 44 0 0-84c0-10 10-20 20-20 12 0 20 10 20 20l0 101 3 0c22 0 40 18 40 39l0 6c0 22-18 39-40 39z m-503-101c0-6-2-12-6-16-4-4-10-6-16-6l-82 0c-6 0-12 2-14 6-4 4-5 10-5 16l0 125c0 9 9 17 19 17l82 0c12 0 20-10 20-19z" horiz-adv-x="1000" />

<glyph glyph-name="keyboard" unicode="&#xe869;" d="M213 538l74 0c2 0 4 2 4 3l0 77c0 2-2 4-4 4l-74 0c-2 0-4-2-4-4l0-77c0-1 2-3 4-3z m199 84l-74 0c-2 0-4-2-4-4l0-77c0-1 2-3 4-3l74 0c2 0 4 2 4 3l0 77c0 2-2 4-4 4z m125 0l-74 0c-2 0-4-2-4-4l0-77c0-1 2-3 4-3l74 0c2 0 4 2 4 3l0 77c0 2-2 4-4 4z m51-84l74 0c2 0 4 2 4 3l0 77c0 2-2 4-4 4l-74 0c-2 0-4-2-4-4l0-77c0-1 2-3 4-3z m121 80l0-77c0-1 2-3 4-3l74 0c2 0 4 2 4 3l0 77c0 2-2 4-4 4l-74 0c-2 0-4-2-4-4z m-496-205l74 0c2 0 4 2 4 3l0 77c0 2-2 4-4 4l-74 0c-2 0-4-2-4-4l0-77c0-1 2-3 4-3z m199 84l-74 0c-2 0-4-2-4-4l0-77c0-1 2-3 4-3l74 0c2 0 4 2 4 3l0 77c0 2-2 4-4 4z m125 0l-74 0c-2 0-4-2-4-4l0-77c0-1 2-3 4-3l74 0c2 0 4 2 4 3l0 77c0 2-2 4-4 4z m51-84l74 0c2 0 4 2 4 3l0 77c0 2-2 4-4 4l-74 0c-2 0-4-2-4-4l0-77c0-1 2-3 4-3z m125 0l74 0c2 0 4 2 4 3l0 77c0 2-2 4-4 4l-74 0c-2 0-4-2-4-4l0-77c0-1 2-3 4-3z m-500-125l74 0c2 0 4 2 4 3l0 77c0 2-2 4-4 4l-74 0c-2 0-4-2-4-4l0-77c0-1 2-3 4-3z m199 84l-74 0c-2 0-4-2-4-4l0-77c0-1 2-3 4-3l74 0c2 0 4 2 4 3l0 77c0 2-2 4-4 4z m125 0l-74 0c-2 0-4-2-4-4l0-77c0-1 2-3 4-3l74 0c2 0 4 2 4 3l0 77c0 2-2 4-4 4z m-199-209l324 0c2 0 4 2 4 3l0 77c0 2-2 4-4 4l-324 0c-2 0-4-2-4-4l0-77c0-1 2-3 4-3z m250 125l74 0c2 0 4 2 4 3l0 77c0 2-2 4-4 4l-74 0c-2 0-4-2-4-4l0-77c0-1 2-3 4-3z m125 0l74 0c2 0 4 2 4 3l0 77c0 2-2 4-4 4l-74 0c-2 0-4-2-4-4l0-77c0-1 2-3 4-3z" horiz-adv-x="1000" />

<glyph glyph-name="line" unicode="&#xe86a;" d="M871 372l-742 0c-2 0-4 1-4 3l0 75c0 2 2 4 4 4l742 0c2 0 4-2 4-4l0-75c0-2-2-3-4-3z" horiz-adv-x="1000" />

<glyph glyph-name="line-height" unicode="&#xe86b;" d="M418 645l-141 141c-2 0-4 0-5 0l-139-141c-2-2-2-4-2-4 0-2 2-4 4-4l97 0c4 0 6-2 6-4l0-441c0-2-2-4-6-4l-97 0c-4 0-6-6-2-8l139-140c1 0 3 0 5 0l141 140c2 2 0 8-2 8l-100 0c-1 0-3 2-3 4l0 441c0 2 2 4 3 4l98 0c2 0 4 2 4 4 2 0 2 2 0 4z m123-27l0-77c0-1 2-3 4-3l326 0c2 0 4 2 4 3l0 77c0 2-2 4-4 4l-326 0c-2 0-4-2-4-4z m4-246l326 0c2 0 4 1 4 3l0 75c0 2-2 4-4 4l-326 0c-2 0-4-2-4-4l0-75c0-2 2-3 4-3z m0-168l326 0c2 0 4 2 4 3l0 77c0 2-2 4-4 4l-326 0c-2 0-4-2-4-4l0-77c0-1 2-3 4-3z" horiz-adv-x="1000" />

<glyph glyph-name="line-style" unicode="&#xe86c;" d="M125 618l0-77c0-1 2-3 4-3l742 0c2 0 4 2 4 3l0 77c0 2-2 4-4 4l-742 0c-2 0-4-2-4-4z m330-164l-326 0c-2 0-4-2-4-4l0-75c0-2 2-3 4-3l326 0c2 0 4 1 4 3l0 75c0 2-2 4-4 4z m-326-250l76 0c2 0 4 2 4 3l0 77c0 2-2 4-4 4l-76 0c-2 0-4-2-4-4l0-77c0-1 2-3 4-3z m166 0l76 0c2 0 4 2 4 3l0 77c0 2-2 4-4 4l-76 0c-2 0-4-2-4-4l0-77c0-1 2-3 4-3z m168 0l74 0c2 0 4 2 4 3l0 77c0 2-2 4-4 4l-74 0c-2 0-4-2-4-4l0-77c0-1 2-3 4-3z m166 0l76 0c2 0 4 2 4 3l0 77c0 2-2 4-4 4l-76 0c-2 0-4-2-4-4l0-77c0-1 2-3 4-3z m166 0l76 0c2 0 4 2 4 3l0 77c0 2-2 4-4 4l-76 0c-2 0-4-2-4-4l0-77c0-1 2-3 4-3z m-250 168l326 0c2 0 4 1 4 3l0 75c0 2-2 4-4 4l-326 0c-2 0-4-2-4-4l0-75c0-2 2-3 4-3z" horiz-adv-x="1000" />

<glyph glyph-name="locked" unicode="&#xe86d;" d="M713 432l-31 0c-4 0-4 6-4 6l-2 107c-4 26-16 49-28 71-27 45-74 78-125 90-42 7-87 1-128-14-34-16-106-49-106-203l0-49c0-2 0-6-6-6-4 0-23 0-29 0-2 0-4-2-4-4l0-305c0-2 2-3 4-3l459 0c2 0 4 1 4 3l0 303c0 2-2 4-4 4z m-348 4l2 72c0 84 49 115 115 117 65 0 118-35 118-117l0-68c0-4 0-8-6-8l-223 0c-4 0-6 2-6 4z" horiz-adv-x="1000" />

<glyph glyph-name="long-arrow-down" unicode="&#xe86e;" d="M656 204l-111 0c-2 0-4 2-4 3l0 577c0 2-2 4-4 4l-74 0c-2 0-4-2-4-4l0-577c0-1-2-3-4-3l-111 0c-4 0-6-4-4-6l158-158c0 0 4 0 6 0l156 158c0 0 2 2 0 4 0 2-2 2-4 2z" horiz-adv-x="1000" />

<glyph glyph-name="minus" unicode="&#xe86f;" d="M598 395l-196 0 0 35 196 0z" horiz-adv-x="1000" />

<glyph glyph-name="minus-square" unicode="&#xe870;" d="M787 704l-574 0c-2 0-2 0-4 0 0-2 0-2 0-4l0-575c0-2 0-2 0-3 2 0 2 0 4 0l574 0c2 0 2 0 4 0 0 1 0 1 0 3l0 575c0 2 0 2 0 4-2 0-2 0-4 0z m47-622c0-1-2-3-6-3l-658 0c-2 0-4 2-4 3l0 661c0 0 0 2 2 2 0 2 2 2 4 2l658 0c2 0 4-2 4-6z m-236 313l-196 0 0 35 196 0z" horiz-adv-x="1000" />

<glyph glyph-name="navigate" unicode="&#xe871;" d="M172 446l269-90c0 0 2-2 2-2l90-270c2-3 6-3 8 0l274 637c0 2 0 4-2 4-2 2-2 2-4 2l-637-273c-2 0-4-2-2-4 0-2 0-4 2-4z" horiz-adv-x="1000" />

<glyph glyph-name="numbered-list" unicode="&#xe872;" d="M209 704l78 0c2 0 4-2 4-4l0-121 43 0 0 164c0 2-2 4-4 4l-121 0z m0-250l66 0-66-82 0-43 125 0 0 43-68 0 68 82 0 43-125 0z m0-250l82 0 0-41-41 0 0-41-41 0 0-43 121 0c2 0 4 2 4 3l0 161c0 2-2 4-4 4l-121 0z m207 496l0-75c0-2 2-3 4-3l367 0c2 0 4 1 4 3l0 75c0 2-2 4-4 4l-367 0c-2 0-4-2-4-4z m4-328l367 0c2 0 4 1 4 3l0 75c0 2-2 4-4 4l-367 0c-2 0-4-2-4-4l0-75c0-2 2-3 4-3z m0-250l367 0c2 0 4 1 4 3l0 75c0 2-2 4-4 4l-367 0c-2 0-4-2-4-4l0-75c0-2 2-3 4-3z" horiz-adv-x="1000" />

<glyph glyph-name="paint-format" unicode="&#xe873;" d="M709 666l0 77c0 2-2 4-4 4l-535 0c-2 0-4-2-4-4l0-243c0-2 2-3 4-3l535 0c2 0 4 1 4 3l0 75c0 2 2 4 4 4l74 0c2 0 4-2 4-4l0-200c0-2-2-3-4-3l-367 0c-2 0-4-2-4-4l0-327c0-1 2-3 4-3l76 0c2 0 4 2 4 3l0 243c0 2 2 4 4 4l371 0 0 371c0 2-2 4-4 4l-158 0c-2 0-4 2-4 3z" horiz-adv-x="1000" />

<glyph glyph-name="paint-format-remove" unicode="&#xe874;" d="M154 817l-58-59 70-70 0-188c0-2 0-2 2-3 0 0 2 0 2 0l187 0 125-125-62 0c0 0-2 0-2-2-2 0-2-2-2-2l0-327c0 0 0-1 2-1 0-2 2-2 2-2l76 0c0 0 2 0 2 2 2 0 2 1 2 1l0 243c0 0 0 2 2 2 0 2 2 2 2 2l62 0 239-239 58 61z m551-320c0 0 2 0 2 0 2 1 2 1 2 3l0 75c0 2 0 2 0 4 2 0 2 0 4 0l74 0c2 0 2 0 4 0 0-2 0-2 0-4l0-200c0-2 0-2 0-3-2 0-2 0-4 0l-144 0 82-84 150 0 0 371c0 0 0 2-2 2 0 2-2 2-2 2l-158 0c-2 0-2 0-4 2 0 0 0 1 0 1l0 77c0 0 0 2-2 2 0 2-2 2-2 2l-437 0 250-250z" horiz-adv-x="1000" />

<glyph glyph-name="paste" unicode="&#xe875;" d="M625 707l0 77c0 2-2 4-4 4l-242 0c-2 0-4-2-4-4l0-77c0-1-2-3-4-3l-158 0c-2 0-4-2-4-4l0-618c0-1 2-3 4-3l574 0c2 0 4 2 4 3l0 618c0 2-2 4-4 4l-158 0c-2 0-4 2-4 3z m-209 40l168 0 0-43-168 0z m289-584l-410 0c-2 0-4 2-4 3l0 452c0 2 2 4 4 4l76 0c2 0 4-2 4-4l0-118c0-2 2-3 4-3l242 0c2 0 4 1 4 3l0 118c0 2 2 4 4 4l76 0c2 0 4-2 4-4l0-452c0-1-2-3-4-3z" horiz-adv-x="1000" />

<glyph glyph-name="percent" unicode="&#xe876;" d="M467 530c0-78-41-129-108-129-64 0-107 51-107 131 0 80 43 131 107 131 67 0 108-51 108-133z m-154 0c0-55 15-84 46-84 32 0 47 29 47 84 0 56-13 84-47 84-33 0-46-26-46-82z m115-367l-57 0 197 500 57 0z m318 127c0-79-41-129-107-129-65 0-106 50-106 130 0 81 41 133 106 133 64 0 107-49 107-133z m-154 1c0-54 15-82 47-82 31 0 49 28 49 82 0 57-16 84-49 84-33 0-47-27-47-82z" horiz-adv-x="1000" />

<glyph glyph-name="question-mark" unicode="&#xe877;" d="M459 288c0 89 6 103 74 156 47 37 57 53 57 82 0 21-10 43-27 56-16 14-38 22-61 20-25 4-53-6-70-23-20-20-30-45-26-73l-111 0c4 119 88 196 211 196 125 0 199-69 199-172 0-35-12-71-35-100-20-23-43-43-68-58-28-20-41-53-36-84z m115-166l-115 0 0 121 119 0z" horiz-adv-x="1000" />

<glyph glyph-name="redo" unicode="&#xe878;" d="M748 415c-271 267-682 115-683-184l7-2c172 213 407 285 592 103 2-1 2-3 0-5l-115-116c-2-2-2-4-2-4 2-1 4-3 4-3l320 0c2 0 4 2 4 3l0 321c0 4-4 6-8 2l-115-115c0 0-4 0-4 0z" horiz-adv-x="1000" />

<glyph glyph-name="refresh" unicode="&#xe879;" d="M807 553l50 47-185 61 39-192 49 43c33-82 23-174-26-246-48-74-130-117-218-117-43 0-84 10-123 31l-10 4-27-53 9-6c47-23 98-37 151-37 179 0 324 147 322 325 0 48-10 95-31 138z m-477 45c49 51 115 78 186 78 21 0 41-4 62-8l10-2 14 59-10 2c-26 6-51 8-76 8-178 0-323-145-323-322 0-26 4-49 10-75l0-2-60-35 166-97 0 195-55-31c-16 84 14 172 76 230z" horiz-adv-x="1000" />

<glyph glyph-name="remove-link" unicode="&#xe87a;" d="M797 309l-88-88-90 88-58-59 89-87-89-88 58-59 90 88 88-88 59 59-88 88 88 87z m-342-21l-121 0c-49 0-92 27-113 70-16 31-16 66-4 98 10 31 29 60 58 74 28 11 57 8 84 8l94 0c2 0 2 0 4 0 2 2 2 3 2 5l0 71c0 2 0 4-2 4 0 2-4 2-6 2l-123 2c-29 1-60 1-92-14-54-26-84-74-101-129-14-45-14-96 4-141 15-41 45-76 82-101 33-22 72-33 113-33l121 0c2 0 4 2 4 3l0 77c0 2-2 4-4 4z m404 214c-19 45-52 92-99 112-14 6-29 8-45 8l-166 0c-2 0-4-2-6-2-2-2-2-4-2-6l0-71c0-2 0-3 2-5 2 0 2 0 4 0l117 0c29 0 61 3 82-18 35-37 55-96 39-145l0-3 84 0c4 11 4 25 6 39 0 31-4 62-16 91z m-525-52l0-75c0-2 2-3 4-3l324 0c2 0 4 1 4 3l0 75c0 2-2 4-4 4l-324 0c-2 0-4-2-4-4z" horiz-adv-x="1000" />

<glyph glyph-name="save" unicode="&#xe87b;" d="M334 122l41 0 0 125-41 0z m0 375l332 0 0 41-332 0z m0-84l332 0 0 41-332 0z m498 207l-162 125c0 2-2 2-2 2l-498 0c-2 0-4-2-4-4l0-661c0-1 2-3 4-3l117 0c2 0 4 2 4 3l0 202c0 2 2 4 4 4l410 0c2 0 4-2 4-4l0-202c0-1 2-3 4-3l117 0c2 0 4 2 4 3l0 536c0 0-2 2-2 2z m-582 2l-41 0 0 82 41 0z m459-247c0-2-2-3-4-3l-410 0c-2 0-4 1-4 3l0 200c0 2 2 4 4 4l410 0c2 0 4-2 4-4z" horiz-adv-x="1000" />

<glyph glyph-name="settings" unicode="&#xe87c;" d="M746 454c-6 37-21 72-43 103l31 33-58 59-31-33c-30 21-65 37-104 43l0 45-82 0 0-45c-39-6-74-22-103-43l-34 31-58-59 33-31c-22-31-37-66-43-103l-45 0 0-82 45 0c6-40 21-75 43-104l-31-33 58-59 32 33c31-21 66-37 103-43l0-44 82 0 0 44c37 6 72 22 104 43l33-31 58 59-33 31c22 31 37 66 43 104l45 0 0 82z m-246-166c-68 0-125 56-125 125 0 68 57 125 125 125 68 0 125-57 125-125 0-69-57-125-125-125z" horiz-adv-x="1000" />

<glyph glyph-name="share" unicode="&#xe87d;" d="M830 329l-76 0c-2 0-4-2-4-4l0-159c0-1-2-3-4-3l-533 0c-2 0-4 2-4 3l0 493c0 2 2 4 4 4l242 0c2 0 4 2 4 3l0 77c0 2-2 4-4 4l-326 0c-2 0-4-2-4-4l0-661c0-1 2-3 4-3l701 0c2 0 4 2 4 3l0 243c0 2-2 4-4 4z m-109 410c-12 11-33 15-33-12l0-94c-256-2-360-115-401-213-33-80 22-220 22-220l4 45c11 128 117 265 375 269l0-88c0-13 21-15 29-10 8 10 158 147 158 147 6 6 6 16 0 21l-154 155z" horiz-adv-x="1000" />

<glyph glyph-name="sort-ascending" unicode="&#xe87e;" d="M541 125l0 75c0 2-2 4-4 4l-408 0c-2 0-4-2-4-4l0-75c0-2 2-3 4-3l408 0c2 0 4 1 4 3z m-416 243l0-77c0-1 2-3 4-3l283 0c2 0 4 2 4 3l0 77c0 2-2 4-4 4l-283 0c-2 0-4-2-4-4z m0 166l0-77c0-1 2-3 4-3l201 0c2 0 4 2 4 3l0 77c0 2-2 4-4 4l-201 0c-2 0-4-2-4-4z m0 166l0-75c0-2 2-3 4-3l76 0c2 0 4 1 4 3l0 75c0 2-2 4-4 4l-76 0c-2 0-4-2-4-4z m586-577l156 157c2 2 2 4 2 6-2 0-2 2-4 2l-111 0c-2 0-4 2-4 3l0 409c0 2-2 4-4 4l-76 0c-2 0-4-2-4-4l0-409c0-1-2-3-4-3l-111 0c-2 0-4-4-2-8l156-157c2-1 4-1 6 0z" horiz-adv-x="1000" />

<glyph glyph-name="star-inactive" unicode="&#xe87f;" d="M750 53l-230 123c-2 0-4 0-4 0l-233-123c-2 0-4 0-4 0-2 2-2 4-2 4l45 258c0 2 0 4-2 4l-187 183c0 0-2 2 0 4 0 2 2 2 2 2l260 39c0 0 2 0 2 2l117 235c0 2 2 2 4 2 0 0 2 0 2-2l117-235c0-2 2-2 2-2l259-39c2 0 2 0 4-2 0-2 0-4-2-4l-187-183c0 0-2-2-2-4l45-258c0-2-2-6-6-4z m-451 395l103-102c2 0 2-2 2-4l-25-144c0-2 0-2 2-4 2 0 4 0 4 0l131 68c0 0 2 0 4 0l128-68c2 0 2 0 4 0 2 2 2 2 2 4l-25 144c0 2 0 4 2 4l105 102c2 4 0 8-4 8l-144 21c0 0-2 0-2 2l-64 131c-2 2-2 2-4 2-2 0-4 0-4-2l-65-131c-2-2-2-2-4-2l-144-21c-2 0-4-2-4-2 0-2 0-4 2-6z" horiz-adv-x="1000" />

<glyph glyph-name="strike-through" unicode="&#xe880;" d="M871 438l-742-8c-2 0-4-2-4-4l0-74c0-4 2-4 4-4l742 6c2 0 4 2 4 4l0 76c0 2-2 4-4 4z m-256 39c-13 4-29 10-49 14l-113 25c-37 8-51 22-53 47 0 35 38 57 96 59 59 0 100-28 100-73l0-11 121 0c2 0 4 0 4 2 0 0 2 1 0 1-2 38-12 73-31 104-38 55-102 80-190 78-143 0-225-66-223-174 0-25 6-51 18-74 2 0 2 0 4 0z m-35-166c16-10 26-25 26-43 0-39-40-62-104-62-74 0-109 25-113 85 0 2-2 4-6 4l-115 0c-2 0-4-2-4-4 4-123 92-191 238-189 148 2 232 72 232 188 0 7-2 15-2 23z" horiz-adv-x="1000" />

<glyph glyph-name="sync" unicode="&#xe881;" d="M746 555c-283 291-533-8-574-86-2-4 4-8 8-4 103 88 224 227 510 33 1 0 1-3 1-5l-74-73c0-2-2-4 0-5 0 0 2-2 4-2l209 0c2 0 4 2 4 3l0 209c0 4-6 6-8 2l-74-72c0-2-4-2-6 0z m-435-252l72 72c2 2 0 8-4 8l-209 0c-2 0-4-2-4-6l0-207c0-4 6-5 8-4l74 75c0 2 4 2 6 0 285-293 535 35 574 115 2 4-4 8-8 4-103-90-224-258-509-65-2 2-4 6-2 8z" horiz-adv-x="1000" />

<glyph glyph-name="text-clip" unicode="&#xe882;" d="M213 122l74 0c2 0 4 1 4 3l0 575c0 2-2 4-4 4l-74 0c-2 0-4-2-4-4l0-575c0-2 2-3 4-3z m496 578l0-243c0-1-2-3-4-3l-326 0c-2 0-4-2-4-4l0-75c0-2 2-3 4-3l326 0c2 0 4-2 4-4l0-243c0-2 2-3 4-3l74 0c2 0 4 1 4 3l0 575c0 2-2 4-4 4l-74 0c-2 0-4-2-4-4z" horiz-adv-x="1000" />

<glyph glyph-name="text-color" unicode="&#xe883;" d="M406 354l-29-96c0 0-2-2-4-2l-113 0c-2 0-2 0-4 2 0 0 0 2 0 4l172 492c0 0 2 2 4 2l134 0c2 0 4-2 4-2l157-492c0-2 0-4 0-4-2-2-2-2-4-2l-119 0c-2 0-2 2-4 4l-26 94c0 2-2 2-4 2l-160 0c-2 0-2 0-4-2z m86 277l-54-177c-2-2 0-4 3-4l102 0c2 0 4 0 4 2 0 0 0 2 0 2l-47 177c-2 4-8 4-8 0z m379-593l-742 0c-2 0-4 2-4 3l0 118c0 2 2 4 4 4l742 0c2 0 4-2 4-4l0-118c0-1-2-3-4-3z" horiz-adv-x="1000" />

<glyph glyph-name="text-columns" unicode="&#xe884;" d="M129 454l326 0c2 0 4 2 4 3l0 77c0 2-2 4-4 4l-326 0c-2 0-4-2-4-4l0-77c0-1 2-3 4-3z m0 168l326 0c2 0 4 1 4 3l0 75c0 2-2 4-4 4l-326 0c-2 0-4-2-4-4l0-75c0-2 2-3 4-3z m0-334l326 0c2 0 4 2 4 3l0 77c0 2-2 4-4 4l-326 0c-2 0-4-2-4-4l0-77c0-1 2-3 4-3z m0-166l326 0c2 0 4 1 4 3l0 75c0 2-2 4-4 4l-326 0c-2 0-4-2-4-4l0-75c0-2 2-3 4-3z m416 500l326 0c2 0 4 1 4 3l0 75c0 2-2 4-4 4l-326 0c-2 0-4-2-4-4l0-75c0-2 2-3 4-3z m0-168l326 0c2 0 4 2 4 3l0 77c0 2-2 4-4 4l-326 0c-2 0-4-2-4-4l0-77c0-1 2-3 4-3z m0-332l326 0c2 0 4 1 4 3l0 75c0 2-2 4-4 4l-326 0c-2 0-4-2-4-4l0-75c0-2 2-3 4-3z m0 166l326 0c2 0 4 2 4 3l0 77c0 2-2 4-4 4l-326 0c-2 0-4-2-4-4l0-77c0-1 2-3 4-3z" horiz-adv-x="1000" />

<glyph glyph-name="text-overflow" unicode="&#xe885;" d="M830 415l-156 158c-2 0-4 0-4 0-2 0-4-2-4-4l0-112c0-1-2-3-4-3l-324 0c-2 0-4-2-4-4l0-75c0-2 2-3 4-3l324 0c2 0 4-2 4-4l0-112c0-4 6-6 8-4l156 157c2 2 2 6 0 7z m-584 289l-76 0c-2 0-4-2-4-4l0-575c0-2 2-3 4-3l76 0c2 0 4 1 4 3l0 575c0 2-2 4-4 4z m258-166l76 0c2 0 4 2 4 3l0 159c0 2-2 4-4 4l-76 0c-2 0-4-2-4-4l0-159c0-1 2-3 4-3z m76-250l-76 0c-2 0-4-2-4-4l0-159c0-2 2-3 4-3l76 0c2 0 4 1 4 3l0 159c0 2-2 4-4 4z" horiz-adv-x="1000" />

<glyph glyph-name="text-rotation" unicode="&#xe886;" d="M404 315l-41 78c0 0 0 2 0 4l100 100c2 1 4 1 6 0l74-43c2 0 4 0 4 2l74 72c2 2 2 6-2 8l-404 209c-2 0-4 0-4 0l-84-84c-2-2-2-4 0-6l199-414c0 0 2-2 2-2 2 0 4 0 4 2l70 70c2 0 2 2 2 4z m-154 308l139-80c0 0 2-2 2-2 0-1 0-3-2-3l-63-63c-2-2-2-2-4-2-2 0-2 0-2 2l-76 143c-2 4 2 7 6 5z m397-9l78-78c2-2 2-4 0-6l-438-438c-2-2-2-6 0-6l53-54c2 0 4 0 6 0l437 439c2 2 4 2 6 0l78-78c4-4 8-2 8 2l0 223c0 2-2 4-4 4l-223 0c0 0-1-2-3-4 0 0 0-2 2-4z" horiz-adv-x="1000" />

<glyph glyph-name="underline" unicode="&#xe887;" d="M705 747c2 0 4-2 4-4l0-371c0-67-45-116-84-143-39-29-96-41-154-41-61 0-114 16-153 45-39 29-68 72-68 139l0 371c0 2 2 4 4 4l117 0c2 0 4-2 4-4l4-366c0-35 33-74 100-74 70 0 105 33 105 69l0 371c0 2 2 4 4 4z m0-709l-451 0c-2 0-4 2-4 3l0 77c0 2 2 4 4 4l451 0c2 0 4-2 4-4l0-77c0-1-2-3-4-3z" horiz-adv-x="1000" />

<glyph glyph-name="undo" unicode="&#xe888;" d="M252 415c271 267 682 115 684-184l-8-2c-172 213-406 285-592 103-2-1-2-3 0-5l115-116c2-2 0-7-2-7l-320 0c-2 0-4 2-4 5l0 319c0 4 4 6 8 2l115-115c0 0 4 0 4 0z" horiz-adv-x="1000" />

<glyph glyph-name="unlocked" unicode="&#xe889;" d="M477 510l0-74c0-2-2-4-4-4l-344 0c-2 0-4-2-4-4l0-303c0-2 2-3 4-3l459 0c2 0 4 1 4 3l0 297c0 12-4 10-14 10l-21 0c-2 0-4 2-4 6l0 72c0 49 25 123 99 127 88 6 133-43 133-109l0-57 78 0 0 43c0 106-58 168-142 192-41 9-131 15-188-38-19-17-56-52-56-158z" horiz-adv-x="1000" />

<glyph glyph-name="unpin" unicode="&#xe88a;" d="M291 598l121-121c-10 10-23 16-37 16-14 0-27-6-37-16l98-98-174-173c-18-24-31-47-43-73 25 12 49 26 72 41l176 178 98-98c21 20 21 53 0 73l117-116 25 28-387 386z m303 96l-18-18c-6-6-10-11-10-19 0-8 4-14 10-20l18-17-119-96 136-137 98 119 18-17c5-4 11-8 19-8 8 0 14 4 20 8l17 19z" horiz-adv-x="1000" />

<glyph glyph-name="upload" unicode="&#xe88b;" d="M791 409l0-284c0-2-2-3-4-3l-574 0c-2 0-4 1-4 3l0 284c0 2-2 4-4 4l-76 0c-2 0-4-2-4-4l0-368c0-1 2-3 4-3l742 0c2 0 4 2 4 3l0 368c0 2-2 4-4 4l-76 0c-2 0-4-2-4-4z m-328-162l74 0c2 0 4 1 4 3l0 368c0 2 2 4 4 4l111 0c4 0 6 3 4 5l-158 159c0 0-4 0-6 0l-156-159c0 0-2-2 0-4 0-1 2-1 4-1l111 0c2 0 4-2 4-4l0-368c0-2 2-3 4-3z" horiz-adv-x="1000" />

<glyph glyph-name="user" unicode="&#xe88c;" d="M563 352l-141 0c-84 0-152-66-156-150l0-120c2-1 2-1 4-1l459 0c2 0 3 0 3 3l0 112c0 86-70 156-156 156z m-63 61c92 0 166 74 166 166 0 91-74 168-166 168-92 0-166-77-166-168 0-92 74-166 166-166z" horiz-adv-x="1000" />

<glyph glyph-name="user-add" unicode="&#xe88d;" d="M609 602c0-92-74-166-166-166-91 0-168 74-168 166 0 92 77 168 168 168 92 0 166-76 166-168z m36-250c-59 0-114-35-137-92-24-54-12-119 31-160 43-43 106-57 162-33 55 23 90 78 90 137 0 82-64 148-146 148z m76-166l-57 0 0-59-39 0 0 59-57 0 0 37 57 0 0 57 37 0 0-57 57 0z m-149 178c-17 6-35 8-52 8l-157 0c-82-2-150-67-154-149l0-119c0-2 2-4 4-4l291 0c-22 31-35 66-35 104 0 68 41 130 103 160z" horiz-adv-x="1000" />

<glyph glyph-name="user-preview" unicode="&#xe88e;" d="M527 618c0-94-74-168-166-168-91 0-168 74-168 168 0 91 77 166 168 166 92 0 166-75 166-166z m-37-241c-17 6-35 10-52 10l-157 0c-84 0-152-66-156-150l0-117c0-2 2-4 4-4l291 0c-22 29-33 66-33 103 0 69 41 131 103 158z m200-240l0 2c13 24 21 51 21 78 2 59-33 114-90 139-55 23-119 12-162-31-43-41-57-106-33-160 23-57 76-94 137-94 35 0 68 11 95 35l2 0 104-110 2 0 27 28c0 0 0 2 0 4z m-125-29c-61 2-108 51-106 111 0 59 49 106 109 106 59 0 108-49 108-108-2-29-14-58-35-78-20-19-49-31-78-31z" horiz-adv-x="1000" />

<glyph glyph-name="long-arrow-left" unicode="&#xe88f;" d="M875 454l-584 0 0 121c0 0 0 4-4 0l-162-162 0-4 162-162 4 0 0 125 584 0z" horiz-adv-x="1000" />

<glyph glyph-name="long-arrow-right" unicode="&#xe890;" d="M129 372l580 0c0 0 4 0 4-4l0-118c0-3 4-3 4 0l158 163 0 3-162 163-4 0 0-116c0 0 0-6-4-6l-576 0c-4-3-4-3-4-7l4-78c-4 0-4 0 0 0z" horiz-adv-x="1000" />

<glyph glyph-name="long-arrow-up" unicode="&#xe891;" d="M541 41l0 577c0 4 0 4 4 4l113 0c4 0 4 3 4 3l-158 159-4 0-162-159c0 0 0-3 4-3l113 0c4 0 4 0 4-4l0-577c0 0 0-3 4-3l78 3c0-3 0-3 0 0z" horiz-adv-x="1000" />

<glyph glyph-name="menu" unicode="&#xe892;" d="M219 495c-53 0-94-41-94-92 0-53 41-94 94-94 51 0 94 41 94 94 0 51-43 92-94 92z m283 0c-53 0-94-41-94-92 0-53 41-94 94-94 51 0 92 41 92 94 0 51-41 92-92 92z m281 0c-51 0-92-41-92-92 0-53 41-94 92-94 53 0 94 41 94 94 0 51-41 92-94 92z" horiz-adv-x="1000" />

<glyph glyph-name="merge-cells" unicode="&#xe893;" d="M129 538l76 0c2 0 4 2 4 3l0 118c0 2 2 4 4 4l242 0c2 0 4 2 4 3l0 77c0 2-2 4-4 4l-326 0c-2 0-4-2-4-4l0-202c0-1 2-3 4-3z m412 205l0-77c0-1 2-3 4-3l242 0c2 0 4-2 4-4l0-118c0-1 2-3 4-3l76 0c2 0 4 2 4 3l0 202c0 2-2 4-4 4l-326 0c-2 0-4-2-4-4z m246-580l-242 0c-2 0-4-2-4-4l0-77c0-1 2-3 4-3l326 0c2 0 4 2 4 3l0 202c0 2-2 4-4 4l-76 0c-2 0-4-2-4-4l0-118c0-1-2-3-4-3z m-582 125l-76 0c-2 0-4-2-4-4l0-202c0-1 2-3 4-3l326 0c2 0 4 2 4 3l0 77c0 2-2 4-4 4l-242 0c-2 0-4 2-4 3l0 118c0 2-2 4-4 4z m82 166l-158 0c-2 0-4-2-4-4l0-75c0-2 2-3 4-3l158 0c2 0 4-2 4-4l0-112c0-4 6-6 8-4l156 159c2 0 2 4 0 5l-156 157c-2 0-4 2-4 0-2 0-4-2-4-4l0-112c0-1-2-3-4-3z m414 119l-156-158c-2 0-2-4 0-6l156-157c2-2 8 0 8 4l0 112c0 2 2 4 4 4l158 0c2 0 4 1 4 3l0 75c0 2-2 4-4 4l-158 0c-2 0-4 2-4 3l0 112c0 2-2 4-4 4 0 2-2 0-4 0z" horiz-adv-x="1000" />

<glyph glyph-name="pin" unicode="&#xe894;" d="M565 329l142 179 18-17c6-4 11-8 19-8 8 0 14 4 20 8l17 19-187 186-20-20c-9-10-9-27 0-39l20-17-180-143c-10 10-23 16-37 16-14 0-27-6-37-16l98-98-176-177c-16-22-31-47-43-73 25 12 49 28 72 43l176 178 98-98c11 10 17 24 17 39 0 14-6 28-17 38z" horiz-adv-x="1000" />

<glyph glyph-name="pin-map" unicode="&#xe895;" d="M500 721c-123 0-223-98-225-221 0-62 22-125 61-175l164-221 145 193c48 57 78 129 82 205-6 121-106 217-227 219z m0-342c-64 0-117 53-117 118 0 64 53 115 117 115 65 0 117-51 117-115 0-65-52-118-117-118z" horiz-adv-x="1000" />

<glyph glyph-name="plus" unicode="&#xe896;" d="M746 454l-201 0c-2 0-4 2-4 3l0 202c0 2-2 4-4 4l-74 0c-2 0-4-2-4-4l0-202c0-1-2-3-4-3l-201 0c-2 0-4-2-4-4l0-75c0-2 2-3 4-3l201 0c2 0 4-2 4-4l0-202c0-1 2-3 4-3l74 0c2 0 4 2 4 3l0 202c0 2 2 4 4 4l201 0c2 0 4 1 4 3l0 75c0 2-2 4-4 4z" horiz-adv-x="1000" />

<glyph glyph-name="plus-square" unicode="&#xe897;" d="M787 704l-574 0c-2 0-2 0-4 0 0-2 0-2 0-4l0-575c0-2 0-2 0-3 2 0 2 0 4 0l574 0c2 0 2 0 4 0 0 1 0 1 0 3l0 575c0 2 0 2 0 4-2 0-2 0-4 0z m47-622c0-1-2-3-6-3l-658 0c-2 0-4 2-4 3l0 661c0 0 0 2 2 2 0 2 2 2 4 2l658 0c2 0 4-2 4-6z m-353 348l0 100 37 0 0-100 101 0 0-35-101 0 0-102-37 0 0 102-100 0 0 35z" horiz-adv-x="1000" />

<glyph glyph-name="print" unicode="&#xe898;" d="M830 622l-160 0c-2 0-4 1-4 3l0 75c0 2-2 4-4 4l-324 0c-2 0-4-2-4-4l0-75c0-2-2-3-4-3l-160 0c-2 0-4-2-4-4l0-327c0-1 2-3 4-3l160 0c2 0 4-2 4-4l0-202c0-1 2-3 4-3l324 0c2 0 4 2 4 3l0 202c0 2 2 4 4 4l160 0c2 0 4 2 4 3l0 327c0 2-2 4-4 4z m-80-247c0-2-2-3-4-3l-80 0 0 41-332 0 0-41-80 0c-2 0-4 1-4 3l0 159c0 2 2 4 4 4l492 0c2 0 4-2 4-4z" horiz-adv-x="1000" />

<glyph glyph-name="sort-descending" unicode="&#xe899;" d="M537 704l-408 0c-2 0-4-2-4-4l0-75c0-2 2-3 4-3l408 0c2 0 4 1 4 3l0 75c0 2-2 4-4 4z m-408-250l283 0c2 0 4 2 4 3l0 77c0 2-2 4-4 4l-283 0c-2 0-4-2-4-4l0-77c0-1 2-3 4-3z m0-166l201 0c2 0 4 2 4 3l0 77c0 2-2 4-4 4l-201 0c-2 0-4-2-4-4l0-77c0-1 2-3 4-3z m0-166l76 0c2 0 4 1 4 3l0 75c0 2-2 4-4 4l-76 0c-2 0-4-2-4-4l0-75c0-2 2-3 4-3z m576 580l-156-157c-2-2-2-4 0-5 0 0 2-2 2-2l111 0c2 0 4-2 4-4l0-409c0-2 2-3 4-3l76 0c2 0 4 1 4 3l0 409c0 2 2 4 4 4l111 0c4 0 6 3 2 7l-156 157c-2 2-4 2-6 0z" horiz-adv-x="1000" />

<glyph glyph-name="special-character" unicode="&#xe89a;" d="M772 204c35 54 56 113 56 173-2 180-146 327-328 327-182 0-326-147-328-327 0-60 21-119 57-173l-100 0c-2 0-4-2-4-4l0-75c0-2 2-3 4-3l242 0c2 0 4 1 4 3l0 79-37 0c-53 50-82 113-82 173 0 135 109 245 244 245 135 0 244-110 244-245 0-60-29-123-82-173l-37 0 0-79c0-2 2-3 4-3l242 0c2 0 4 1 4 3l0 75c0 2-2 4-4 4z" horiz-adv-x="1000" />

<glyph glyph-name="squares-4" unicode="&#xe89b;" d="M209 454l250 0 0 250-250 0z m332 250l0-250 250 0 0 250z m-332-582l250 0 0 250-250 0z m332 0l250 0 0 250-250 0z" horiz-adv-x="1000" />

<glyph glyph-name="squares-9" unicode="&#xe89c;" d="M166 579l168 0 0 168-168 0z m250 0l168 0 0 168-168 0z m250 168l0-168 168 0 0 168z m-500-418l168 0 0 168-168 0z m250 0l168 0 0 168-168 0z m250 0l168 0 0 168-168 0z m-500-250l168 0 0 168-168 0z m250 0l168 0 0 168-168 0z m250 0l168 0 0 168-168 0z" horiz-adv-x="1000" />

<glyph glyph-name="star-active" unicode="&#xe89d;" d="M750 53l-230 123c-2 0-4 0-4 0l-233-123c-2 0-4 0-4 0-2 2-2 4-2 4l45 258c0 2 0 4-2 4l-187 183c0 0-2 2 0 4 0 2 2 2 2 2l260 39c0 0 2 0 2 2l117 235c0 2 2 2 4 2 0 0 2 0 2-2l117-235c0-2 2-2 2-2l259-39c2 0 2 0 4-2 0-2 0-4-2-4l-187-183c0 0-2-2-2-4l45-258c0-2-2-6-6-4z" horiz-adv-x="1000" />

<glyph glyph-name="text-rotation-90" unicode="&#xe89e;" d="M250 788l0-584-125 0 166-166 168 166-125 0 0 584z m256-209l-90 29 0 111 459-158 0-129-459-144 0 117 92 25z m264-81l-178 57 0-103z" horiz-adv-x="1000" />

<glyph glyph-name="text-rotation-reversed-90" unicode="&#xe89f;" d="M250 38l0 584-125 0 166 166 168-166-125 0 0-584z m256 359l-90 23 0 118 459-145 0-129-459-158 0 111 92 30z m84-24l0-103 178 57z" horiz-adv-x="1000" />

<glyph glyph-name="text-wrap" unicode="&#xe8a0;" d="M250 125l0 575c0 2-2 4-4 4l-76 0c-2 0-4-2-4-4l0-575c0-2 2-3 4-3l76 0c2 0 4 1 4 3z m584 0l0 575c0 2-2 4-4 4l-76 0c-2 0-4-2-4-4l0-575c0-2 2-3 4-3l76 0c2 0 4 1 4 3z m-125 329c0 168-127 209-168 209-14 0-215 0-246 0-2 0-4-2-4-4l0-77c0-1 2-3 4-3l246 0c39 0 84-41 84-125 0-125-84-125-84-125l-78 0c-2 0-4 2-4 3l0 112c0 4-6 6-8 4l-156-158c-2 0-2-4 0-6l156-157c2 0 4-2 4 0 2 0 4 2 4 4l0 112c0 2 2 4 4 4l78 0c0 0 168 0 168 207z" horiz-adv-x="1000" />

<glyph glyph-name="tick" unicode="&#xe8a1;" d="M734 510l-52 55c0 0-2 0-2 0-2 0-4 0-4-2l-217-234c-2-2-6-2-6 0l-138 117c0 2-4 2-6 0l-49-55c-2-2-2-4 0-6l195-178c2-1 4-1 6 0l273 297c2 2 2 6 0 6z" horiz-adv-x="1000" />

<glyph glyph-name="tick-square" unicode="&#xe8a2;" d="M787 704l-574 0c-2 0-4-2-4-4l0-575c0-2 2-3 4-3l574 0c2 0 4 1 4 3l0 575c0 2-2 4-4 4z m-332-497l-195 178c-2 2-2 4 0 6l51 55c0 2 4 2 5 0l137-117c2-2 4-2 6 0l217 234c2 2 2 2 4 2 0 0 2 0 2 0l52-55c2 0 2-4 0-6l-273-297c-2-1-4-1-6 0z" horiz-adv-x="1000" />

<glyph glyph-name="user-remove" unicode="&#xe8a3;" d="M609 602c0-92-74-166-166-166-91 0-168 74-168 166 0 92 77 168 168 168 92 0 166-76 166-168z m-37-238c-17 6-35 8-52 8l-157 0c-82-2-150-67-154-149l0-119c0-2 2-4 4-4l291 0c-22 31-35 66-35 104 0 68 41 130 103 160z m73-12c-59 0-114-35-137-92-24-54-12-119 31-160 43-43 106-57 162-33 55 23 90 78 90 137 0 82-64 148-146 148z m68-166l-135 0 0 37 135 0z" horiz-adv-x="1000" />

<glyph glyph-name="user-remove-x" unicode="&#xe8a4;" d="M609 602c0-92-74-166-166-166-91 0-168 74-168 166 0 92 77 168 168 168 92 0 166-76 166-168z m-37-238c-17 6-35 8-52 8l-157 0c-82-2-150-67-154-149l0-119c0-2 2-4 4-4l291 0c-22 31-35 66-35 104 0 68 41 130 103 160z m73-12c-59 0-114-35-137-92-24-54-12-119 31-160 43-43 106-57 162-33 55 23 90 78 90 137 0 82-64 148-146 148z m64-182l-27-27-35 33-34-33-29 27 33 34-33 35 27 25 34-33 35 33 25-25-33-35z" horiz-adv-x="1000" />

<glyph glyph-name="visible" unicode="&#xe8a5;" d="M500 622c-195 0-346-184-363-207 0-2 0-2 0-4 17-24 168-207 363-207 195 0 354 183 373 207 2 2 2 2 0 4-19 23-178 207-373 207z m123-331c0 0-2-1-2-1-178-135-379 66-244 244 0 0 2 2 2 2 178 134 379-67 244-245z m-123 247c-68 0-125-57-125-125 0-69 57-125 125-125 68 0 125 56 125 125 0 68-57 125-125 125z" horiz-adv-x="1000" />

<glyph glyph-name="zoom-in" unicode="&#xe8a6;" d="M455 622l-76 0c-2 0-4-2-4-4l0-98c0-2-2-4-4-4l-96 0c-2 0-3-2-3-4l0-74c0-2 1-4 3-4l96 0c2 0 4-2 4-4l0-98c0-1 2-3 4-3l76 0c2 0 4 2 4 3l0 98c0 2 2 4 4 4l96 0c2 0 4 2 4 4l0 74c0 2-2 4-4 4l-96 0c-2 0-4 2-4 4l0 98c0 2-2 4-4 4z m209-295c0 2 0 4 0 5 27 41 45 90 45 143 0 148-131 272-293 272-160 0-291-124-291-272 0-148 131-271 291-271 72 0 137 23 188 62 0 2 3 2 3 0l204-203c2-2 5-2 5 0l55 53c0 2 0 4 0 6z m-248-55c-119 0-219 92-219 203 0 111 100 203 219 203 121 0 219-92 219-203 0-111-98-203-219-203z" horiz-adv-x="1000" />

<glyph glyph-name="zoom-out" unicode="&#xe8a7;" d="M275 434l284 0c2 0 4 2 4 4l0 74c0 2-2 4-4 4l-284 0c-2 0-3-2-3-4l0-74c0-2 1-4 3-4z m389-107c0 2 0 4 0 5 27 41 45 90 45 143 0 148-131 272-293 272-160 0-291-124-291-272 0-148 131-271 291-271 72 0 137 23 188 62 0 2 3 2 3 0l204-203c2-2 5-2 5 0l55 53c0 2 0 4 0 6z m-248-55c-119 0-219 92-219 203 0 111 100 203 219 203 121 0 219-92 219-203 0-111-98-203-219-203z" horiz-adv-x="1000" />

<glyph glyph-name="active-filter" unicode="&#xe8a8;" d="M131 784l285-368c0-1 0-1 0-3l0-288c0-2 2-3 2-3l160-79c0-2 2-2 4 0 0 0 2 2 2 2l0 368c0 2 0 2 0 3l285 368c2 0 2 2 0 4 0 2-2 2-2 2l-734 0c-2 0-4-4-2-6z" horiz-adv-x="1000" />

<glyph glyph-name="add-column" unicode="&#xe8a9;" d="M792 725h-584c-45 0-83-37-83-83v-584c0-45 38-83 83-83h584c46 0 83 38 83 83v584c0 46-37 83-83 83z m-313-62v-625h-250l-4 0c-21 4-37 20-37 41v542l0 4c4 21 20 38 41 38h250z m292 0c25 0 42-17 42-42v-542l0-4c-5-21-21-37-42-37h-250v625h250z m-83-230h-42v-62h-63v-42h63v-62h42v62h62v42h-62v62z" horiz-adv-x="1000" />

<glyph glyph-name="add-row" unicode="&#xe8aa;" d="M792 725c46 0 83-37 83-83v-584c0-45-37-83-83-83h-584c-45 0-83 38-83 83v584c0 46 38 83 83 83h584z m21-396h-625v-250c0-21 16-37 37-41l4 0h542c25 0 42 16 42 41v250z m-292-62v-63h62v-41h-62v-63h-42v63h-62v41h62v63h42z m250 396h-542c-21 0-37-17-41-38l0-4v-250h625v250c0 21-17 37-38 42l-4 0z" horiz-adv-x="1000" />

<glyph glyph-name="variable" unicode="&#xe8ab;" d="M197 84c2 0 3 1 5 3 2 3 2 6 2 8 0 4-1 6-3 6-17 7-25 19-25 36 0 8 1 18 4 30l0 0 32 134c1 5 1 10 1 14 0 22-16 37-48 45 43 10 68 30 75 60l0 0 28 118c5 20 11 35 19 44 8 10 19 17 34 22 5 2 7 6 7 12 0 4-1 5-3 5-23 0-47-8-71-26-23-18-38-39-44-64l0 0-30-121c-2-9-8-19-19-27-11-9-23-14-36-15-1 0-3-1-5-3-2-2-3-4-3-6 0-4 2-6 5-6 10-1 19-5 26-12 6-7 9-14 9-23 0-3 0-5 0-8l0 0-32-136c-2-6-3-13-3-19 0-20 8-37 23-51 15-14 32-20 52-20z m361 39c20 0 37 10 51 29 14 18 21 43 21 73 0 6-1 11-2 16-1 6-3 11-5 16-2 5-6 7-13 7-4 0-6-2-6-6 0-32-3-54-7-65-4-10-11-15-21-15-20 0-35 31-46 95l0 0-12 59c2 3 6 9 12 18 51 72 82 108 92 108 5 0 9-6 13-18 6-18 15-27 26-27 11 0 20 5 26 14 6 8 10 20 10 34 0 14-4 26-12 34-8 9-19 13-32 13-16 0-34-10-56-31-21-21-51-58-87-112-14 96-45 143-94 143-21 0-38-9-52-28-13-19-20-43-20-73 0-26 6-39 19-39 5 0 7 1 7 5 0 33 3 54 7 65 4 10 11 15 21 15 9 0 18-8 26-25 9-17 15-40 21-68l0 0 12-62c-49-75-81-113-93-113-6 0-11 5-15 15-5 14-14 22-25 22-11 0-20-5-27-15-7-9-10-21-10-35 0-14 4-25 12-34 8-10 17-15 28-15 15 0 36 14 62 41 26 28 51 61 76 101 11-53 24-90 38-111 15-20 33-31 55-31z m129-39c22 0 44 8 67 23 26 18 42 41 48 67l0 0 30 121c2 9 8 18 18 26 11 10 23 15 37 16 1 0 3 1 4 3 2 2 3 3 3 5 0 1 0 3-1 5 0 1-1 2-3 2-11 2-20 6-26 13-6 7-10 14-10 23 0 2 1 4 1 7l0 0 32 136c2 7 3 14 3 19 0 22-9 39-25 53-15 13-32 19-50 19-3 0-6-3-7-9-1-5 0-8 3-9 9-3 16-8 19-14 4-5 6-13 6-22 0-8-2-18-4-30l0 0-32-134c-1-5-2-10-2-14 0-12 5-22 14-30 8-6 19-11 35-15-21-5-37-11-49-20-13-10-22-23-26-40l0 0-29-118c-4-19-10-33-16-42-8-11-20-19-36-24-2-1-3-2-4-3-1-2-3-5-4-9 0-4 2-5 4-5z" horiz-adv-x="1000" />

<glyph glyph-name="component-padding" unicode="&#xe8ac;" d="M792 683c46 0 83-37 83-83v-542c0-45-37-83-83-83h-584c-45 0-83 38-83 83v542c0 46 38 83 83 83h584z m-21-62h-542c-21 0-37-17-41-38l0-4v-500c0-21 16-37 37-41l4 0h542c21 0 37 16 42 37l0 4v500c0 25-17 42-42 42z m-21-479v-42h-250v42h250z m-42 83v-42h-208v42h208z m-437 208v-83h62v63l84-84-84-83v62h-62v-83h-42v208h42z m396-125v-41h-167v41h167z m83 84v-42h-250v42h250z m-42 83v-42h-208v42h208z m42 83v-41h-250v41h250z" horiz-adv-x="1000" />

<glyph glyph-name="division" unicode="&#xe8ad;" d="M542 183c25 0 41-16 41-41v-84c0-25-16-41-41-41h-84c-25 0-41 16-41 41v84c0 25 16 41 41 41h84z m250 250c25 0 41-16 41-41v-84c0-25-16-41-41-41h-584c-25 0-41 16-41 41v84c0 25 16 41 41 41h584z m-250 250c25 0 41-16 41-41v-84c0-25-16-41-41-41h-84c-25 0-41 16-41 41v84c0 25 16 41 41 41h84z" horiz-adv-x="1000" />
</font>
</defs>
</svg>
