<svg width="61" height="90" viewBox="0 0 61 90" fill="none" xmlns="http://www.w3.org/2000/svg">
<path d="M13.1777 0C5.91521 0 0 5.91521 0 13.1777C0 17.8226 2.42658 21.9066 6.07078 24.2542L3.15109 27.1739C0.552763 29.7722 0.552763 33.9574 3.15109 36.5557L15.6806 49.0835C15.6757 49.1817 15.6653 49.2801 15.6653 49.3795V50.0227L17.3157 51.6714C17.4748 51.8306 17.5539 52.0388 17.5539 52.2465C17.5539 52.4542 17.4748 52.6607 17.3157 52.8199L15.6653 54.4703V56.1411L17.3157 57.7898C17.634 58.1081 17.634 58.62 17.3157 58.9383L15.6653 60.587V62.2595L17.3157 63.9082C17.634 64.2266 17.634 64.7384 17.3157 65.0567L15.6653 66.7054V68.6434L17.3157 70.2938C17.634 70.6121 17.634 71.1239 17.3157 71.4423L15.6653 73.091V74.7618L17.3157 76.4105C17.634 76.7288 17.634 77.2424 17.3157 77.5607L15.6653 79.2094V80.8802L17.3157 82.5289C17.634 82.8472 17.634 83.3608 17.3157 83.6791L15.7622 85.2325C16.2483 87.9495 18.608 90 21.4689 90C24.6839 90 27.2726 87.413 27.2726 84.1981V49.3795C27.2726 49.2801 27.2639 49.1817 27.259 49.0835L27.4223 48.9201L30.3352 49.7011L30.6006 50.1605C30.6675 50.2767 30.7566 50.3786 30.8628 50.4604C30.9691 50.5421 31.0905 50.6021 31.2199 50.6369L33.2719 51.1865L32.7223 53.2384C32.6876 53.3679 32.6788 53.5028 32.6963 53.6357C32.7138 53.7685 32.7574 53.8966 32.8244 54.0126L33.6598 55.4588C33.7267 55.575 33.8158 55.6769 33.922 55.7587C34.0283 55.8404 34.1497 55.9004 34.2791 55.9352L36.3311 56.4831L35.7798 58.5368C35.7108 58.7978 35.7481 59.0756 35.8836 59.3092L36.719 60.7589C36.8544 60.9929 37.0771 61.1637 37.3384 61.2336L39.3903 61.7831L38.839 63.8351C38.8046 63.9646 38.7961 64.0996 38.8139 64.2325C38.8317 64.3653 38.8755 64.4933 38.9428 64.6092L39.911 66.2869C39.9778 66.4031 40.0669 66.505 40.1732 66.5867C40.2794 66.6685 40.4008 66.7285 40.5303 66.7633L42.5822 67.3128L42.0327 69.3648C41.998 69.4942 41.9892 69.6292 42.0067 69.762C42.0242 69.8949 42.0677 70.0229 42.1348 70.139L42.9702 71.5852C43.037 71.7014 43.1261 71.8033 43.2324 71.8851C43.3387 71.9668 43.46 72.0268 43.5895 72.0616L45.6431 72.6112L45.0919 74.6631C45.0572 74.7925 45.0484 74.9275 45.0659 75.0603C45.0834 75.1932 45.1269 75.3213 45.194 75.4373L46.0294 76.8835C46.0962 76.9997 46.1853 77.1016 46.2916 77.1834C46.3979 77.2651 46.5192 77.3251 46.6487 77.3599L48.7024 77.9095L48.1868 79.8321C48.1444 79.9912 48.1412 80.1581 48.1773 80.3187C48.2135 80.4793 48.2879 80.6288 48.3944 80.7543C50.4853 83.2336 54.1092 83.9274 57.0088 82.2533C60.2668 80.3723 61.3878 76.1927 59.5066 72.9344L42.1535 42.88L46.6266 26.1904C47.173 24.1511 46.8439 22.0737 45.866 20.38C44.8882 18.6863 43.2536 17.3636 41.2143 16.8172L26.3385 12.8306C26.1518 5.72927 20.3231 0 13.1777 0ZM13.1777 2.61343C18.6709 2.61343 23.1616 6.77071 23.6893 12.1211L22.597 11.8285C21.8324 11.6236 21.064 11.5413 20.3119 11.5716C17.1225 11.6998 14.2455 13.8363 13.2917 17.0332L7.96109 22.3639C4.76549 20.5507 2.61343 17.1268 2.61343 13.1777C2.61343 7.32761 7.32761 2.61343 13.1777 2.61343ZM20.3834 13.6065C20.9365 13.5864 21.5031 13.647 22.0695 13.7988L23.6893 14.2326C23.6061 15.0773 23.4157 15.8888 23.1466 16.6623C22.6585 16.5148 22.1505 16.4353 21.6374 16.4479C20.8674 16.467 20.0931 16.6739 19.3829 17.0843C17.1107 18.3964 16.3238 21.3301 17.6355 23.6025C18.9471 25.8761 21.8823 26.6638 24.1555 25.3516C26.4298 24.0397 27.2165 21.1033 25.9029 18.83C25.7526 18.5696 25.5751 18.3358 25.3857 18.1154C25.7964 17.1043 26.0797 16.0298 26.2279 14.9132L40.6868 18.7874C42.1968 19.192 43.3823 20.1562 44.0999 21.3992C44.8176 22.6421 45.0609 24.153 44.6563 25.663L40.0692 42.7762C40.032 42.914 40.0242 43.058 40.0462 43.1989C40.0681 43.3399 40.1195 43.4747 40.1968 43.5946C40.2646 43.6996 40.3114 43.7661 40.3312 43.8005L57.7405 73.9536C59.0743 76.2638 58.3002 79.1549 55.9897 80.4889C54.0835 81.5894 51.8169 81.1927 50.3221 79.7487L50.7271 78.2379C50.9855 77.2734 50.3951 76.2504 49.4306 75.9919L47.5845 75.5002L47.1711 74.7839L47.6679 72.9395C47.9263 71.9751 47.3359 70.9521 46.3714 70.6936L44.5253 70.2002L44.1118 69.4856L44.6087 67.6395C44.8666 66.6768 44.2749 65.6533 43.3122 65.3953L41.4661 64.9019L40.9182 63.9542L41.415 62.1098C41.673 61.1471 41.083 60.1236 40.1202 59.8656L38.2742 59.3739L37.859 58.6559L38.3558 56.8115C38.6138 55.8487 38.0238 54.8252 37.061 54.5673L35.215 54.0755L34.8015 53.3592L35.2966 51.5132C35.4253 51.0328 35.3478 50.527 35.1146 50.1231C34.8814 49.7192 34.4857 49.3986 34.0018 49.2689L32.1557 48.7755L32.0451 48.585C32.0311 48.5606 31.9986 48.487 31.9363 48.3655C31.8712 48.2384 31.7802 48.1264 31.6691 48.0367C31.558 47.947 31.4293 47.8816 31.2914 47.8448L14.1765 43.2594C11.1559 42.4501 9.39766 39.4061 10.207 36.3855L15.1957 17.7683C15.8533 15.3139 17.9865 13.6937 20.3834 13.6065ZM23.754 16.892C23.766 16.8975 23.7777 16.9034 23.7897 16.909C23.7777 16.9034 23.766 16.8975 23.754 16.892ZM21.9623 18.4829C22.069 18.4902 22.1707 18.5227 22.2754 18.5424C21.485 19.8837 20.4153 21.037 19.1328 21.9113C19.1581 22.0059 19.1893 22.0989 19.223 22.192C19.187 22.0991 19.1582 22.0059 19.1328 21.9113C18.8205 20.7448 19.3006 19.4847 20.4021 18.8487C20.8964 18.5631 21.4378 18.447 21.9623 18.4829V18.4829ZM22.2771 18.5424C22.4594 18.5769 22.6346 18.628 22.8063 18.699C22.635 18.6302 22.4585 18.5767 22.2771 18.5424ZM22.8624 18.7245C23.0156 18.7919 23.1634 18.867 23.3031 18.9627C23.1632 18.8695 23.0156 18.79 22.8624 18.7245ZM23.4715 19.0971C23.5713 19.1778 23.6752 19.2514 23.7642 19.3472C23.6747 19.2525 23.5718 19.1762 23.4715 19.0971ZM23.7982 19.3863C23.9237 19.5267 24.0402 19.6789 24.1385 19.8491C24.0399 19.6784 23.9246 19.5254 23.7982 19.3863ZM24.3018 20.2098C24.8035 21.4573 24.3385 22.8921 23.1363 23.5855C22.4313 23.9925 21.6326 24.0453 20.9228 23.8135C20.7695 23.7635 20.6214 23.7016 20.4787 23.6247C20.6213 23.7004 20.77 23.7637 20.9228 23.8135C22.2625 22.8348 23.4107 21.6137 24.3018 20.2098ZM19.7062 23.0104C19.7882 23.1046 19.8794 23.1853 19.9716 23.2657C19.8801 23.1847 19.7876 23.1049 19.7062 23.0104ZM20.072 23.3592C20.1907 23.4525 20.3173 23.5343 20.448 23.6059C20.3173 23.5332 20.1906 23.4539 20.072 23.3592ZM39.2678 45.3165C39.1923 45.3194 39.1188 45.3419 39.0547 45.3818C38.9905 45.4217 38.9378 45.4776 38.9017 45.544C38.8657 45.6104 38.8475 45.6851 38.8491 45.7606C38.8506 45.8362 38.8718 45.91 38.9105 45.9749L52.4217 69.3784C52.449 69.4303 52.4866 69.4762 52.532 69.5132C52.5775 69.5503 52.63 69.5778 52.6863 69.5941C52.7427 69.6103 52.8018 69.6151 52.86 69.608C52.9182 69.6009 52.9744 69.5821 53.0252 69.5527C53.076 69.5234 53.1203 69.4841 53.1555 69.4372C53.1908 69.3903 53.2162 69.3367 53.2302 69.2798C53.2442 69.2228 53.2466 69.1636 53.2372 69.1057C53.2278 69.0478 53.2068 68.9924 53.1755 68.9428L39.6642 45.5394C39.6251 45.4693 39.5674 45.4114 39.4974 45.3721C39.4275 45.3327 39.348 45.3135 39.2678 45.3165V45.3165ZM24.3137 50.0312C24.5551 50.0312 24.7493 50.2255 24.7493 50.4668V77.1762C24.7493 77.4175 24.5551 77.6117 24.3137 77.6117C24.0724 77.6117 23.8782 77.4175 23.8782 77.1762V50.4668C23.8782 50.2255 24.0724 50.0312 24.3137 50.0312ZM53.7659 70.4299C53.6904 70.4328 53.6169 70.4553 53.5527 70.4952C53.4885 70.5351 53.4358 70.591 53.3998 70.6574C53.3638 70.7238 53.3456 70.7985 53.3472 70.8741C53.3487 70.9496 53.3699 71.0235 53.4086 71.0884L55.5694 74.8299C55.5967 74.8818 55.6342 74.9276 55.6797 74.9647C55.7252 75.0017 55.7777 75.0292 55.834 75.0455C55.8904 75.0618 55.9494 75.0665 56.0077 75.0594C56.0659 75.0523 56.1221 75.0335 56.1729 75.0042C56.2237 74.9748 56.268 74.9355 56.3032 74.8886C56.3385 74.8417 56.3639 74.7882 56.3779 74.7312C56.3919 74.6743 56.3943 74.6151 56.3849 74.5572C56.3755 74.4993 56.3545 74.4439 56.3232 74.3943L54.1623 70.6528C54.1232 70.5827 54.0655 70.5248 53.9955 70.4855C53.9255 70.4462 53.8461 70.4269 53.7659 70.4299ZM24.3137 79.9512C24.5551 79.9512 24.7493 80.1455 24.7493 80.3868V83.5277C24.7493 83.769 24.5551 83.9632 24.3137 83.9632C24.0724 83.9632 23.8782 83.769 23.8782 83.5277V80.3868C23.8782 80.1455 24.0724 79.9512 24.3137 79.9512Z" fill="#A5C0F3"/>
</svg>
