<svg width="91" height="90" viewBox="0 0 91 90" fill="none" xmlns="http://www.w3.org/2000/svg">
<path d="M1.42989 90C1.8098 90.0027 2.17537 89.8553 2.44673 89.5898L27.2287 64.8415C27.2678 64.7994 27.3042 64.7549 27.3376 64.7082C27.5538 64.4341 27.6617 64.0904 27.6411 63.7422C27.6204 63.394 27.4725 63.0654 27.2254 62.8188C26.9783 62.5721 26.6492 62.4245 26.3004 62.4039C25.9515 62.3832 25.6072 62.491 25.3327 62.7068C25.2859 62.7402 25.2413 62.7765 25.1992 62.8155L0.415113 87.5557C0.216213 87.7566 0.0811266 88.0117 0.0267739 88.2889C-0.0275789 88.5661 0.00121851 88.8532 0.109559 89.1141C0.2179 89.3751 0.400967 89.5983 0.635831 89.7559C0.870696 89.9135 1.14691 89.9984 1.42989 90Z" fill="#A5C0F3"/>
<path d="M8.9011 71.2473C9.2803 71.2495 9.64503 71.1021 9.91588 70.8372L21.3722 59.4011C21.4099 59.3611 21.4449 59.3187 21.477 59.274C21.56 59.22 21.6371 59.1575 21.707 59.0874C21.9755 58.8184 22.1262 58.4541 22.1262 58.0744C22.1262 57.6947 21.9755 57.3305 21.707 57.0614L16.8365 52.1975L40.4003 48.531L40.5585 69.0368C40.5618 69.4153 40.7147 69.7773 40.984 70.0438C41.2533 70.3103 41.6172 70.4599 41.9965 70.4599H42.0088C42.3877 70.4561 42.7497 70.3032 43.0163 70.0344C43.2829 69.7656 43.4324 69.4027 43.4324 69.0245L43.2721 48.1086L53.8657 46.4354C54.8242 46.2912 55.7108 45.8432 56.3947 45.1575C57.0787 44.4719 57.5236 43.5848 57.6639 42.6274L59.2313 32.2864L80.0589 32.4463H80.0712C80.4526 32.4477 80.8189 32.2978 81.0895 32.0296C81.3601 31.7613 81.5129 31.3968 81.5143 31.0161C81.5157 30.6354 81.3655 30.2697 81.0968 29.9996C80.8281 29.7294 80.4629 29.5769 80.0815 29.5755L59.6606 29.4156L63.2288 5.90988L86.2462 28.8763C86.9115 29.5411 87.2852 30.4424 87.2852 31.3821C87.2852 32.3218 86.9115 33.2231 86.2462 33.8879L44.8826 75.1844C44.2164 75.8481 43.3136 76.2208 42.3724 76.2208C41.4312 76.2208 40.5284 75.8481 39.8621 75.1844L33.4777 68.8112C33.4503 68.7863 33.4215 68.763 33.3914 68.7415C33.2806 68.5542 33.1282 68.3949 32.9458 68.2758C32.7634 68.1568 32.5561 68.0813 32.3398 68.0551C32.1235 68.0289 31.904 68.0528 31.6985 68.1249C31.4929 68.197 31.3067 68.3153 31.1543 68.4708L31.1318 68.4954L24.4289 75.1844C24.2815 75.3141 24.1624 75.4725 24.0787 75.6499C23.9951 75.8274 23.9488 76.02 23.9426 76.216C23.9365 76.412 23.9706 76.6072 24.0429 76.7895C24.1152 76.9718 24.2242 77.1374 24.3631 77.276C24.502 77.4147 24.6679 77.5235 24.8505 77.5956C25.0331 77.6678 25.2287 77.7019 25.425 77.6957C25.6213 77.6896 25.8143 77.6433 25.9921 77.5599C26.1698 77.4764 26.3285 77.3574 26.4584 77.2104L32.1465 71.5344L37.8326 77.2104C39.0376 78.4105 40.6702 79.0844 42.3724 79.0844C44.0745 79.0844 45.7072 78.4105 46.9122 77.2104L88.2757 35.9221C89.4795 34.72 90.1557 33.0899 90.1557 31.3903C90.1557 29.6907 89.4795 28.0606 88.2757 26.8585L63.2514 1.8764L63.2185 1.84769L63.1897 1.82309C61.9818 0.645154 60.3574 -0.0098685 58.6688 0.000112411C56.9801 0.0100933 55.3636 0.684273 54.1697 1.8764L12.8082 43.1647C11.6196 44.3488 10.944 45.9512 10.9267 47.6274C10.9094 49.3035 11.5518 50.9195 12.7158 52.1278V52.1421C12.7445 52.1708 12.7692 52.2016 12.7979 52.2303L18.6422 58.0642L7.89454 68.8112C7.69884 69.012 7.5663 69.2656 7.51324 69.5407C7.46018 69.8158 7.48893 70.1004 7.59594 70.3594C7.70295 70.6184 7.88355 70.8405 8.11547 70.9982C8.34739 71.156 8.62049 71.2426 8.9011 71.2473ZM54.825 42.1907C54.7725 42.5435 54.6081 42.8703 54.356 43.1231C54.1039 43.3758 53.7773 43.5413 53.424 43.5953L14.3941 49.6691C13.9347 48.9871 13.727 48.1669 13.8064 47.3489C13.8858 46.5308 14.2475 45.7658 14.8295 45.1845L56.1993 3.90237C56.7816 3.32266 57.5475 2.96279 58.3662 2.88425C59.1848 2.80571 60.0054 3.01337 60.6877 3.47175L54.825 42.1907Z" fill="#A5C0F3"/>
<path d="M18.0916 81.5105L13.2354 86.3663C13.0901 86.4966 12.9728 86.6551 12.8909 86.8322C12.8089 87.0092 12.764 87.2011 12.7588 87.3961C12.7536 87.591 12.7883 87.785 12.8607 87.9662C12.9331 88.1473 13.0418 88.3118 13.18 88.4497C13.3182 88.5875 13.4831 88.6958 13.6647 88.7679C13.8462 88.84 14.0406 88.8744 14.2359 88.869C14.4312 88.8637 14.6234 88.8186 14.8006 88.7366C14.9779 88.6546 15.1366 88.5375 15.267 88.3922L20.1293 83.5365C20.2767 83.4068 20.3958 83.2483 20.4795 83.0709C20.5631 82.8935 20.6094 82.7008 20.6156 82.5049C20.6217 82.3089 20.5876 82.1137 20.5153 81.9314C20.443 81.7491 20.334 81.5835 20.1951 81.4448C20.0562 81.3062 19.8903 81.1974 19.7077 81.1252C19.5251 81.053 19.3296 81.019 19.1332 81.0251C18.9369 81.0313 18.7439 81.0775 18.5662 81.161C18.3884 81.2445 18.2297 81.3634 18.0998 81.5105H18.0916Z" fill="#A5C0F3"/>
</svg>
