<svg width="136" height="100" viewBox="0 0 136 100" fill="none" xmlns="http://www.w3.org/2000/svg">
<path d="M101.7 24.6522C100.364 24.2361 98.9852 24.185 97.6446 24.4124L99.0221 19.9904C100.457 15.3819 97.8766 10.4648 93.2689 9.03046C91.7701 8.56273 90.2153 8.54149 88.7253 8.88365C88.778 5.10712 86.3662 1.57878 82.5814 0.400617C80.3484 -0.294656 77.9792 -0.0801231 75.909 1.00663C74.6033 1.69202 73.5488 2.69744 72.749 3.88814C71.7208 2.77476 70.4402 1.9183 68.9539 1.45449C64.3438 0.0232282 59.4292 2.60231 57.994 7.20928L50.7326 30.5199C49.1704 28.213 46.8536 26.3952 43.993 25.504C41.4836 24.7226 38.8035 26.1288 38.0213 28.639L28.3314 59.7447C26.9067 64.3179 21.3744 87.6152 52.3814 97.2835C52.3876 97.2855 52.3927 97.289 52.3989 97.2909C58.4614 99.1779 63.6196 100.002 68.0308 100C87.3943 100 92.3356 84.1434 95.8229 72.9486L107.453 35.6121C108.888 31.0036 106.308 26.0866 101.7 24.6522ZM102.86 34.1809L91.23 71.5173C85.9482 88.4732 79.8348 100.8 53.8302 92.6965C53.8263 92.6953 53.8223 92.6953 53.8184 92.6942C27.8444 84.5964 31.2584 66.5227 32.9242 61.1759L42.5617 30.0953C46.7336 31.3962 49.071 35.8456 47.774 40.0177L44.0494 51.9745C43.6759 53.1725 44.2941 54.4313 45.4311 54.901C45.4937 54.9274 45.5512 54.9613 45.6169 54.9827C46.0655 55.1283 56.5862 58.7252 54.5756 73.434C54.3963 74.7494 55.317 75.963 56.6332 76.1431C57.9407 76.3138 59.1614 75.4024 59.3422 74.0854C61.295 59.7996 53.3082 53.583 49.2695 51.3921L50.0572 48.8637L52.366 41.453L52.3681 41.445L62.5868 8.64054C63.2328 6.56568 65.447 5.4022 67.5234 6.04736C68.5288 6.36211 69.3524 7.04799 69.8418 7.97972C70.3312 8.91301 70.4282 9.97941 70.1151 10.9847L61.6105 38.2883C61.5116 38.6054 61.4818 38.9275 61.5124 39.2384C61.6043 40.1713 62.2406 41.004 63.1913 41.3011C63.325 41.3425 63.4595 41.3651 63.5936 41.3828C64.7341 41.5363 65.8496 40.8545 66.2034 39.7195L76.2136 7.5851C76.5268 6.57821 77.2126 5.7561 78.1451 5.26596C79.0761 4.77739 80.1456 4.67717 81.1502 4.99192C83.2258 5.63865 84.3885 7.85444 83.7418 9.9293L73.7316 42.0637C73.3362 43.3321 74.0448 44.6804 75.3124 45.075C75.3227 45.0783 75.3328 45.0767 75.3431 45.0797C75.3573 45.0844 75.3693 45.0924 75.3836 45.097C76.6536 45.4978 78.0003 44.7853 78.3957 43.5169L86.901 16.2149C87.2142 15.208 87.9001 14.3859 88.8326 13.8958C89.7643 13.4057 90.8339 13.307 91.8376 13.6218C93.9133 14.2685 95.076 16.4843 94.4292 18.5591L83.777 52.7543C83.3816 54.0228 84.0902 55.371 85.3578 55.7656C85.5966 55.8408 85.837 55.8752 86.0742 55.8752C87.0991 55.8752 88.0489 55.216 88.3699 54.1856L89.8832 49.3279L89.8857 49.3218L95.332 31.8367C95.6452 30.8313 96.3311 30.0077 97.2636 29.5175C98.1961 29.0274 99.2641 28.9287 100.269 29.2435C102.344 29.8902 103.507 32.106 102.86 34.1809Z" fill="#A5C0F3"/>
<path d="M34.6907 10.5338C35.7916 9.79786 36.0891 8.31022 35.3562 7.20468C34.6234 6.1007 33.1287 5.80004 32.0224 6.53133C31.6027 6.81006 21.6778 13.567 15.9661 31.9041C10.2536 50.2427 14.5858 61.4391 14.7729 61.9073C15.1495 62.8469 16.0522 63.4184 17.0067 63.4184C17.3042 63.4184 17.6064 63.3636 17.9 63.2462C19.1332 62.7529 19.7322 61.353 19.2389 60.119C19.1998 60.0204 15.3499 50.0579 20.559 33.3353C25.7023 16.8211 34.5404 10.6372 34.6907 10.5338Z" fill="#A5C0F3"/>
<path d="M16.7215 11.3842C17.5577 10.3507 17.3987 8.83642 16.366 8.00022C15.3333 7.16401 13.8182 7.32373 12.9836 8.35568C8.76108 13.5702 5.28785 20.31 2.93974 27.8468C0.669921 35.1331 -0.293125 42.1406 0.0772171 48.6752C0.14925 49.9546 1.21017 50.9443 2.47622 50.9443C2.52242 50.9443 2.56861 50.9427 2.61481 50.9411C3.94115 50.866 4.95509 49.7291 4.87992 48.4028C4.54247 42.446 5.43505 36.0116 7.53261 29.2781C10.273 20.4822 14.0422 14.693 16.7215 11.3842Z" fill="#A5C0F3"/>
<path d="M120.784 34.1807C120.29 32.9483 118.895 32.3486 117.657 32.8419C116.424 33.3351 115.825 34.7351 116.318 35.969C116.358 36.0677 120.207 46.0301 114.998 62.7527C109.855 79.267 101.017 85.4508 100.867 85.5542C99.7658 86.2902 99.4683 87.7778 100.201 88.8833C100.664 89.5802 101.428 89.9576 102.207 89.9576C102.664 89.9576 103.126 89.8276 103.535 89.5567C103.955 89.278 113.88 82.521 119.591 64.1839C125.304 45.8453 120.972 34.6489 120.784 34.1807Z" fill="#A5C0F3"/>
<path d="M135.48 47.4127C135.405 46.0863 134.244 45.1014 132.942 45.1468C131.616 45.2219 130.602 46.3588 130.677 47.6851C131.015 53.6419 130.122 60.0763 128.025 66.8098C125.284 75.6057 121.515 81.3949 118.836 84.7037C117.999 85.7372 118.158 87.2515 119.191 88.0877C119.637 88.4479 120.171 88.6232 120.703 88.6232C121.404 88.6232 122.098 88.3179 122.574 87.7322C126.796 82.5177 130.269 75.7779 132.617 68.2411C134.887 60.9548 135.85 53.9473 135.48 47.4127Z" fill="#A5C0F3"/>
</svg>
