<svg width="872" height="344" viewBox="0 0 872 344" fill="none" xmlns="http://www.w3.org/2000/svg">
<g clip-path="url(#clip0)">
<path d="M3.53516 162.22C94.4211 157.701 98.9654 94.892 193.891 94.4401C289.826 94.4401 270.134 255.305 373.138 255.305C469.578 255.305 482.201 3.16309 578.641 3.16309C677.101 3.16309 689.724 215.54 771.016 147.308C805.351 118.389 805.351 99.4106 868.466 126.523" stroke="#3D92FF" stroke-width="2" stroke-miterlimit="10" stroke-linecap="round" stroke-dasharray="1 5"/>
<path d="M3.53516 183.006C94.4211 178.487 98.9654 115.226 193.891 115.226C289.826 114.774 270.134 273.831 373.138 273.831C469.578 273.831 482.201 32.5344 578.641 32.5344C677.101 32.5344 689.724 236.326 771.016 167.642C805.351 138.723 805.351 119.745 868.466 146.857" stroke="#3D92FF" stroke-width="2" stroke-miterlimit="10" stroke-linecap="round" stroke-dasharray="1 5"/>
<path d="M3.53516 204.244C94.4211 199.725 98.9654 136.464 193.891 136.464C289.826 136.012 270.134 292.358 373.138 292.358C469.578 292.358 482.201 62.3575 578.641 62.3575C677.101 62.3575 689.724 257.564 771.016 188.88C805.351 159.961 805.351 140.982 868.466 168.094" stroke="#3D92FF" stroke-width="2" stroke-miterlimit="10" stroke-linecap="round" stroke-dasharray="1 5"/>
<path d="M3.53516 225.029C94.4211 220.511 98.9654 157.249 193.891 157.249C289.826 156.798 270.134 310.884 373.138 310.884C469.578 310.884 482.201 92.1807 578.641 92.1807C677.101 92.1807 689.724 278.35 771.016 210.118C805.351 181.198 805.351 162.22 868.466 189.332" stroke="#3D92FF" stroke-width="2" stroke-miterlimit="10" stroke-linecap="round" stroke-dasharray="1 5"/>
<path d="M3.53516 245.815C94.4211 241.297 98.9654 178.035 193.891 178.035C289.826 177.583 270.134 328.959 373.138 328.959C469.578 328.959 482.201 121.552 578.641 121.552C677.101 121.552 689.724 299.135 771.016 230.452C805.351 201.532 805.351 182.554 868.466 209.666" stroke="#3D92FF" stroke-width="2" stroke-miterlimit="10" stroke-linecap="round" stroke-dasharray="1 5"/>
<path d="M3.53516 266.601C94.4211 262.534 98.9654 198.821 193.891 198.821C289.826 198.369 270.134 347.033 373.138 347.033C469.578 347.033 482.201 150.923 578.641 150.923C677.101 150.923 689.724 319.921 771.016 251.238C805.351 222.318 805.351 203.34 868.466 230.452" stroke="#3D92FF" stroke-width="2" stroke-miterlimit="10" stroke-linecap="round" stroke-dasharray="1 5"/>
<path d="M3.53516 287.387C94.4211 283.32 98.9654 219.607 193.891 219.607C289.826 219.155 270.134 365.56 373.138 365.56C469.578 365.56 482.201 180.747 578.641 180.747C677.101 180.747 689.724 340.707 771.016 272.475C805.351 243.556 805.351 224.578 868.466 251.69" stroke="#3D92FF" stroke-width="2" stroke-miterlimit="10" stroke-linecap="round" stroke-dasharray="1 5"/>
<path d="M3.53516 308.173C94.4211 304.106 98.9654 240.393 193.891 240.393C289.826 239.941 270.134 383.635 373.138 383.635C469.578 383.635 482.201 210.118 578.641 210.118C677.101 210.118 689.724 361.493 771.016 292.809C805.351 263.89 805.351 244.912 868.466 272.024" stroke="#3D92FF" stroke-width="2" stroke-miterlimit="10" stroke-linecap="round" stroke-dasharray="1 5"/>
<path d="M3.53516 328.959C94.4211 324.892 98.9654 261.179 193.891 261.179C289.826 260.727 270.134 402.161 373.138 402.161C469.578 401.709 482.201 239.489 578.641 239.489C677.101 239.489 689.724 382.279 771.016 313.595C805.351 284.676 805.351 265.697 868.466 292.809" stroke="#3D92FF" stroke-width="2" stroke-miterlimit="10" stroke-linecap="round" stroke-dasharray="1 5"/>
<path d="M3.53516 349.745C94.926 345.678 98.9654 281.965 193.891 281.965C289.826 281.513 270.134 420.236 373.138 420.236C469.578 420.236 482.201 269.312 578.641 269.312C677.101 269.312 689.724 403.065 771.016 334.833C805.351 305.914 805.351 286.935 868.466 314.047" stroke="#3D92FF" stroke-width="2" stroke-miterlimit="10" stroke-linecap="round" stroke-dasharray="1 5"/>
<path d="M3.53516 370.53C94.926 366.464 98.9654 302.75 193.891 302.75C289.826 302.299 270.134 438.31 373.138 438.31C469.578 438.31 482.201 298.684 578.641 298.684C677.101 298.684 689.724 423.851 771.016 355.619C805.351 326.699 805.351 307.721 868.466 334.833" stroke="#3D92FF" stroke-width="2" stroke-miterlimit="10" stroke-linecap="round" stroke-dasharray="1 5"/>
<path d="M3.53516 391.316C94.926 387.25 98.9654 323.988 193.891 323.536C289.826 323.536 270.134 456.837 373.138 456.837C469.578 456.837 482.201 328.507 578.641 328.507C677.101 328.507 689.724 445.088 771.016 376.405C805.351 347.485 805.351 328.507 868.466 355.619" stroke="#3D92FF" stroke-width="2" stroke-miterlimit="10" stroke-linecap="round" stroke-dasharray="1 5"/>
<path d="M869.468 238.833C778.318 234.996 773.761 181.659 678.56 181.275C582.346 181.275 602.095 317.879 498.792 317.879C402.072 317.879 389.412 103.764 292.692 103.764C193.946 103.764 181.287 284.112 99.7583 226.17C65.3239 201.612 65.3239 185.496 2.02539 208.519" stroke="#B3D4FF" stroke-width="0.981" stroke-miterlimit="10" stroke-linecap="round" stroke-dasharray="1 3"/>
<path d="M869.468 256.484C778.318 252.647 773.761 198.926 678.56 198.926C582.346 198.543 602.095 333.612 498.792 333.612C402.072 333.612 389.413 128.705 292.692 128.705C193.947 128.705 181.287 301.763 100.265 243.821C65.8307 219.263 65.8307 203.147 2.53223 226.17" stroke="#B3D4FF" stroke-width="0.981" stroke-miterlimit="10" stroke-linecap="round" stroke-dasharray="1 3"/>
<path d="M869.468 274.135C778.318 270.298 773.761 216.577 678.56 216.577C582.346 216.194 602.095 348.961 498.792 348.961C402.072 348.961 389.413 153.647 292.692 153.647C193.947 153.647 181.287 319.414 99.7587 261.089C65.3243 236.531 65.8307 220.798 2.53223 243.821" stroke="#B3D4FF" stroke-width="0.981" stroke-miterlimit="10" stroke-linecap="round" stroke-dasharray="1 3"/>
<path d="M869.468 291.786C778.318 287.949 773.761 234.228 678.56 234.228C582.346 233.845 602.095 364.693 498.792 364.693C402.072 364.693 389.412 178.973 292.692 178.973C193.946 178.973 181.287 337.065 99.7583 279.124C65.3239 254.566 65.3239 238.449 2.02539 261.473" stroke="#B3D4FF" stroke-width="0.981" stroke-miterlimit="10" stroke-linecap="round" stroke-dasharray="1 3"/>
<path d="M869.468 309.821C778.318 305.984 773.761 252.263 678.56 252.263C582.346 251.496 602.601 380.042 498.792 380.042C402.072 380.042 389.412 203.915 292.692 203.915C193.946 203.915 181.287 354.717 99.7583 296.391C65.3239 271.833 65.3239 255.717 2.02539 278.74" stroke="#B3D4FF" stroke-width="0.981" stroke-miterlimit="10" stroke-linecap="round" stroke-dasharray="1 3"/>
<path d="M869.468 327.472C778.318 324.019 773.761 269.914 678.56 269.914C582.346 269.531 602.095 395.775 498.792 395.775C402.072 395.775 389.413 229.24 292.692 229.24C193.947 229.24 181.287 372.751 99.7587 314.426C65.3243 289.868 65.8307 273.752 2.53223 296.775" stroke="#B3D4FF" stroke-width="0.981" stroke-miterlimit="10" stroke-linecap="round" stroke-dasharray="1 3"/>
<path d="M869.468 345.124C778.318 341.67 773.761 287.566 678.56 287.566C582.346 287.182 602.095 411.507 498.792 411.507C402.072 411.507 389.412 254.566 292.692 254.566C193.946 254.566 181.287 390.403 99.7583 332.461C65.3239 307.903 65.3239 291.786 2.02539 314.81" stroke="#B3D4FF" stroke-width="0.981" stroke-miterlimit="10" stroke-linecap="round" stroke-dasharray="1 3"/>
<path d="M869.468 362.775C777.812 359.321 773.761 305.217 678.56 305.217C582.346 304.833 602.095 426.856 498.792 426.856C402.072 426.856 389.413 279.507 292.692 279.507C193.947 279.507 181.287 408.054 99.7587 349.728C65.3243 325.17 65.8307 309.054 2.53223 332.077" stroke="#B3D4FF" stroke-width="0.981" stroke-miterlimit="10" stroke-linecap="round" stroke-dasharray="1 3"/>
<path d="M869.468 380.426C777.812 376.972 773.761 322.868 678.56 322.868C582.346 322.484 602.095 442.588 498.792 442.588C402.072 442.588 389.412 304.833 292.692 304.833C193.946 304.833 181.287 426.089 99.7583 367.763C65.3239 343.205 65.3239 327.089 2.02539 350.112" stroke="#B3D4FF" stroke-width="0.981" stroke-miterlimit="10" stroke-linecap="round" stroke-dasharray="1 3"/>
<path d="M869.468 398.077C777.812 394.624 773.761 340.519 678.56 340.519C582.346 340.135 602.095 457.937 498.792 457.937C402.072 457.937 389.412 329.775 292.692 329.775C193.946 329.775 181.287 443.356 99.7583 385.414C65.3239 360.856 65.3239 344.74 2.02539 367.763" stroke="#B3D4FF" stroke-width="0.981" stroke-miterlimit="10" stroke-linecap="round" stroke-dasharray="1 3"/>
</g>
<defs>
<clipPath id="clip0">
<rect width="872" height="460" fill="white"/>
</clipPath>
</defs>
</svg>
