<svg width="109" height="109" viewBox="0 0 109 109" fill="none" xmlns="http://www.w3.org/2000/svg">
<path d="M0 47.6874C0 73.9836 21.3912 95.3748 47.6874 95.3748C48.9409 95.3748 49.9582 94.3575 49.9582 93.104C49.9582 91.8505 48.9409 90.8332 47.6874 90.8332C23.8982 90.8332 4.54166 71.4766 4.54166 47.6874C4.54166 23.8982 23.8982 4.54166 47.6874 4.54166C71.4766 4.54166 90.8332 23.8982 90.8332 47.6874C90.8332 48.9409 91.8505 49.9582 93.104 49.9582C94.3575 49.9582 95.3748 48.9409 95.3748 47.6874C95.3748 21.3912 73.9836 0 47.6874 0C21.3912 0 0 21.3912 0 47.6874Z" fill="#A5C0F3"/>
<path d="M47.6873 14.2659C46.4338 14.2659 45.4165 15.2832 45.4165 16.5367V47.6879C45.4165 48.9414 46.4338 49.9588 47.6873 49.9588H69.1603C70.4138 49.9588 71.4311 48.9414 71.4311 47.6879C71.4311 46.4344 70.4138 45.4171 69.1603 45.4171H49.9582V16.5367C49.9582 15.2787 48.9408 14.2659 47.6873 14.2659Z" fill="#A5C0F3"/>
<path d="M103.723 73.3979H99.6898V70.1688C99.6898 64.033 94.694 59.0417 88.5582 59.0417C82.4224 59.0417 77.4266 64.0376 77.4266 70.1688V73.3979H73.3936C70.4824 73.3979 68.1162 75.8186 68.1162 78.7934V103.595C68.1253 106.579 70.4915 109 73.4027 109H103.727C106.634 109 109 106.579 109 103.6V78.798C109 75.8186 106.634 73.3979 103.723 73.3979ZM81.9728 70.1688C81.9728 66.5355 84.9294 63.5834 88.5628 63.5834C92.1961 63.5834 95.1527 66.5355 95.1527 70.1688V73.3979H81.9773L81.9728 70.1688ZM104.459 103.6C104.459 104.072 104.132 104.458 103.723 104.458H73.3982C72.9939 104.458 72.667 104.072 72.667 103.6V78.798C72.667 78.3256 72.994 77.9441 73.4027 77.9441H103.727C104.132 77.9441 104.463 78.3302 104.463 78.798V103.6H104.459Z" fill="#A5C0F3"/>
<path d="M88.5625 87.4136C86.4733 87.4136 84.7793 89.1076 84.7793 91.1968C84.7793 93.2859 86.4733 94.98 88.5625 94.98C90.6517 94.98 92.3457 93.2859 92.3457 91.1968C92.3457 89.1076 90.6517 87.4136 88.5625 87.4136Z" fill="#A5C0F3"/>
</svg>
