<svg id="Layer_1" data-name="Layer 1" xmlns="http://www.w3.org/2000/svg" xmlns:xlink="http://www.w3.org/1999/xlink" viewBox="0 0 177 192.07"><defs><style>.cls-1{fill:#fff;}.cls-10,.cls-11,.cls-12,.cls-13,.cls-14,.cls-15,.cls-16,.cls-17,.cls-18,.cls-19,.cls-2,.cls-20,.cls-21,.cls-22,.cls-23,.cls-24,.cls-25,.cls-26,.cls-3,.cls-4,.cls-5,.cls-6,.cls-7,.cls-8,.cls-9{fill:none;stroke-miterlimit:10;}.cls-10,.cls-11,.cls-12,.cls-13,.cls-14,.cls-15,.cls-16,.cls-17,.cls-18,.cls-19,.cls-2,.cls-20,.cls-21,.cls-22,.cls-23,.cls-24,.cls-25,.cls-3,.cls-4,.cls-5,.cls-6,.cls-7,.cls-8,.cls-9{stroke-linecap:round;}.cls-10,.cls-11,.cls-12,.cls-13,.cls-2,.cls-3,.cls-4,.cls-5,.cls-6,.cls-7,.cls-8,.cls-9{stroke-width:0.98px;}.cls-2{stroke-dasharray:0 1.97;stroke:url(#linear-gradient);}.cls-3{stroke-dasharray:0 1.97;stroke:url(#linear-gradient-2);}.cls-4{stroke-dasharray:0 1.96;stroke:url(#linear-gradient-3);}.cls-5{stroke-dasharray:0 1.96;stroke:url(#linear-gradient-4);}.cls-6{stroke-dasharray:0 1.96;stroke:url(#linear-gradient-5);}.cls-7{stroke-dasharray:0 1.96;stroke:url(#linear-gradient-6);}.cls-8{stroke-dasharray:0 1.96;stroke:url(#linear-gradient-7);}.cls-9{stroke-dasharray:0 1.96;stroke:url(#linear-gradient-8);}.cls-10{stroke-dasharray:0 1.96;stroke:url(#linear-gradient-9);}.cls-11{stroke-dasharray:0 1.96;stroke:url(#linear-gradient-10);}.cls-12{stroke-dasharray:0 1.96;stroke:url(#linear-gradient-11);}.cls-13{stroke-dasharray:0 1.96;stroke:url(#linear-gradient-12);}.cls-14,.cls-15,.cls-16,.cls-17,.cls-18,.cls-19,.cls-20,.cls-21,.cls-22,.cls-23,.cls-24,.cls-25{stroke-width:1.42px;stroke-dasharray:0 2.84;}.cls-14{stroke:url(#White_Black_2);}.cls-15{stroke:url(#White_Black_2-2);}.cls-16{stroke:url(#White_Black_2-3);}.cls-17{stroke:url(#White_Black_2-4);}.cls-18{stroke:url(#White_Black_2-5);}.cls-19{stroke:url(#White_Black_2-6);}.cls-20{stroke:url(#White_Black_2-7);}.cls-21{stroke:url(#White_Black_2-8);}.cls-22{stroke:url(#White_Black_2-9);}.cls-23{stroke:url(#White_Black_2-10);}.cls-24{stroke:url(#White_Black_2-11);}.cls-25{stroke:url(#White_Black_2-12);}.cls-26{stroke:#00a4e4;stroke-width:3px;}</style><linearGradient id="linear-gradient" x1="7112.85" y1="7148.04" x2="7285.06" y2="7148.04" gradientUnits="userSpaceOnUse"><stop offset="0" stop-color="#041ef6"/><stop offset="1" stop-color="#02fbf1"/></linearGradient><linearGradient id="linear-gradient-2" x1="7112.85" y1="7153.33" x2="7285.06" y2="7153.33" xlink:href="#linear-gradient"/><linearGradient id="linear-gradient-3" x1="7112.85" y1="7158.63" x2="7285.06" y2="7158.63" xlink:href="#linear-gradient"/><linearGradient id="linear-gradient-4" x1="7112.85" y1="7163.92" x2="7285.06" y2="7163.92" xlink:href="#linear-gradient"/><linearGradient id="linear-gradient-5" x1="7112.85" y1="7169.21" x2="7285.06" y2="7169.21" xlink:href="#linear-gradient"/><linearGradient id="linear-gradient-6" x1="7112.85" y1="7174.5" x2="7285.06" y2="7174.5" xlink:href="#linear-gradient"/><linearGradient id="linear-gradient-7" x1="7112.85" y1="7179.8" x2="7285.06" y2="7179.8" xlink:href="#linear-gradient"/><linearGradient id="linear-gradient-8" x1="7112.85" y1="7185.09" x2="7285.06" y2="7185.09" xlink:href="#linear-gradient"/><linearGradient id="linear-gradient-9" x1="7112.85" y1="7190.38" x2="7285.06" y2="7190.38" xlink:href="#linear-gradient"/><linearGradient id="linear-gradient-10" x1="7112.85" y1="7195.68" x2="7285.06" y2="7195.68" xlink:href="#linear-gradient"/><linearGradient id="linear-gradient-11" x1="7112.85" y1="7200.97" x2="7285.07" y2="7200.97" xlink:href="#linear-gradient"/><linearGradient id="linear-gradient-12" x1="7112.85" y1="7205.74" x2="7285.07" y2="7205.74" xlink:href="#linear-gradient"/><linearGradient id="White_Black_2" x1="8574.43" y1="7151.34" x2="8747.07" y2="7151.34" gradientTransform="matrix(-1, 0, 0, 1, 15860.25, 0)" gradientUnits="userSpaceOnUse"><stop offset="0" stop-color="#fff"/><stop offset="1" stop-color="#1d1d1b"/></linearGradient><linearGradient id="White_Black_2-2" x1="8574.43" y1="7156.64" x2="8747.07" y2="7156.64" xlink:href="#White_Black_2"/><linearGradient id="White_Black_2-3" x1="8574.43" y1="7161.93" x2="8747.07" y2="7161.93" xlink:href="#White_Black_2"/><linearGradient id="White_Black_2-4" x1="8574.43" y1="7167.22" x2="8747.07" y2="7167.22" xlink:href="#White_Black_2"/><linearGradient id="White_Black_2-5" x1="8574.43" y1="7172.52" x2="8747.07" y2="7172.52" xlink:href="#White_Black_2"/><linearGradient id="White_Black_2-6" x1="8574.43" y1="7177.81" x2="8747.08" y2="7177.81" xlink:href="#White_Black_2"/><linearGradient id="White_Black_2-7" x1="8574.43" y1="7183.1" x2="8747.08" y2="7183.1" xlink:href="#White_Black_2"/><linearGradient id="White_Black_2-8" x1="8574.43" y1="7188.4" x2="8747.08" y2="7188.4" xlink:href="#White_Black_2"/><linearGradient id="White_Black_2-9" x1="8574.43" y1="7193.69" x2="8747.08" y2="7193.69" xlink:href="#White_Black_2"/><linearGradient id="White_Black_2-10" x1="8574.43" y1="7198.98" x2="8747.08" y2="7198.98" xlink:href="#White_Black_2"/><linearGradient id="White_Black_2-11" x1="8574.43" y1="7204.27" x2="8747.08" y2="7204.27" xlink:href="#White_Black_2"/><linearGradient id="White_Black_2-12" x1="8574.43" y1="7209.05" x2="8747.08" y2="7209.05" xlink:href="#White_Black_2"/></defs><title>Untitled-2</title><path class="cls-1" d="M7131.88,7276.63a12.7,12.7,0,0,1-4.63-17.31,12.56,12.56,0,0,1,4.63-4.58,13,13,0,0,1,6.56-1.68,12.56,12.56,0,0,1,5.15,1.06v7a6.38,6.38,0,0,0-2.26-1.74,6.91,6.91,0,0,0-2.89-.62,6.79,6.79,0,0,0-3.5.91,6.66,6.66,0,0,0-2.46,2.51,7.11,7.11,0,0,0-.89,3.52,7,7,0,0,0,.89,3.49,6.68,6.68,0,0,0,2.46,2.49,6.79,6.79,0,0,0,3.5.91,6.91,6.91,0,0,0,2.89-.62,6.61,6.61,0,0,0,2.26-1.69v7a12.56,12.56,0,0,1-5.15,1.06A12.87,12.87,0,0,1,7131.88,7276.63Z" transform="translate(-7111 -7103.46)"/><path class="cls-1" d="M7154.63,7276.63a12.71,12.71,0,0,1-4.62-17.31,12.46,12.46,0,0,1,4.62-4.58,13.55,13.55,0,0,1,13.07,0,12.7,12.7,0,0,1,4.63,17.31,12.41,12.41,0,0,1-4.63,4.58,13.48,13.48,0,0,1-13.07,0Zm9.94-5a6.93,6.93,0,0,0,2.45-2.48,6.65,6.65,0,0,0,.92-3.45,6.47,6.47,0,0,0-.92-3.42,7,7,0,0,0-2.45-2.46,6.53,6.53,0,0,0-3.38-.92,7,7,0,0,0-3.47.89,6.66,6.66,0,0,0-2.51,2.46,6.83,6.83,0,0,0,2.51,9.38,6.84,6.84,0,0,0,3.47.91A6.52,6.52,0,0,0,7164.57,7271.62Z" transform="translate(-7111 -7103.46)"/><path class="cls-1" d="M7189.54,7277.38a9.36,9.36,0,0,1-3.47-2.68l-.15,3.14h-5.83v-37.13h6.27v15.58a9,9,0,0,1,3.42-2.49,11.23,11.23,0,0,1,4.34-.84,11.56,11.56,0,0,1,6.12,1.69,12.14,12.14,0,0,1,4.42,4.6,13.49,13.49,0,0,1,0,12.78,12.14,12.14,0,0,1-4.42,4.6,11.56,11.56,0,0,1-6.12,1.69A10.91,10.91,0,0,1,7189.54,7277.38Zm7-5.54a6.83,6.83,0,0,0,2.51-2.58,7.32,7.32,0,0,0,.91-3.62,7.15,7.15,0,0,0-.91-3.59,6.85,6.85,0,0,0-6-3.5,6.93,6.93,0,0,0-3.5.94,6.83,6.83,0,0,0-2.53,2.56,7.49,7.49,0,0,0,0,7.21,7,7,0,0,0,2.53,2.58,6.77,6.77,0,0,0,3.47.94A6.84,6.84,0,0,0,7196.58,7271.84Z" transform="translate(-7111 -7103.46)"/><path class="cls-1" d="M7216.32,7276.63a12.21,12.21,0,0,1-4.39-4.6,13.07,13.07,0,0,1-1.61-6.39,12.85,12.85,0,0,1,6-11,11.08,11.08,0,0,1,6-1.71,9.84,9.84,0,0,1,7.91,3.33v-2.75h6.27v24.3h-5.83l-.15-3.14a10,10,0,0,1-8.2,3.62A11.3,11.3,0,0,1,7216.32,7276.63Zm10.68-4.94a6.9,6.9,0,0,0,2.51-2.55,7,7,0,0,0,.91-3.5,6.89,6.89,0,0,0-3.42-6,6.67,6.67,0,0,0-3.47-.94,6.75,6.75,0,0,0-3.52.94,6.89,6.89,0,0,0-3.42,6,7,7,0,0,0,.91,3.5,6.9,6.9,0,0,0,2.51,2.55,6.75,6.75,0,0,0,3.52.94A6.67,6.67,0,0,0,7227,7271.69Z" transform="translate(-7111 -7103.46)"/><path class="cls-1" d="M7244.65,7240.71h6.22v37.13h-6.22Z" transform="translate(-7111 -7103.46)"/><path class="cls-1" d="M7260.8,7258.6H7256v-5.06h4.78v-8.73h6.27v8.73h4.72v5.06h-4.72v19.24h-6.27Z" transform="translate(-7111 -7103.46)"/><path class="cls-2" d="M7284.57,7155.35c-18-1-18.94-14.89-37.66-15-19,0-15.1,35.65-35.53,35.65-19.14,0-21.62-55.84-40.69-55.84-19.53,0-22,47-38.08,31.86-6.81-6.43-6.77-10.57-19.27-4.59" transform="translate(-7111 -7103.46)"/><path class="cls-3" d="M7284.57,7160c-18-.95-18.94-14.95-37.66-15-19-.08-15.1,35.09-35.53,35.09-19.14,0-21.62-53.35-40.69-53.35-19.53,0-22,45.09-38.08,29.93-6.81-6.44-6.77-10.57-19.27-4.59" transform="translate(-7111 -7103.46)"/><path class="cls-4" d="M7284.57,7164.56c-18-1-18.94-15-37.66-15-19-.08-15.1,34.53-35.53,34.53-19.14,0-21.62-50.86-40.69-50.86-19.53,0-22,43.16-38.08,28-6.81-6.44-6.77-10.57-19.27-4.6" transform="translate(-7111 -7103.46)"/><path class="cls-5" d="M7284.57,7169.17c-18-.95-18.94-14.95-37.66-15-19-.08-15.1,34-35.53,34-19.14,0-21.62-48.36-40.69-48.36-19.53,0-22,41.23-38.08,26.07-6.81-6.44-6.77-10.57-19.27-4.6" transform="translate(-7111 -7103.46)"/><path class="cls-6" d="M7284.57,7173.78c-18-.95-18.94-14.95-37.66-15-19-.08-15.1,33.4-35.53,33.4-19.14,0-21.62-45.88-40.69-45.88-19.53,0-22,39.3-38.08,24.15-6.81-6.44-6.77-10.57-19.27-4.6" transform="translate(-7111 -7103.46)"/><path class="cls-7" d="M7284.57,7178.39c-18-1-18.94-15-37.66-15-19-.08-15.1,32.83-35.53,32.83-19.14,0-21.62-43.38-40.69-43.38-19.53,0-22,37.37-38.08,22.21-6.81-6.43-6.77-10.57-19.27-4.59" transform="translate(-7111 -7103.46)"/><path class="cls-8" d="M7284.57,7183c-18-.95-18.94-15-37.66-15-19-.08-15.1,32.28-35.53,32.28-19.14,0-21.62-40.89-40.69-40.89-19.53,0-22,35.44-38.08,20.28-6.81-6.43-6.77-10.57-19.27-4.59" transform="translate(-7111 -7103.46)"/><path class="cls-9" d="M7284.57,7187.61c-18-.95-18.94-15-37.66-15-19-.08-15.1,31.72-35.53,31.72-19.14,0-21.62-38.4-40.69-38.4-19.53,0-22,33.51-38.08,18.35-6.81-6.43-6.77-10.57-19.27-4.59" transform="translate(-7111 -7103.46)"/><path class="cls-10" d="M7284.57,7192.22c-18-.95-18.94-15-37.66-15-19-.08-15.1,31.15-35.53,31.15-19.14,0-21.62-35.9-40.69-35.9-19.53,0-22,31.58-38.08,16.42-6.82-6.44-6.77-10.57-19.27-4.59" transform="translate(-7111 -7103.46)"/><path class="cls-11" d="M7284.57,7196.82c-18-.94-18.94-14.95-37.66-15-19-.08-15.1,30.59-35.53,30.59-19.14,0-21.62-33.41-40.69-33.41-19.53,0-22,29.65-38.08,14.49-6.82-6.44-6.77-10.57-19.27-4.59" transform="translate(-7111 -7103.46)"/><path class="cls-12" d="M7284.57,7201.43c-18-1-18.94-15-37.66-15-19-.08-15.1,30-35.53,30-19.14,0-21.62-30.92-40.69-30.92-19.53,0-22,27.72-38.08,12.56-6.82-6.44-6.77-10.57-19.27-4.59" transform="translate(-7111 -7103.46)"/><path class="cls-13" d="M7284.58,7206c-18.06-.95-18.95-14.88-37.67-15-19,0-15.1,29.46-35.53,29.46-19.14,0-21.62-28.42-40.69-28.42-19.53,0-22,25.79-38.08,10.63-6.82-6.44-6.77-10.57-19.27-4.6" transform="translate(-7111 -7103.46)"/><path class="cls-14" d="M7113.89,7158.65c18-.95,18.94-14.88,37.66-15,19,0,15.09,35.65,35.53,35.65,19.13,0,21.61-55.85,40.68-55.85,19.53,0,22,47,38.09,31.87,6.81-6.44,6.77-10.57,19.26-4.6" transform="translate(-7111 -7103.46)"/><path class="cls-15" d="M7113.89,7163.26c18-.95,18.94-14.95,37.66-15,19-.08,15.09,35.08,35.53,35.08,19.13,0,21.61-53.35,40.68-53.35,19.53,0,22,45.09,38.09,29.93,6.81-6.43,6.77-10.56,19.26-4.59" transform="translate(-7111 -7103.46)"/><path class="cls-16" d="M7113.89,7167.87c18-.95,18.94-15,37.66-15,19-.08,15.09,34.52,35.53,34.52,19.13,0,21.61-50.86,40.68-50.86,19.53,0,22,43.16,38.09,28,6.81-6.43,6.77-10.57,19.26-4.59" transform="translate(-7111 -7103.46)"/><path class="cls-17" d="M7113.89,7172.48c18-.95,18.94-15,37.66-15,19-.08,15.09,34,35.53,34,19.13,0,21.61-48.37,40.68-48.37,19.53,0,22,41.23,38.09,26.07,6.81-6.43,6.77-10.57,19.26-4.59" transform="translate(-7111 -7103.46)"/><path class="cls-18" d="M7113.88,7177.09c18.05-1,18.94-15,37.67-15,19-.08,15.09,33.4,35.53,33.4,19.13,0,21.61-45.87,40.68-45.87,19.53,0,22,39.3,38.09,24.14,6.81-6.43,6.77-10.57,19.26-4.59" transform="translate(-7111 -7103.46)"/><path class="cls-19" d="M7113.88,7181.69c18.05-.95,18.94-14.95,37.67-15,19-.08,15.09,32.84,35.53,32.84,19.13,0,21.61-43.38,40.68-43.38,19.53,0,22,37.37,38.09,22.21,6.81-6.44,6.77-10.57,19.26-4.59" transform="translate(-7111 -7103.46)"/><path class="cls-20" d="M7113.88,7186.3c18.05-.95,18.94-14.95,37.67-15,19-.08,15.09,32.28,35.53,32.28,19.13,0,21.61-40.89,40.68-40.89,19.53,0,22,35.44,38.09,20.28,6.81-6.44,6.77-10.57,19.26-4.59" transform="translate(-7111 -7103.46)"/><path class="cls-21" d="M7113.88,7190.91c18.05-.95,18.94-14.95,37.67-15,19-.08,15.09,31.71,35.53,31.71,19.13,0,21.61-38.39,40.68-38.39,19.53,0,22,33.51,38.09,18.35,6.81-6.44,6.77-10.57,19.27-4.6" transform="translate(-7111 -7103.46)"/><path class="cls-22" d="M7113.88,7195.52c18.05-1,18.94-15,37.67-15,19-.08,15.09,31.15,35.53,31.15,19.13,0,21.61-35.9,40.68-35.9,19.53,0,22,31.58,38.09,16.42,6.81-6.44,6.77-10.57,19.27-4.6" transform="translate(-7111 -7103.46)"/><path class="cls-23" d="M7113.88,7200.13c18.05-.95,18.94-15,37.67-15,19-.08,15.09,30.59,35.53,30.59,19.13,0,21.61-33.41,40.68-33.41,19.53,0,22,29.64,38.09,14.48,6.81-6.43,6.77-10.57,19.27-4.59" transform="translate(-7111 -7103.46)"/><path class="cls-24" d="M7113.88,7204.74c18.05-.95,18.94-15,37.67-15,19-.07,15.09,30,35.53,30,19.13,0,21.61-30.91,40.68-30.91,19.53,0,22,27.71,38.09,12.55,6.81-6.43,6.77-10.57,19.27-4.59" transform="translate(-7111 -7103.46)"/><path class="cls-25" d="M7113.88,7209.35c18.05-1,18.94-14.88,37.67-15,19,0,15.09,29.47,35.53,29.47,19.13,0,21.61-28.42,40.68-28.42,19.53,0,22,25.78,38.09,10.62,6.81-6.43,6.77-10.57,19.27-4.59" transform="translate(-7111 -7103.46)"/><rect class="cls-26" x="1.5" y="1.5" width="174" height="189.07"/></svg>