<svg id="Layer_1" data-name="Layer 1" xmlns="http://www.w3.org/2000/svg" viewBox="0 0 146.21 37.63"><defs><style>.cls-1{fill:#fff;}</style></defs><title>logo_text</title><path class="cls-1" d="M240.11,412.83a12.6,12.6,0,0,1,0-21.89,13,13,0,0,1,6.56-1.68,12.67,12.67,0,0,1,5.15,1.06v7a6.44,6.44,0,0,0-2.26-1.74,7,7,0,0,0-2.89-.62,6.8,6.8,0,0,0-3.5.91,6.66,6.66,0,0,0-2.46,2.51,7.22,7.22,0,0,0-.89,3.52,7.08,7.08,0,0,0,.89,3.49,7,7,0,0,0,8.85,2.78,6.49,6.49,0,0,0,2.26-1.69v7a12.35,12.35,0,0,1-5.15,1.06A12.81,12.81,0,0,1,240.11,412.83Z" transform="translate(-233.79 -376.91)"/><path class="cls-1" d="M262.86,412.83a12.72,12.72,0,0,1-4.62-17.31,12.46,12.46,0,0,1,4.62-4.58,13.55,13.55,0,0,1,13.07,0,12.69,12.69,0,0,1,4.63,17.31,12.41,12.41,0,0,1-4.63,4.58A13.45,13.45,0,0,1,262.86,412.83Zm9.94-5a6.78,6.78,0,0,0,2.45-2.48,6.87,6.87,0,0,0,0-6.87A7,7,0,0,0,272.8,396a6.58,6.58,0,0,0-3.38-.92A7,7,0,0,0,266,396a6.66,6.66,0,0,0-2.51,2.46,6.84,6.84,0,0,0,2.45,9.35l.06,0a6.82,6.82,0,0,0,3.47.91,6.48,6.48,0,0,0,3.38-.92Z" transform="translate(-233.79 -376.91)"/><path class="cls-1" d="M297.77,413.58a9.29,9.29,0,0,1-3.47-2.68l-.15,3.14h-5.83V376.91h6.27v15.58A9.08,9.08,0,0,1,298,390a11.33,11.33,0,0,1,4.34-.84,11.57,11.57,0,0,1,6.12,1.69,12.2,12.2,0,0,1,4.42,4.6,13.47,13.47,0,0,1,0,12.78,12.13,12.13,0,0,1-4.42,4.6,11.48,11.48,0,0,1-6.12,1.69A10.93,10.93,0,0,1,297.77,413.58Zm7-5.54a6.83,6.83,0,0,0,2.51-2.58,7.24,7.24,0,0,0,.91-3.62,7.08,7.08,0,0,0-.91-3.59,6.84,6.84,0,0,0-6-3.5,6.93,6.93,0,0,0-3.5.94,6.83,6.83,0,0,0-2.53,2.56,7.51,7.51,0,0,0,0,7.21,7,7,0,0,0,2.53,2.58,7,7,0,0,0,7,0Z" transform="translate(-233.79 -376.91)"/><path class="cls-1" d="M324.55,412.83a12.2,12.2,0,0,1-4.39-4.6,13,13,0,0,1-1.61-6.39,12.87,12.87,0,0,1,6-11,11.18,11.18,0,0,1,6-1.71,9.84,9.84,0,0,1,7.91,3.33v-2.75h6.27V414H338.9l-.15-3.14a10,10,0,0,1-8.2,3.62A11.27,11.27,0,0,1,324.55,412.83Zm10.68-4.94a6.83,6.83,0,0,0,2.51-2.55,7,7,0,0,0-2.51-9.5,6.72,6.72,0,0,0-3.47-.94,6.81,6.81,0,0,0-3.52.94,6.91,6.91,0,0,0-3.42,6,7,7,0,0,0,.91,3.5,6.9,6.9,0,0,0,2.51,2.55,6.71,6.71,0,0,0,3.52.94A6.63,6.63,0,0,0,335.23,407.89Z" transform="translate(-233.79 -376.91)"/><path class="cls-1" d="M352.88,376.91h6.22V414h-6.22Z" transform="translate(-233.79 -376.91)"/><path class="cls-1" d="M369,394.8h-4.8v-5.06H369V381h6.27v8.73H380v5.06h-4.72V414H369Z" transform="translate(-233.79 -376.91)"/></svg>