<svg id="Layer_1" data-name="Layer 1" xmlns="http://www.w3.org/2000/svg" xmlns:xlink="http://www.w3.org/1999/xlink" viewBox="0 0 177 122.05"><defs><style>.cls-1,.cls-10,.cls-11,.cls-12,.cls-13,.cls-14,.cls-15,.cls-16,.cls-17,.cls-18,.cls-19,.cls-2,.cls-20,.cls-21,.cls-22,.cls-23,.cls-24,.cls-26,.cls-3,.cls-4,.cls-5,.cls-6,.cls-7,.cls-8,.cls-9{fill:none;stroke-miterlimit:10;}.cls-1,.cls-10,.cls-11,.cls-12,.cls-13,.cls-14,.cls-15,.cls-16,.cls-17,.cls-18,.cls-19,.cls-2,.cls-20,.cls-21,.cls-22,.cls-23,.cls-24,.cls-3,.cls-4,.cls-5,.cls-6,.cls-7,.cls-8,.cls-9{stroke-linecap:round;}.cls-1,.cls-10,.cls-11,.cls-12,.cls-2,.cls-3,.cls-4,.cls-5,.cls-6,.cls-7,.cls-8,.cls-9{stroke-width:0.98px;}.cls-1{stroke-dasharray:0 1.97;stroke:url(#linear-gradient);}.cls-2{stroke-dasharray:0 1.97;stroke:url(#linear-gradient-2);}.cls-3{stroke-dasharray:0 1.96;stroke:url(#linear-gradient-3);}.cls-4{stroke-dasharray:0 1.96;stroke:url(#linear-gradient-4);}.cls-5{stroke-dasharray:0 1.96;stroke:url(#linear-gradient-5);}.cls-6{stroke-dasharray:0 1.96;stroke:url(#linear-gradient-6);}.cls-7{stroke-dasharray:0 1.96;stroke:url(#linear-gradient-7);}.cls-8{stroke-dasharray:0 1.96;stroke:url(#linear-gradient-8);}.cls-9{stroke-dasharray:0 1.96;stroke:url(#linear-gradient-9);}.cls-10{stroke-dasharray:0 1.96;stroke:url(#linear-gradient-10);}.cls-11{stroke-dasharray:0 1.96;stroke:url(#linear-gradient-11);}.cls-12{stroke-dasharray:0 1.96;stroke:url(#linear-gradient-12);}.cls-13,.cls-14,.cls-15,.cls-16,.cls-17,.cls-18,.cls-19,.cls-20,.cls-21,.cls-22,.cls-23,.cls-24{stroke-width:1.42px;stroke-dasharray:0 2.84;}.cls-13{stroke:url(#White_Black_2);}.cls-14{stroke:url(#White_Black_2-2);}.cls-15{stroke:url(#White_Black_2-3);}.cls-16{stroke:url(#White_Black_2-4);}.cls-17{stroke:url(#White_Black_2-5);}.cls-18{stroke:url(#White_Black_2-6);}.cls-19{stroke:url(#White_Black_2-7);}.cls-20{stroke:url(#White_Black_2-8);}.cls-21{stroke:url(#White_Black_2-9);}.cls-22{stroke:url(#White_Black_2-10);}.cls-23{stroke:url(#White_Black_2-11);}.cls-24{stroke:url(#White_Black_2-12);}.cls-25{fill:#fff;}.cls-26{stroke:#1da3dd;stroke-width:3px;}</style><linearGradient id="linear-gradient" x1="219.35" y1="344.54" x2="391.56" y2="344.54" gradientUnits="userSpaceOnUse"><stop offset="0" stop-color="#3b53a4"/><stop offset="1" stop-color="#6fcbd4"/></linearGradient><linearGradient id="linear-gradient-2" x1="219.35" y1="349.83" x2="391.56" y2="349.83" xlink:href="#linear-gradient"/><linearGradient id="linear-gradient-3" x1="219.35" y1="355.13" x2="391.56" y2="355.13" xlink:href="#linear-gradient"/><linearGradient id="linear-gradient-4" x1="219.35" y1="360.42" x2="391.56" y2="360.42" xlink:href="#linear-gradient"/><linearGradient id="linear-gradient-5" x1="219.35" y1="365.71" x2="391.56" y2="365.71" xlink:href="#linear-gradient"/><linearGradient id="linear-gradient-6" x1="219.35" y1="371" x2="391.56" y2="371" xlink:href="#linear-gradient"/><linearGradient id="linear-gradient-7" x1="219.35" y1="376.3" x2="391.56" y2="376.3" xlink:href="#linear-gradient"/><linearGradient id="linear-gradient-8" x1="219.35" y1="381.59" x2="391.56" y2="381.59" xlink:href="#linear-gradient"/><linearGradient id="linear-gradient-9" x1="219.35" y1="386.88" x2="391.56" y2="386.88" xlink:href="#linear-gradient"/><linearGradient id="linear-gradient-10" x1="219.35" y1="392.18" x2="391.56" y2="392.18" xlink:href="#linear-gradient"/><linearGradient id="linear-gradient-11" x1="219.35" y1="397.47" x2="391.57" y2="397.47" xlink:href="#linear-gradient"/><linearGradient id="linear-gradient-12" x1="219.35" y1="402.24" x2="391.57" y2="402.24" xlink:href="#linear-gradient"/><linearGradient id="White_Black_2" x1="1680.93" y1="347.84" x2="1853.57" y2="347.84" gradientTransform="matrix(-1, 0, 0, 1, 2073.25, 0)" gradientUnits="userSpaceOnUse"><stop offset="0" stop-color="#fff"/><stop offset="1" stop-color="#1d1d1b"/></linearGradient><linearGradient id="White_Black_2-2" x1="1680.93" y1="353.14" x2="1853.57" y2="353.14" xlink:href="#White_Black_2"/><linearGradient id="White_Black_2-3" x1="1680.93" y1="358.43" x2="1853.57" y2="358.43" xlink:href="#White_Black_2"/><linearGradient id="White_Black_2-4" x1="1680.93" y1="363.72" x2="1853.57" y2="363.72" xlink:href="#White_Black_2"/><linearGradient id="White_Black_2-5" x1="1680.93" y1="369.02" x2="1853.57" y2="369.02" xlink:href="#White_Black_2"/><linearGradient id="White_Black_2-6" x1="1680.93" y1="374.31" x2="1853.58" y2="374.31" xlink:href="#White_Black_2"/><linearGradient id="White_Black_2-7" x1="1680.93" y1="379.6" x2="1853.58" y2="379.6" xlink:href="#White_Black_2"/><linearGradient id="White_Black_2-8" x1="1680.93" y1="384.9" x2="1853.58" y2="384.9" xlink:href="#White_Black_2"/><linearGradient id="White_Black_2-9" x1="1680.93" y1="390.19" x2="1853.58" y2="390.19" xlink:href="#White_Black_2"/><linearGradient id="White_Black_2-10" x1="1680.93" y1="395.48" x2="1853.58" y2="395.48" xlink:href="#White_Black_2"/><linearGradient id="White_Black_2-11" x1="1680.93" y1="400.77" x2="1853.58" y2="400.77" xlink:href="#White_Black_2"/><linearGradient id="White_Black_2-12" x1="1680.93" y1="405.55" x2="1853.58" y2="405.55" xlink:href="#White_Black_2"/></defs><title>text_on_waves_border</title><path class="cls-1" d="M391.07,351.85c-18.05-1-18.94-14.89-37.66-15-19,0-15.1,35.65-35.53,35.65-19.14,0-21.62-55.84-40.69-55.84-19.53,0-22,47-38.08,31.86-6.81-6.43-6.77-10.57-19.27-4.59" transform="translate(-216.95 -307.33)"/><path class="cls-2" d="M391.07,356.45c-18.05-.95-18.94-14.95-37.66-15-19-.08-15.1,35.09-35.53,35.09-19.14,0-21.62-53.35-40.69-53.35-19.53,0-22,45.09-38.08,29.93-6.81-6.44-6.77-10.57-19.27-4.59" transform="translate(-216.95 -307.33)"/><path class="cls-3" d="M391.07,361.06c-18.05-.95-18.94-14.95-37.66-15-19-.08-15.1,34.53-35.53,34.53-19.14,0-21.62-50.86-40.69-50.86-19.53,0-22,43.16-38.08,28-6.81-6.44-6.77-10.57-19.27-4.6" transform="translate(-216.95 -307.33)"/><path class="cls-4" d="M391.07,365.67c-18.05-.95-18.94-14.95-37.66-15-19-.08-15.1,34-35.53,34-19.14,0-21.62-48.36-40.69-48.36-19.53,0-22,41.23-38.08,26.07-6.81-6.44-6.77-10.57-19.27-4.6" transform="translate(-216.95 -307.33)"/><path class="cls-5" d="M391.07,370.28c-18.05-.95-18.94-14.95-37.66-15-19-.08-15.1,33.4-35.53,33.4-19.14,0-21.62-45.88-40.69-45.88-19.53,0-22,39.3-38.08,24.15-6.81-6.44-6.77-10.57-19.27-4.6" transform="translate(-216.95 -307.33)"/><path class="cls-6" d="M391.07,374.89c-18.05-.95-18.94-15-37.66-15-19-.08-15.1,32.83-35.53,32.83-19.14,0-21.62-43.38-40.69-43.38-19.53,0-22,37.37-38.08,22.21-6.81-6.43-6.77-10.57-19.27-4.59" transform="translate(-216.95 -307.33)"/><path class="cls-7" d="M391.07,379.5c-18.05-.95-18.94-15-37.66-15-19-.08-15.1,32.28-35.53,32.28-19.14,0-21.62-40.89-40.69-40.89-19.53,0-22,35.44-38.08,20.28-6.81-6.43-6.77-10.57-19.27-4.59" transform="translate(-216.95 -307.33)"/><path class="cls-8" d="M391.07,384.11c-18.05-.95-18.94-15-37.66-15-19-.08-15.1,31.72-35.53,31.72-19.14,0-21.62-38.4-40.69-38.4-19.53,0-22,33.51-38.08,18.35-6.81-6.43-6.77-10.57-19.27-4.59" transform="translate(-216.95 -307.33)"/><path class="cls-9" d="M391.07,388.72c-18.05-1-18.94-15-37.66-15-19-.08-15.1,31.15-35.53,31.15-19.14,0-21.62-35.9-40.69-35.9-19.53,0-22,31.58-38.08,16.42-6.82-6.44-6.77-10.57-19.27-4.59" transform="translate(-216.95 -307.33)"/><path class="cls-10" d="M391.07,393.32c-18.05-.94-18.94-14.95-37.66-15-19-.08-15.1,30.59-35.53,30.59-19.14,0-21.62-33.41-40.69-33.41-19.53,0-22,29.65-38.08,14.49-6.82-6.44-6.77-10.57-19.27-4.59" transform="translate(-216.95 -307.33)"/><path class="cls-11" d="M391.07,397.93C373,397,372.13,383,353.41,382.9c-19-.08-15.1,30-35.53,30-19.14,0-21.62-30.92-40.69-30.92-19.53,0-22,27.72-38.08,12.56-6.82-6.44-6.77-10.57-19.27-4.59" transform="translate(-216.95 -307.33)"/><path class="cls-12" d="M391.08,402.54c-18.06-1-18.95-14.88-37.67-15-19,0-15.1,29.46-35.53,29.46-19.14,0-21.62-28.42-40.69-28.42-19.53,0-22,25.79-38.08,10.63-6.82-6.44-6.77-10.57-19.27-4.6" transform="translate(-216.95 -307.33)"/><path class="cls-13" d="M220.39,355.15c18-.95,18.94-14.88,37.66-15,19,0,15.09,35.65,35.53,35.65,19.13,0,21.61-55.85,40.68-55.85,19.53,0,22,47,38.09,31.87,6.81-6.44,6.77-10.57,19.26-4.6" transform="translate(-216.95 -307.33)"/><path class="cls-14" d="M220.39,359.76c18-.95,18.94-14.95,37.66-15,19-.08,15.09,35.08,35.53,35.08,19.13,0,21.61-53.35,40.68-53.35,19.53,0,22,45.09,38.09,29.93,6.81-6.43,6.77-10.56,19.26-4.59" transform="translate(-216.95 -307.33)"/><path class="cls-15" d="M220.39,364.37c18-.95,18.94-15,37.66-15,19-.08,15.09,34.52,35.53,34.52,19.13,0,21.61-50.86,40.68-50.86,19.53,0,22,43.16,38.09,28,6.81-6.43,6.77-10.57,19.26-4.59" transform="translate(-216.95 -307.33)"/><path class="cls-16" d="M220.39,369c18-1,18.94-15,37.66-15,19-.08,15.09,34,35.53,34,19.13,0,21.61-48.37,40.68-48.37,19.53,0,22,41.23,38.09,26.07,6.81-6.43,6.77-10.57,19.26-4.59" transform="translate(-216.95 -307.33)"/><path class="cls-17" d="M220.38,373.59c18.05-1,18.94-15,37.67-15,19-.08,15.09,33.4,35.53,33.4,19.13,0,21.61-45.87,40.68-45.87,19.53,0,22,39.3,38.09,24.14,6.81-6.43,6.77-10.57,19.26-4.59" transform="translate(-216.95 -307.33)"/><path class="cls-18" d="M220.38,378.19c18.05-.95,18.94-14.95,37.67-15,19-.08,15.09,32.84,35.53,32.84,19.13,0,21.61-43.38,40.68-43.38,19.53,0,22,37.37,38.09,22.21,6.81-6.44,6.77-10.57,19.26-4.59" transform="translate(-216.95 -307.33)"/><path class="cls-19" d="M220.38,382.8c18.05-.95,18.94-14.95,37.67-15,19-.08,15.09,32.28,35.53,32.28,19.13,0,21.61-40.89,40.68-40.89,19.53,0,22,35.44,38.09,20.28,6.81-6.44,6.77-10.57,19.26-4.59" transform="translate(-216.95 -307.33)"/><path class="cls-20" d="M220.38,387.41c18.05-1,18.94-15,37.67-15,19-.08,15.09,31.71,35.53,31.71,19.13,0,21.61-38.39,40.68-38.39,19.53,0,22,33.51,38.09,18.35,6.81-6.44,6.77-10.57,19.27-4.6" transform="translate(-216.95 -307.33)"/><path class="cls-21" d="M220.38,392c18.05-.95,18.94-14.95,37.67-15,19-.08,15.09,31.15,35.53,31.15,19.13,0,21.61-35.9,40.68-35.9,19.53,0,22,31.58,38.09,16.42,6.81-6.44,6.77-10.57,19.27-4.6" transform="translate(-216.95 -307.33)"/><path class="cls-22" d="M220.38,396.63c18.05-.95,18.94-15,37.67-15,19-.08,15.09,30.59,35.53,30.59,19.13,0,21.61-33.41,40.68-33.41,19.53,0,22,29.64,38.09,14.48,6.81-6.43,6.77-10.57,19.27-4.59" transform="translate(-216.95 -307.33)"/><path class="cls-23" d="M220.38,401.24c18.05-.95,18.94-15,37.67-15,19-.07,15.09,30,35.53,30,19.13,0,21.61-30.91,40.68-30.91,19.53,0,22,27.71,38.09,12.55,6.81-6.43,6.77-10.57,19.27-4.59" transform="translate(-216.95 -307.33)"/><path class="cls-24" d="M220.38,405.85c18.05-1,18.94-14.88,37.67-15,19,0,15.09,29.47,35.53,29.47,19.13,0,21.61-28.42,40.68-28.42,19.53,0,22,25.78,38.09,10.62,6.81-6.43,6.77-10.57,19.27-4.59" transform="translate(-216.95 -307.33)"/><path class="cls-25" d="M239.7,386.05a12.61,12.61,0,0,1,0-21.89,13,13,0,0,1,6.56-1.69,12.81,12.81,0,0,1,5.16,1.06v7a6.51,6.51,0,0,0-2.27-1.73,7,7,0,0,0-6.38.29,6.45,6.45,0,0,0-2.46,2.51,7,7,0,0,0-.89,3.51,6.88,6.88,0,0,0,.89,3.5,6.58,6.58,0,0,0,2.46,2.48,7,7,0,0,0,6.38.29,6.65,6.65,0,0,0,2.27-1.69v7a12.65,12.65,0,0,1-5.16,1.07A13,13,0,0,1,239.7,386.05Z" transform="translate(-216.95 -307.33)"/><path class="cls-25" d="M262.46,386.05a12.6,12.6,0,0,1,0-21.89,13.48,13.48,0,0,1,13.07,0,12.6,12.6,0,0,1,0,21.89,13.48,13.48,0,0,1-13.07,0Zm9.93-5a6.8,6.8,0,0,0,2.46-2.48,6.7,6.7,0,0,0,.92-3.45,6.59,6.59,0,0,0-.92-3.42,6.9,6.9,0,0,0-2.46-2.46,6.48,6.48,0,0,0-3.37-.91,6.9,6.9,0,0,0-3.47.89,6.52,6.52,0,0,0-2.51,2.46A6.86,6.86,0,0,0,269,382,6.4,6.4,0,0,0,272.39,381Z" transform="translate(-216.95 -307.33)"/><path class="cls-25" d="M297.37,386.8a9.28,9.28,0,0,1-3.47-2.68l-.15,3.13h-5.83V350.13h6.26V365.7a9,9,0,0,1,3.43-2.48,11.19,11.19,0,0,1,4.34-.84,11.64,11.64,0,0,1,6.12,1.68,12.21,12.21,0,0,1,4.41,4.61,13.39,13.39,0,0,1,0,12.77,12.21,12.21,0,0,1-4.41,4.61,11.65,11.65,0,0,1-6.12,1.69A11.06,11.06,0,0,1,297.37,386.8Zm7-5.55a6.81,6.81,0,0,0,2.5-2.58,7.29,7.29,0,0,0,.92-3.61,7.2,7.2,0,0,0-.92-3.6,6.87,6.87,0,0,0-2.5-2.55,7,7,0,0,0-9.55,2.55,7.45,7.45,0,0,0,0,7.21,7,7,0,0,0,2.54,2.58,6.65,6.65,0,0,0,3.47.94A6.77,6.77,0,0,0,304.41,381.25Z" transform="translate(-216.95 -307.33)"/><path class="cls-25" d="M324.15,386.05a12.24,12.24,0,0,1-4.39-4.61,12.9,12.9,0,0,1-1.61-6.38,12.78,12.78,0,0,1,6-11,11.11,11.11,0,0,1,6-1.71,9.84,9.84,0,0,1,7.91,3.32V363h6.27v24.3h-5.84l-.14-3.13a10,10,0,0,1-8.2,3.62A11.39,11.39,0,0,1,324.15,386.05Zm10.68-4.94a6.83,6.83,0,0,0,2.5-2.56,7,7,0,0,0,.92-3.49,6.92,6.92,0,1,0-13.84,0,7,7,0,0,0,.92,3.49,6.85,6.85,0,0,0,6,3.5A6.77,6.77,0,0,0,334.83,381.11Z" transform="translate(-216.95 -307.33)"/><path class="cls-25" d="M352.47,350.13h6.22v37.12h-6.22Z" transform="translate(-216.95 -307.33)"/><path class="cls-25" d="M368.62,368h-4.77V363h4.77v-8.72h6.27V363h4.73V368h-4.73v19.23h-6.27Z" transform="translate(-216.95 -307.33)"/><rect class="cls-26" x="1.5" y="1.5" width="174" height="119.05"/></svg>