<svg id="Layer_1" data-name="Layer 1" xmlns="http://www.w3.org/2000/svg" xmlns:xlink="http://www.w3.org/1999/xlink" viewBox="0 0 172.98 104.86"><defs><style>.cls-1,.cls-10,.cls-11,.cls-12,.cls-13,.cls-14,.cls-15,.cls-16,.cls-17,.cls-18,.cls-19,.cls-2,.cls-20,.cls-21,.cls-22,.cls-23,.cls-24,.cls-3,.cls-4,.cls-5,.cls-6,.cls-7,.cls-8,.cls-9{fill:none;stroke-linecap:round;stroke-miterlimit:10;}.cls-1,.cls-10,.cls-11,.cls-12,.cls-2,.cls-3,.cls-4,.cls-5,.cls-6,.cls-7,.cls-8,.cls-9{stroke-width:0.98px;}.cls-1{stroke-dasharray:0 1.97;stroke:url(#linear-gradient);}.cls-2{stroke-dasharray:0 1.97;stroke:url(#linear-gradient-2);}.cls-3{stroke-dasharray:0 1.96;stroke:url(#linear-gradient-3);}.cls-4{stroke-dasharray:0 1.96;stroke:url(#linear-gradient-4);}.cls-5{stroke-dasharray:0 1.96;stroke:url(#linear-gradient-5);}.cls-6{stroke-dasharray:0 1.96;stroke:url(#linear-gradient-6);}.cls-7{stroke-dasharray:0 1.96;stroke:url(#linear-gradient-7);}.cls-8{stroke-dasharray:0 1.96;stroke:url(#linear-gradient-8);}.cls-9{stroke-dasharray:0 1.96;stroke:url(#linear-gradient-9);}.cls-10{stroke-dasharray:0 1.96;stroke:url(#linear-gradient-10);}.cls-11{stroke-dasharray:0 1.96;stroke:url(#linear-gradient-11);}.cls-12{stroke-dasharray:0 1.96;stroke:url(#linear-gradient-12);}.cls-13,.cls-14,.cls-15,.cls-16,.cls-17,.cls-18,.cls-19,.cls-20,.cls-21,.cls-22,.cls-23,.cls-24{stroke-width:1.42px;stroke-dasharray:0 2.84;}.cls-13{stroke:url(#White_Black_2);}.cls-14{stroke:url(#White_Black_2-2);}.cls-15{stroke:url(#White_Black_2-3);}.cls-16{stroke:url(#White_Black_2-4);}.cls-17{stroke:url(#White_Black_2-5);}.cls-18{stroke:url(#White_Black_2-6);}.cls-19{stroke:url(#White_Black_2-7);}.cls-20{stroke:url(#White_Black_2-8);}.cls-21{stroke:url(#White_Black_2-9);}.cls-22{stroke:url(#White_Black_2-10);}.cls-23{stroke:url(#White_Black_2-11);}.cls-24{stroke:url(#White_Black_2-12);}</style><linearGradient id="linear-gradient" x1="219.52" y1="371.98" x2="391.72" y2="371.98" gradientUnits="userSpaceOnUse"><stop offset="0" stop-color="#3b53a4"/><stop offset="1" stop-color="#6fcbd4"/></linearGradient><linearGradient id="linear-gradient-2" x1="219.51" y1="377.28" x2="391.72" y2="377.28" xlink:href="#linear-gradient"/><linearGradient id="linear-gradient-3" x1="219.51" y1="382.57" x2="391.72" y2="382.57" xlink:href="#linear-gradient"/><linearGradient id="linear-gradient-4" x1="219.51" y1="387.86" x2="391.72" y2="387.86" xlink:href="#linear-gradient"/><linearGradient id="linear-gradient-5" x1="219.51" y1="393.15" x2="391.72" y2="393.15" xlink:href="#linear-gradient"/><linearGradient id="linear-gradient-6" x1="219.51" y1="398.45" x2="391.73" y2="398.45" xlink:href="#linear-gradient"/><linearGradient id="linear-gradient-7" x1="219.51" y1="403.74" x2="391.73" y2="403.74" xlink:href="#linear-gradient"/><linearGradient id="linear-gradient-8" x1="219.51" y1="409.03" x2="391.73" y2="409.03" xlink:href="#linear-gradient"/><linearGradient id="linear-gradient-9" x1="219.51" y1="414.33" x2="391.73" y2="414.33" xlink:href="#linear-gradient"/><linearGradient id="linear-gradient-10" x1="219.51" y1="419.62" x2="391.73" y2="419.62" xlink:href="#linear-gradient"/><linearGradient id="linear-gradient-11" x1="219.51" y1="424.91" x2="391.73" y2="424.91" xlink:href="#linear-gradient"/><linearGradient id="linear-gradient-12" x1="219.51" y1="429.68" x2="391.73" y2="429.68" xlink:href="#linear-gradient"/><linearGradient id="White_Black_2" x1="1680.77" y1="375.29" x2="1853.41" y2="375.29" gradientTransform="matrix(-1, 0, 0, 1, 2073.25, 0)" gradientUnits="userSpaceOnUse"><stop offset="0" stop-color="#fff"/><stop offset="1" stop-color="#1d1d1b"/></linearGradient><linearGradient id="White_Black_2-2" x1="1680.76" y1="380.58" x2="1853.41" y2="380.58" xlink:href="#White_Black_2"/><linearGradient id="White_Black_2-3" x1="1680.76" y1="385.87" x2="1853.41" y2="385.87" xlink:href="#White_Black_2"/><linearGradient id="White_Black_2-4" x1="1680.76" y1="391.17" x2="1853.41" y2="391.17" xlink:href="#White_Black_2"/><linearGradient id="White_Black_2-5" x1="1680.76" y1="396.46" x2="1853.41" y2="396.46" xlink:href="#White_Black_2"/><linearGradient id="White_Black_2-6" x1="1680.76" y1="401.75" x2="1853.41" y2="401.75" xlink:href="#White_Black_2"/><linearGradient id="White_Black_2-7" x1="1680.76" y1="407.05" x2="1853.41" y2="407.05" xlink:href="#White_Black_2"/><linearGradient id="White_Black_2-8" x1="1680.76" y1="412.34" x2="1853.41" y2="412.34" xlink:href="#White_Black_2"/><linearGradient id="White_Black_2-9" x1="1680.76" y1="417.63" x2="1853.41" y2="417.63" xlink:href="#White_Black_2"/><linearGradient id="White_Black_2-10" x1="1680.76" y1="422.93" x2="1853.41" y2="422.93" xlink:href="#White_Black_2"/><linearGradient id="White_Black_2-11" x1="1680.76" y1="428.22" x2="1853.42" y2="428.22" xlink:href="#White_Black_2"/><linearGradient id="White_Black_2-12" x1="1680.76" y1="432.99" x2="1853.42" y2="432.99" xlink:href="#White_Black_2"/></defs><title>logo_waves</title><path class="cls-1" d="M391.23,379.29c-18-1-18.94-14.88-37.66-15-19,0-15.09,35.65-35.53,35.65-19.13,0-21.61-55.85-40.68-55.85-19.53,0-22,47-38.09,31.86-6.81-6.43-6.77-10.57-19.26-4.59" transform="translate(-219.51 -343.57)"/><path class="cls-2" d="M391.23,383.9c-18-.95-18.94-15-37.66-15-19-.08-15.09,35.09-35.53,35.09-19.13,0-21.61-53.35-40.68-53.35-19.53,0-22,45.09-38.09,29.93-6.81-6.43-6.77-10.57-19.26-4.59" transform="translate(-219.51 -343.57)"/><path class="cls-3" d="M391.23,388.51c-18-1-18.94-15-37.66-15-19-.08-15.09,34.53-35.53,34.53-19.13,0-21.61-50.86-40.68-50.86-19.53,0-22,43.16-38.09,28-6.81-6.43-6.77-10.57-19.26-4.59" transform="translate(-219.51 -343.57)"/><path class="cls-4" d="M391.23,393.11c-18-.95-18.94-14.95-37.66-15-19-.08-15.09,34-35.53,34-19.13,0-21.61-48.37-40.68-48.37-19.53,0-22,41.23-38.09,26.07-6.81-6.44-6.77-10.57-19.27-4.59" transform="translate(-219.51 -343.57)"/><path class="cls-5" d="M391.23,397.72c-18-1-18.94-15-37.66-15-19-.08-15.09,33.4-35.53,33.4-19.13,0-21.61-45.87-40.68-45.87-19.53,0-22,39.3-38.09,24.14-6.81-6.44-6.77-10.57-19.27-4.59" transform="translate(-219.51 -343.57)"/><path class="cls-6" d="M391.23,402.33c-18-.95-18.94-14.95-37.66-15-19-.08-15.09,32.84-35.53,32.84-19.13,0-21.61-43.38-40.68-43.38-19.53,0-22,37.37-38.09,22.21-6.81-6.44-6.77-10.57-19.27-4.6" transform="translate(-219.51 -343.57)"/><path class="cls-7" d="M391.24,406.94c-18.05-.95-18.95-14.95-37.67-15-19-.08-15.09,32.27-35.53,32.27-19.13,0-21.61-40.88-40.68-40.88-19.53,0-22,35.44-38.09,20.28C232.46,397.14,232.5,393,220,399" transform="translate(-219.51 -343.57)"/><path class="cls-8" d="M391.24,411.55c-18.05-.95-18.95-14.95-37.67-15-19-.08-15.09,31.71-35.53,31.71-19.13,0-21.61-38.39-40.68-38.39-19.53,0-22,33.5-38.09,18.35-6.81-6.44-6.77-10.57-19.27-4.6" transform="translate(-219.51 -343.57)"/><path class="cls-9" d="M391.24,416.16c-18.05-1-18.95-15-37.67-15-19-.08-15.09,31.15-35.53,31.15-19.13,0-21.61-35.9-40.68-35.9-19.53,0-22,31.57-38.09,16.41-6.81-6.43-6.77-10.57-19.27-4.59" transform="translate(-219.51 -343.57)"/><path class="cls-10" d="M391.24,420.77c-18.05-.95-18.95-15-37.67-15-19-.08-15.09,30.59-35.53,30.59-19.13,0-21.61-33.4-40.68-33.4-19.53,0-22,29.64-38.09,14.48-6.81-6.43-6.77-10.57-19.27-4.59" transform="translate(-219.51 -343.57)"/><path class="cls-11" d="M391.24,425.38c-18.05-.95-18.94-15-37.67-15-19-.08-15.09,30-35.53,30-19.13,0-21.61-30.91-40.68-30.91-19.53,0-22,27.71-38.09,12.55-6.81-6.44-6.77-10.57-19.27-4.59" transform="translate(-219.51 -343.57)"/><path class="cls-12" d="M391.24,430c-18.05-.95-18.94-14.89-37.67-15-19,0-15.09,29.47-35.53,29.47-19.13,0-21.61-28.43-40.68-28.43-19.53,0-22,25.79-38.09,10.63-6.81-6.44-6.77-10.57-19.27-4.59" transform="translate(-219.51 -343.57)"/><path class="cls-13" d="M220.55,382.59c18-.95,18.94-14.88,37.66-15,19,0,15.1,35.65,35.53,35.65,19.14,0,21.62-55.84,40.69-55.84,19.53,0,22,47,38.08,31.86,6.81-6.44,6.77-10.57,19.27-4.59" transform="translate(-219.51 -343.57)"/><path class="cls-14" d="M220.55,387.2c18-.95,18.94-14.95,37.66-15,19-.08,15.1,35.09,35.53,35.09,19.14,0,21.62-53.35,40.69-53.35,19.53,0,22,45.09,38.08,29.93,6.81-6.44,6.77-10.57,19.27-4.6" transform="translate(-219.51 -343.57)"/><path class="cls-15" d="M220.55,391.81c18-.95,18.94-14.95,37.66-15,19-.08,15.1,34.52,35.53,34.52,19.14,0,21.62-50.86,40.69-50.86,19.53,0,22,43.17,38.08,28,6.81-6.44,6.77-10.57,19.27-4.6" transform="translate(-219.51 -343.57)"/><path class="cls-16" d="M220.55,396.42c18-.95,18.94-14.95,37.66-15,19-.08,15.1,34,35.53,34,19.14,0,21.62-48.37,40.69-48.37,19.53,0,22,41.24,38.08,26.08,6.81-6.44,6.77-10.57,19.27-4.6" transform="translate(-219.51 -343.57)"/><path class="cls-17" d="M220.55,401c18-.95,18.94-15,37.66-15,19-.08,15.1,33.4,35.53,33.4,19.14,0,21.62-45.88,40.69-45.88,19.53,0,22,39.3,38.08,24.14,6.81-6.43,6.77-10.57,19.27-4.59" transform="translate(-219.51 -343.57)"/><path class="cls-18" d="M220.55,405.64c18-.95,18.94-15,37.66-15,19-.07,15.1,32.84,35.53,32.84,19.14,0,21.62-43.38,40.69-43.38,19.53,0,22,37.37,38.08,22.21,6.81-6.43,6.77-10.57,19.27-4.59" transform="translate(-219.51 -343.57)"/><path class="cls-19" d="M220.55,410.25c18-.95,18.94-15,37.66-15,19-.08,15.1,32.28,35.53,32.28,19.14,0,21.62-40.89,40.69-40.89,19.53,0,22,35.44,38.08,20.28,6.81-6.43,6.77-10.57,19.27-4.59" transform="translate(-219.51 -343.57)"/><path class="cls-20" d="M220.55,414.86c18-.95,18.94-15,37.66-15,19-.08,15.1,31.72,35.53,31.72,19.14,0,21.62-38.4,40.69-38.4,19.53,0,22,33.51,38.08,18.35,6.81-6.44,6.77-10.57,19.27-4.59" transform="translate(-219.51 -343.57)"/><path class="cls-21" d="M220.54,419.46c18.05-.94,19-14.95,37.67-15,19-.08,15.1,31.15,35.53,31.15,19.14,0,21.62-35.9,40.69-35.9,19.53,0,22,31.58,38.08,16.42,6.81-6.44,6.77-10.57,19.27-4.59" transform="translate(-219.51 -343.57)"/><path class="cls-22" d="M220.54,424.07c18.05-.95,19-14.95,37.67-15,19-.08,15.1,30.59,35.53,30.59,19.14,0,21.62-33.41,40.69-33.41,19.53,0,22,29.65,38.08,14.49,6.81-6.44,6.77-10.57,19.27-4.59" transform="translate(-219.51 -343.57)"/><path class="cls-23" d="M220.54,428.68c18.05-.95,19-14.95,37.67-15,19-.08,15.1,30,35.53,30,19.14,0,21.62-30.92,40.69-30.92,19.53,0,22,27.72,38.08,12.56,6.81-6.44,6.77-10.57,19.27-4.6" transform="translate(-219.51 -343.57)"/><path class="cls-24" d="M220.54,433.29c18.05-1,19-14.88,37.67-15,19,0,15.1,29.46,35.53,29.46,19.14,0,21.62-28.42,40.69-28.42,19.53,0,22,25.78,38.08,10.63,6.81-6.44,6.77-10.58,19.27-4.6" transform="translate(-219.51 -343.57)"/></svg>